{"glyphs":{"0":{"ha":631,"x_min":56,"x_max":575,"o":"m 476 689 q 516 636 504 671 q 536 564 528 601 q 537 559 536 561 q 538 554 538 557 q 557 474 547 515 q 571 396 567 432 q 575 329 575 363 q 504 88 575 176 q 308 -1 433 -1 q 158 38 238 -1 q 122 110 140 72 q 88 191 103 149 q 65 279 74 233 q 56 378 56 325 q 60 439 56 407 q 77 507 64 472 q 110 574 90 542 q 153 632 129 606 q 201 674 176 658 q 251 695 226 689 q 304 701 276 701 q 381 695 340 701 q 467 689 422 689 l 476 689 m 418 518 q 401 560 414 544 q 369 583 388 575 q 329 594 350 592 q 288 596 308 596 q 283 595 285 596 q 278 594 281 594 q 249 578 263 592 q 224 546 236 565 q 203 503 213 526 q 190 461 194 481 q 182 379 182 428 q 186 328 182 347 q 197 281 190 310 q 212 231 203 257 q 232 183 221 206 q 256 143 243 160 q 281 121 268 126 q 310 117 293 117 q 333 117 321 117 q 354 118 344 118 l 364 118 q 427 207 410 149 q 444 335 444 265 q 437 431 444 390 q 418 518 429 471 z "},"1":{"ha":393,"x_min":14,"x_max":310,"o":"m 182 18 q 173 103 175 63 q 171 185 171 144 q 174 300 171 243 q 176 417 176 357 q 172 525 176 468 q 139 488 157 510 q 92 463 121 467 q 75 461 86 461 q 35 471 51 461 q 15 497 18 481 q 15 501 15 500 q 14 506 14 503 q 23 534 14 519 q 44 562 32 549 q 68 587 56 575 q 89 607 81 599 q 131 658 113 633 q 172 701 150 683 q 213 710 194 710 q 264 684 246 710 q 292 618 282 658 q 303 526 301 578 q 306 424 306 475 l 306 360 q 302 256 306 300 q 299 172 299 211 q 308 85 299 125 q 309 78 308 82 q 310 72 310 75 q 307 46 310 60 q 297 25 304 32 q 266 7 286 14 q 226 0 246 0 q 182 18 194 0 z "},"2":{"ha":533,"x_min":42,"x_max":519,"o":"m 207 596 q 188 569 197 583 q 169 544 179 556 q 143 526 158 533 q 106 518 128 518 q 88 519 94 518 q 73 535 79 526 q 60 550 67 543 q 76 617 61 589 q 115 665 92 646 q 169 694 139 685 q 229 704 199 704 q 309 694 261 704 q 401 663 357 683 q 478 611 446 642 q 510 540 510 581 q 509 528 510 533 q 508 515 508 522 q 486 443 508 478 q 430 376 464 408 q 357 313 396 343 q 284 253 318 282 q 228 194 250 224 q 206 136 206 165 l 206 124 q 238 115 219 117 q 272 113 257 113 q 351 123 315 113 q 431 133 388 133 q 488 124 464 133 q 509 105 499 118 q 519 74 519 92 l 519 67 q 497 30 515 43 q 451 10 478 17 q 390 3 424 4 q 324 1 357 1 q 279 1 300 1 q 239 0 258 1 q 212 -1 226 0 q 182 -1 197 -1 q 133 1 157 -1 q 89 8 108 3 q 56 24 69 14 q 42 50 43 33 q 47 108 42 82 q 61 158 51 133 q 101 222 74 192 q 164 283 129 253 q 235 341 199 313 q 301 398 271 369 q 350 456 331 426 q 369 515 369 485 q 367 547 369 532 q 349 572 364 561 q 301 590 333 583 q 207 596 268 596 z "},"3":{"ha":504,"x_min":69,"x_max":469,"o":"m 94 28 q 90 54 90 42 q 114 94 90 85 q 171 103 138 103 q 239 105 204 104 q 294 118 274 106 q 313 144 304 124 q 327 190 321 165 q 338 240 333 215 q 343 281 342 265 q 344 292 344 288 q 344 303 344 297 q 336 347 344 332 q 307 368 328 361 q 263 381 286 375 q 220 394 240 386 q 196 421 200 403 q 194 433 194 425 q 208 465 194 451 q 237 493 221 479 q 266 522 253 507 q 279 560 279 538 q 278 568 279 564 q 276 578 278 572 q 236 597 261 597 q 181 585 210 597 q 125 574 151 574 q 120 574 122 574 q 115 575 118 575 q 86 588 100 578 q 69 617 72 597 q 85 654 69 638 q 127 681 101 671 q 184 697 153 692 q 244 703 215 703 q 259 703 251 703 q 274 701 267 703 q 319 691 296 699 q 361 671 342 683 q 394 642 381 658 q 410 603 407 625 l 410 594 q 394 534 410 563 q 364 472 378 506 q 400 450 382 461 q 433 424 418 439 q 458 390 447 410 q 469 339 468 369 l 469 328 q 463 259 469 297 q 447 185 457 221 q 424 118 436 149 q 399 72 411 88 q 321 20 372 40 q 211 0 269 0 q 149 6 179 0 q 94 28 119 13 z "},"4":{"ha":614,"x_min":42,"x_max":583,"o":"m 464 246 q 458 217 460 228 q 457 199 457 206 q 459 175 457 186 q 464 135 461 164 q 469 97 465 114 q 474 63 474 79 l 474 54 q 448 13 471 29 q 396 -4 425 -4 q 344 13 369 -4 l 340 43 q 340 47 340 46 q 339 50 339 47 q 338 56 339 53 q 338 61 338 58 q 337 67 338 64 q 336 74 336 71 q 331 120 333 101 q 329 168 329 139 q 329 200 329 183 q 331 239 329 217 q 283 242 311 242 q 222 243 254 243 q 159 245 190 243 q 106 253 128 247 q 67 269 89 257 q 43 294 46 281 q 42 307 42 299 q 65 394 42 344 q 117 494 88 443 q 175 593 147 544 q 211 679 203 642 q 245 697 226 690 q 282 703 264 703 l 289 703 q 320 697 308 703 q 335 660 332 692 q 328 632 335 647 q 311 601 321 617 q 291 572 301 586 q 274 549 281 558 q 249 506 263 533 q 224 451 236 479 q 199 397 211 422 q 182 361 188 372 q 215 353 190 357 q 256 350 240 350 q 287 351 271 350 q 318 351 303 351 l 333 351 q 335 402 335 371 q 336 469 336 433 l 336 529 q 335 569 336 551 q 331 601 335 588 q 364 640 344 625 q 419 656 383 656 q 428 656 424 656 q 439 654 433 656 q 465 607 458 642 q 472 528 472 572 q 469 449 472 488 q 467 382 467 410 l 467 365 q 477 365 469 365 q 494 366 485 365 q 512 367 504 367 q 522 367 519 367 q 571 354 558 367 q 583 310 583 342 q 567 262 583 278 q 508 246 550 246 l 464 246 z "},"5":{"ha":581,"x_min":83,"x_max":553,"o":"m 104 407 q 106 424 106 415 q 106 440 106 432 q 101 508 106 474 q 97 574 97 542 q 111 644 97 615 q 158 680 124 668 q 228 694 192 692 q 274 696 243 694 q 338 698 304 697 q 400 699 371 699 q 443 700 429 700 q 466 700 456 700 q 483 697 476 700 q 517 678 511 692 q 524 649 524 665 q 509 605 524 625 q 460 582 494 585 l 454 582 q 419 583 444 582 q 365 587 394 585 q 309 591 336 589 q 269 593 282 593 q 238 589 251 593 q 231 554 233 571 q 228 519 228 538 q 228 505 228 513 q 231 490 229 497 q 385 451 314 476 q 508 382 456 426 q 542 315 532 350 q 553 243 553 279 q 521 118 553 176 q 435 31 489 60 q 353 2 404 15 q 256 -11 301 -11 q 201 -6 231 -11 q 145 10 171 -1 q 101 38 119 21 q 83 81 83 56 q 104 123 83 101 q 157 144 125 144 q 163 144 160 144 q 168 143 165 143 q 206 122 183 140 q 265 101 229 104 l 278 101 q 333 108 310 101 q 385 122 357 115 q 415 172 404 142 q 425 232 425 201 q 421 267 425 250 q 371 328 410 303 q 290 364 332 353 q 241 372 267 369 q 190 376 215 374 q 143 384 165 378 q 104 407 121 390 z "},"6":{"ha":565,"x_min":69,"x_max":538,"o":"m 206 421 q 324 440 264 440 q 394 433 360 440 q 456 410 428 425 q 504 374 485 396 q 532 322 524 351 q 538 271 538 300 q 531 210 538 240 q 513 151 524 179 q 489 100 503 124 q 461 63 475 76 q 386 18 433 33 q 289 3 339 3 q 169 27 225 3 q 93 101 114 51 q 83 140 86 118 q 76 182 79 163 q 72 231 74 206 q 69 281 69 256 q 86 471 69 375 q 121 651 103 567 q 160 688 132 674 q 215 703 188 703 q 248 694 235 703 q 265 667 261 686 q 266 662 265 664 q 267 657 267 660 q 256 621 267 638 q 240 589 246 604 q 217 503 225 546 q 206 421 210 461 m 231 133 q 269 113 242 122 q 322 104 296 104 q 349 108 338 104 q 369 128 358 113 q 388 163 379 143 q 401 207 396 183 q 407 251 407 231 q 406 274 407 267 q 368 326 397 314 q 299 338 339 338 q 247 335 274 338 q 194 333 221 333 q 197 279 197 308 q 198 223 196 250 q 207 172 200 196 q 231 133 214 149 z "},"7":{"ha":526,"x_min":0,"x_max":479,"o":"m 240 17 q 273 295 250 160 q 326 563 296 431 q 301 572 315 569 q 272 575 288 575 q 177 568 228 575 q 82 561 126 561 q 46 566 63 561 q 17 582 29 571 q 0 614 0 596 q 27 660 0 639 q 83 688 54 682 l 90 688 q 115 686 103 686 q 138 686 126 686 q 238 689 200 686 q 304 693 275 692 l 311 693 q 382 690 351 693 q 444 688 413 688 l 456 688 q 474 665 469 676 q 479 640 479 654 q 465 585 479 615 q 440 518 451 554 q 411 383 421 456 q 389 235 401 310 q 378 168 382 203 q 374 106 374 133 l 374 97 q 378 78 375 86 q 382 63 382 71 q 381 56 382 58 q 347 10 375 28 q 289 -7 318 -7 q 240 17 254 -7 z "},"8":{"ha":558,"x_min":42,"x_max":517,"o":"m 206 350 q 165 374 186 363 q 126 397 144 385 q 91 424 107 410 q 65 457 75 438 q 48 500 54 476 q 42 550 42 524 q 53 613 42 582 q 94 667 65 643 q 162 700 119 689 q 251 711 204 711 q 336 701 294 711 q 408 672 378 692 q 450 624 438 653 q 463 563 463 594 q 442 469 463 517 q 389 386 421 422 q 435 347 413 367 q 476 305 458 326 q 506 258 494 283 q 517 204 517 233 q 513 168 517 186 q 490 118 507 144 q 450 68 472 92 q 403 25 428 44 q 357 -3 378 6 q 318 -13 340 -10 q 269 -17 296 -17 q 207 -11 239 -17 q 147 6 175 -6 q 99 36 119 18 q 71 81 79 54 q 65 114 65 96 q 82 183 65 149 q 122 248 99 217 q 168 306 144 279 q 206 350 192 332 m 314 306 q 276 272 297 290 q 238 230 256 253 q 209 181 221 207 q 197 124 197 154 q 199 103 197 110 q 263 81 231 81 q 310 92 288 81 q 349 124 332 104 q 375 167 365 143 q 385 215 385 192 q 369 269 385 244 q 314 306 353 294 m 342 576 q 308 608 335 597 q 251 619 282 619 q 196 608 221 619 q 167 572 171 596 q 166 568 167 569 q 165 564 165 567 q 167 535 165 549 q 178 500 168 522 q 224 462 196 478 q 285 432 253 446 q 301 460 290 446 q 321 490 311 475 q 338 522 331 506 q 344 556 344 538 q 342 576 344 563 z "},"9":{"ha":539,"x_min":35,"x_max":456,"o":"m 311 19 q 310 34 311 26 q 310 49 310 42 q 307 128 308 92 q 305 199 306 164 q 304 269 304 233 q 304 347 304 306 q 201 328 250 328 q 136 338 167 328 q 83 366 106 347 q 48 413 61 385 q 35 476 35 440 l 35 488 q 38 515 35 497 q 47 553 42 533 q 58 590 51 572 q 69 617 64 608 q 102 649 79 633 q 155 676 125 664 q 217 695 185 688 q 281 703 250 703 q 291 702 286 703 q 301 701 296 701 q 347 690 324 699 q 392 668 371 681 q 431 640 414 656 q 456 610 447 624 q 448 535 451 576 q 442 447 444 493 q 437 351 439 400 q 435 254 435 301 q 436 188 435 214 q 440 128 438 163 q 449 90 443 107 q 454 57 454 72 q 451 40 454 51 q 422 6 444 18 q 374 -7 400 -7 q 340 -1 357 -7 q 311 19 324 6 m 185 439 q 218 428 201 428 q 253 432 238 428 q 281 450 269 436 q 298 491 292 464 q 304 565 304 518 q 294 571 304 568 q 271 576 283 574 q 247 579 258 578 q 231 581 235 581 q 187 572 204 581 q 159 551 169 564 q 144 522 149 538 q 140 492 140 506 q 151 467 140 481 q 185 439 161 454 z "}," ":{"ha":257,"x_min":0,"x_max":0,"o":""},"!":{"ha":336,"x_min":83,"x_max":253,"o":"m 128 132 q 165 136 146 136 q 227 119 201 136 q 253 75 253 103 q 244 42 253 58 q 206 8 233 22 q 150 -6 179 -6 q 103 10 122 -6 q 83 53 83 25 q 97 100 83 76 q 128 132 110 124 m 94 229 q 97 273 97 251 q 97 318 97 294 q 97 447 97 400 q 96 519 96 494 q 94 551 96 543 q 93 562 93 560 q 92 567 93 564 q 92 585 92 569 l 92 603 q 88 624 92 614 q 85 646 85 635 l 85 651 q 115 689 90 676 q 168 701 140 701 q 214 692 194 701 q 228 615 228 660 l 228 308 q 231 296 231 301 q 231 283 231 290 q 229 265 231 271 q 203 222 225 238 q 154 207 182 207 q 123 213 139 207 q 94 229 107 218 z "},"\"":{"ha":481,"x_min":83,"x_max":397,"o":"m 83 676 q 147 701 108 701 q 181 694 165 701 q 208 674 197 688 q 214 654 213 667 q 215 626 215 642 q 215 594 215 611 q 214 561 214 576 q 215 519 214 539 q 215 485 215 500 q 215 463 215 472 q 213 444 215 453 q 197 424 210 431 q 168 418 183 418 q 123 427 144 418 q 93 454 101 436 q 88 474 89 463 q 86 500 86 486 q 87 528 86 514 q 88 554 88 542 l 88 565 q 85 625 86 597 q 83 676 83 653 m 265 676 q 329 701 290 701 q 363 694 347 701 q 390 674 379 688 q 396 654 394 667 q 397 626 397 642 q 397 594 397 611 q 396 561 396 576 q 397 519 396 539 q 397 485 397 500 q 397 463 397 472 q 394 444 397 453 q 378 424 392 431 q 350 418 365 418 q 305 427 326 418 q 275 454 283 436 q 269 474 271 463 q 268 500 268 486 q 269 528 268 514 q 269 554 269 542 l 269 565 q 267 625 268 597 q 265 676 265 653 z "},"#":{"ha":928,"x_min":83,"x_max":844,"o":"m 694 188 q 688 146 688 164 q 691 101 688 124 q 694 58 694 79 q 694 44 694 51 q 692 31 694 38 q 649 8 672 18 q 601 -3 626 -3 q 590 -2 596 -3 q 578 0 585 -1 l 563 163 l 563 194 l 554 194 q 442 185 493 194 q 332 172 390 175 q 322 133 324 156 q 318 89 319 111 q 313 46 317 67 q 299 11 310 25 q 270 -8 288 -1 q 232 -14 253 -14 q 186 -7 211 -14 q 181 24 181 6 q 194 93 181 56 q 208 167 208 131 q 175 172 196 172 q 135 172 154 171 q 100 180 115 174 q 83 206 85 186 l 83 213 q 117 263 83 244 q 190 282 150 282 q 204 281 197 282 q 218 279 211 281 q 231 355 229 314 q 233 440 233 396 q 192 434 215 438 q 149 431 169 431 q 105 438 124 431 q 83 465 86 444 l 83 472 q 100 506 83 493 q 142 525 117 518 q 194 535 167 532 q 244 543 222 539 q 257 616 251 579 q 263 697 263 653 l 263 711 q 300 740 274 726 q 353 753 326 753 q 383 746 369 753 q 401 722 396 739 q 404 711 404 717 q 404 700 404 706 q 390 635 404 668 q 376 567 376 603 l 376 557 q 471 563 421 564 q 567 568 521 563 q 574 646 574 607 q 572 681 574 664 q 567 711 571 697 q 601 743 575 731 q 656 756 628 756 q 710 733 692 756 l 710 717 q 706 635 710 672 q 699 568 703 597 q 713 567 706 567 q 726 567 719 567 l 753 567 q 809 559 785 567 q 833 519 833 551 q 820 485 833 499 q 788 466 807 472 q 748 458 769 460 q 710 456 726 456 l 694 456 q 691 428 692 440 q 690 403 690 415 q 691 368 690 385 q 692 331 692 351 l 692 308 q 739 303 713 303 q 789 301 765 304 q 828 289 813 299 q 844 253 844 279 l 844 243 q 810 198 842 211 q 739 185 779 185 q 717 185 728 185 q 694 188 706 186 m 567 458 q 525 465 547 463 q 479 467 503 467 q 361 451 411 467 l 361 436 q 357 359 361 396 q 347 286 353 322 q 457 294 406 286 q 563 304 508 301 q 565 321 564 313 q 565 338 565 329 q 564 374 565 356 q 563 413 563 393 q 567 458 563 435 z "},"$":{"ha":646,"x_min":42,"x_max":592,"o":"m 349 -4 q 344 -37 346 -21 q 343 -69 343 -53 q 344 -92 343 -81 q 346 -115 346 -103 q 346 -124 346 -119 q 344 -133 346 -129 q 311 -147 329 -144 q 272 -150 293 -150 l 229 -150 q 215 -122 217 -135 q 213 -87 213 -110 l 213 -81 q 214 -56 213 -64 q 216 -43 215 -49 q 218 -31 217 -37 q 219 -10 219 -25 l 219 0 q 181 17 201 10 q 142 33 161 25 q 105 53 122 42 q 76 81 88 64 q 107 126 81 111 q 165 140 133 140 q 219 128 194 140 q 233 271 233 197 q 233 298 233 285 q 232 325 233 311 q 164 354 197 336 q 103 397 131 372 q 59 455 76 422 q 42 526 42 488 q 62 590 42 561 q 113 642 82 619 q 182 681 144 665 q 254 703 219 696 q 257 724 257 710 q 253 753 257 739 q 249 782 249 767 q 250 797 249 792 q 281 838 256 824 q 335 851 307 851 q 382 831 369 851 q 392 794 392 815 q 389 758 392 778 q 386 719 386 739 l 386 706 q 416 687 399 694 q 451 672 433 679 q 481 653 468 664 q 496 625 493 643 l 496 619 q 472 589 496 593 q 417 585 449 585 q 383 589 397 585 q 374 551 376 574 q 369 503 371 528 q 365 453 367 478 q 360 410 364 428 q 398 388 378 397 q 439 366 418 378 q 478 339 460 354 q 514 303 497 324 q 563 238 542 267 q 590 168 585 208 q 591 162 590 165 q 592 156 592 158 q 568 90 592 118 q 508 41 544 61 q 429 9 472 21 q 349 -4 386 -3 m 440 106 q 454 143 454 118 q 444 185 454 165 q 419 222 433 206 q 388 250 404 239 q 360 267 371 261 l 360 247 q 358 206 360 224 q 355 172 357 189 q 351 138 353 156 q 349 97 349 121 q 360 96 354 96 q 371 96 365 96 q 388 95 379 96 q 403 94 396 94 q 440 106 425 94 m 243 604 q 197 576 213 599 q 182 528 182 554 q 195 480 182 503 q 236 450 208 457 q 243 510 238 476 q 249 571 249 543 q 243 604 249 593 z "},"%":{"ha":890,"x_min":83,"x_max":807,"o":"m 799 272 q 803 265 800 269 q 807 254 807 260 q 802 213 807 236 q 790 166 797 189 q 774 124 782 143 q 758 92 765 104 q 733 60 749 76 q 698 31 718 44 q 655 8 678 17 q 607 0 632 0 q 556 11 579 0 q 521 50 532 22 q 510 85 514 65 q 507 128 507 106 q 520 217 507 172 q 557 288 533 261 q 612 327 581 314 q 678 340 643 340 q 742 321 714 340 q 799 272 771 301 m 660 240 q 647 202 653 226 q 640 154 640 178 q 653 106 640 122 q 669 141 661 115 q 676 192 676 167 q 673 220 676 207 q 660 240 669 233 m 533 692 q 560 699 546 696 q 588 701 574 701 q 626 692 610 701 q 642 657 642 682 q 639 638 642 651 q 621 594 635 618 q 596 546 607 569 l 578 510 q 540 431 557 467 q 505 361 522 396 q 469 287 488 326 q 425 196 450 247 q 406 149 415 176 q 388 93 397 121 q 366 43 378 65 q 340 13 354 21 q 290 0 317 0 q 247 8 267 0 q 224 31 228 17 q 222 39 222 33 q 233 80 222 54 q 256 132 243 106 q 282 181 269 158 q 300 214 294 203 q 347 314 328 274 q 382 390 365 354 q 417 465 399 425 q 463 564 435 504 q 492 635 481 603 q 533 692 503 668 m 358 661 q 375 579 375 617 q 360 505 375 539 q 319 447 346 471 q 258 408 293 422 q 183 394 224 394 q 144 398 164 394 q 104 408 124 401 q 94 426 99 417 q 83 442 90 435 q 95 545 93 496 q 119 635 97 594 q 169 683 135 663 q 242 704 204 704 q 254 703 249 704 q 267 701 260 703 q 288 697 276 699 q 308 690 299 696 q 336 678 325 683 q 358 661 347 672 m 240 594 q 220 560 228 582 q 213 514 213 538 q 213 501 213 507 q 215 489 214 496 q 237 518 231 499 q 243 561 243 538 q 243 578 243 569 q 240 594 243 586 z "},"&":{"ha":857,"x_min":179,"x_max":774,"o":"m 358 417 q 313 513 329 461 q 297 606 297 565 q 305 645 297 628 q 332 674 313 663 q 397 697 358 689 q 479 706 436 706 q 546 699 511 706 q 609 676 581 693 q 656 626 638 658 q 675 540 675 593 q 662 485 675 515 q 628 426 649 454 q 581 374 607 397 q 532 342 556 351 q 550 306 542 322 q 569 276 558 290 q 596 245 581 261 q 632 210 611 229 q 639 238 639 222 q 638 256 639 247 q 636 274 636 265 q 639 290 636 279 q 667 326 646 311 q 711 340 688 340 q 738 336 726 340 q 757 324 750 332 q 767 285 767 308 q 760 240 767 264 q 744 192 753 215 q 728 150 736 169 q 717 121 719 131 q 741 104 731 106 q 758 102 751 103 q 769 97 765 101 q 774 72 774 93 q 767 38 774 61 q 744 5 758 10 q 704 0 729 0 q 688 7 696 0 q 669 22 679 14 q 651 36 660 29 q 635 43 643 43 q 584 28 611 43 q 533 8 557 14 q 478 -3 503 1 q 418 -7 454 -7 q 332 1 374 -7 q 261 32 290 8 q 222 69 238 50 q 196 109 206 88 q 183 157 186 131 q 179 218 179 183 q 188 308 179 274 q 216 362 196 342 q 271 394 236 382 q 358 417 306 406 m 581 568 q 569 585 579 578 q 542 597 558 593 q 507 603 526 601 q 471 606 488 606 q 424 601 439 606 q 408 565 408 596 q 415 533 408 550 q 434 501 422 517 q 459 472 446 486 q 485 450 472 458 q 557 484 533 460 q 581 553 581 508 l 581 568 m 396 325 q 308 303 338 325 q 279 244 279 281 q 285 185 279 215 q 308 131 292 156 q 352 92 324 107 q 426 78 381 78 q 460 81 440 78 q 499 90 479 85 q 537 103 518 96 q 569 115 556 110 l 569 124 q 522 174 542 153 q 484 215 501 194 q 451 262 467 236 q 415 325 435 288 l 396 325 z "},"'":{"ha":299,"x_min":83,"x_max":215,"o":"m 83 676 q 147 701 108 701 q 181 694 165 701 q 208 674 197 688 q 214 654 213 667 q 215 626 215 642 q 215 594 215 611 q 214 561 214 576 q 215 519 214 539 q 215 485 215 500 q 215 463 215 472 q 213 444 215 453 q 197 424 210 431 q 168 418 183 418 q 123 427 144 418 q 93 454 101 436 q 88 474 89 463 q 86 500 86 486 q 87 528 86 514 q 88 554 88 542 l 88 565 q 85 625 86 597 q 83 676 83 653 z "},"(":{"ha":383,"x_min":83,"x_max":300,"o":"m 176 -222 q 106 73 129 -92 q 83 408 83 238 q 94 636 83 525 q 128 847 104 747 q 159 872 136 863 q 206 881 182 881 q 238 876 222 881 q 260 858 253 871 q 261 848 261 853 q 261 839 261 843 q 250 786 261 811 q 233 733 239 761 q 215 585 221 663 q 208 425 208 507 q 214 266 208 346 q 231 110 219 186 q 258 -36 242 35 q 297 -168 275 -107 q 300 -181 300 -176 q 274 -219 300 -204 q 219 -235 249 -235 q 176 -222 193 -235 z "},")":{"ha":383,"x_min":83,"x_max":300,"o":"m 207 -222 q 164 -235 190 -235 q 109 -219 135 -235 q 83 -181 83 -204 q 86 -168 83 -176 q 125 -36 108 -107 q 153 110 142 35 q 169 266 164 186 q 175 425 175 346 q 169 585 175 507 q 150 733 163 663 q 133 786 144 761 q 122 839 122 811 q 122 848 122 843 q 124 858 122 853 q 146 876 131 871 q 178 881 161 881 q 224 872 201 881 q 256 847 247 863 q 290 636 279 747 q 300 408 300 525 q 277 73 300 238 q 207 -222 254 -92 z "},"*":{"ha":515,"x_min":83,"x_max":432,"o":"m 354 519 q 371 492 358 503 q 397 472 383 482 q 421 448 410 461 q 432 415 432 435 q 424 395 432 403 q 406 383 417 388 q 382 377 394 379 q 361 375 369 375 q 333 383 346 375 q 309 404 321 392 q 288 429 297 417 q 272 450 279 442 q 256 426 267 439 q 229 401 244 413 q 197 381 214 389 q 164 372 181 372 q 128 385 140 372 q 117 407 117 397 q 127 433 117 418 q 151 462 138 447 q 178 489 165 476 q 193 508 190 501 q 162 523 179 519 q 128 529 144 526 q 100 539 113 532 q 85 564 88 546 q 83 574 83 568 q 102 607 83 599 q 151 615 121 615 q 178 611 171 615 q 200 600 185 607 q 196 639 196 622 q 233 703 196 678 l 253 703 q 311 690 289 703 q 333 642 333 678 q 332 627 333 639 q 331 611 331 615 q 336 613 335 611 q 361 622 349 618 q 386 626 374 626 l 392 626 q 424 619 418 626 q 431 601 431 611 q 431 597 431 599 q 432 592 432 594 q 423 565 432 574 q 401 550 414 556 q 376 538 389 544 q 354 519 363 532 z "},"+":{"ha":793,"x_min":83,"x_max":710,"o":"m 450 313 q 446 260 446 288 q 450 189 446 225 q 454 119 454 153 q 446 56 454 85 q 407 34 429 43 q 360 25 385 25 q 340 26 347 25 q 321 76 325 49 q 317 132 317 103 q 319 194 317 163 q 322 257 322 226 q 318 308 322 283 q 294 312 307 311 q 268 313 282 313 q 216 310 243 313 q 165 308 189 308 q 108 317 131 308 q 83 353 85 325 l 83 358 q 95 397 83 382 q 126 419 107 411 q 169 428 144 426 q 222 431 194 431 q 261 430 242 431 q 300 429 281 429 l 318 429 q 328 488 328 453 q 325 537 328 513 q 322 585 322 561 q 323 601 322 593 q 325 617 324 610 q 350 654 331 642 q 397 667 369 667 q 419 665 408 667 q 442 660 431 664 q 458 626 454 644 q 463 586 463 607 q 456 514 463 551 q 450 442 450 476 l 450 429 q 496 424 468 424 q 567 429 531 424 q 636 435 604 435 q 686 426 665 435 q 710 389 707 417 l 710 379 q 682 334 710 346 q 613 319 654 322 q 528 317 572 317 q 450 313 483 318 z "},",":{"ha":306,"x_min":83,"x_max":222,"o":"m 90 -240 q 92 -204 90 -217 q 95 -181 93 -192 q 99 -156 97 -169 q 101 -117 101 -143 q 94 -49 101 -81 q 83 19 86 -17 q 110 45 90 36 q 151 54 129 54 q 196 44 176 54 q 215 -24 208 17 q 222 -107 222 -64 q 219 -172 222 -146 q 204 -215 215 -199 q 173 -237 193 -231 q 119 -244 153 -244 q 90 -240 107 -244 z "},"-":{"ha":793,"x_min":83,"x_max":710,"o":"m 381 314 q 344 314 363 314 q 310 313 326 314 q 283 313 294 313 q 268 313 272 313 q 216 310 243 313 q 165 308 189 308 q 108 317 131 308 q 83 353 85 325 l 83 358 q 95 397 83 382 q 126 419 107 411 q 169 428 144 426 q 222 431 194 431 q 261 430 242 431 q 300 429 281 429 l 318 429 q 349 426 324 428 q 406 424 375 425 q 463 424 436 424 q 496 424 489 424 q 567 429 531 424 q 636 435 604 435 q 686 426 665 435 q 710 389 707 417 l 710 379 q 690 344 710 357 q 640 324 671 331 q 570 315 608 317 q 494 313 532 313 q 430 313 460 313 q 381 314 400 314 z "},".":{"ha":336,"x_min":83,"x_max":253,"o":"m 128 132 q 165 136 146 136 q 227 119 201 136 q 253 75 253 103 q 244 42 253 58 q 206 8 233 22 q 150 -6 179 -6 q 103 10 122 -6 q 83 53 83 25 q 97 100 83 76 q 128 132 110 124 z "},"/":{"ha":860,"x_min":83,"x_max":776,"o":"m 83 -179 q 126 -60 96 -117 q 185 58 157 -3 q 273 228 218 131 q 388 426 328 325 q 507 621 449 526 q 607 782 565 715 q 622 808 614 793 q 640 837 631 822 q 658 863 649 851 q 679 876 668 874 q 690 878 682 878 q 718 873 703 878 q 746 860 733 868 q 767 841 758 851 q 776 819 776 831 q 775 811 776 814 q 753 767 767 789 q 724 725 740 746 q 692 683 708 704 q 663 642 676 663 q 635 599 653 626 q 595 538 617 572 q 551 467 574 504 q 506 397 528 431 q 468 335 485 363 q 443 293 451 308 q 339 103 390 199 q 246 -89 288 7 q 235 -121 239 -104 q 228 -152 232 -137 q 220 -179 225 -167 q 207 -200 215 -192 q 168 -211 193 -211 q 121 -203 144 -211 q 83 -179 97 -194 z "},":":{"ha":336,"x_min":83,"x_max":253,"o":"m 128 411 q 165 415 146 415 q 227 399 201 415 q 253 354 253 382 q 244 321 253 338 q 206 288 233 301 q 150 274 179 274 q 103 289 122 274 q 83 332 83 304 q 97 379 83 356 q 128 411 110 403 m 128 124 q 165 128 146 128 q 227 111 201 128 q 253 67 253 94 q 244 33 253 50 q 206 0 233 14 q 150 -14 179 -14 q 103 1 122 -14 q 83 44 83 17 q 97 92 83 68 q 128 124 110 115 z "},";":{"ha":336,"x_min":83,"x_max":253,"o":"m 111 -240 q 113 -204 111 -217 q 116 -181 114 -192 q 120 -156 118 -169 q 122 -117 122 -143 q 115 -49 122 -81 q 104 19 107 -17 q 131 45 111 36 q 172 54 150 54 q 217 44 197 54 q 236 -24 229 17 q 243 -107 243 -64 q 240 -172 243 -146 q 225 -215 236 -199 q 194 -237 214 -231 q 140 -244 174 -244 q 111 -240 128 -244 m 128 411 q 165 415 146 415 q 227 399 201 415 q 253 354 253 382 q 244 321 253 338 q 206 288 233 301 q 150 274 179 274 q 103 289 122 274 q 83 332 83 304 q 97 379 83 356 q 128 411 110 403 z "},"<":{"ha":714,"x_min":83,"x_max":631,"o":"m 549 31 q 519 13 538 18 q 482 7 501 7 q 424 19 449 7 q 358 101 392 67 q 281 169 324 135 q 226 208 254 192 q 172 241 199 225 q 123 274 146 257 q 83 314 100 292 l 83 324 q 107 360 86 350 q 149 382 128 369 q 288 472 219 426 q 419 563 357 518 q 446 581 431 571 q 477 601 461 592 q 509 618 493 611 q 538 625 525 625 q 568 619 551 625 q 599 603 585 613 q 622 581 613 594 q 631 553 631 568 q 630 549 631 550 q 629 544 629 547 q 617 526 626 533 q 596 510 608 518 q 569 497 583 503 q 544 485 556 490 q 412 399 472 444 q 285 317 351 354 q 396 217 343 269 q 500 111 449 164 q 533 83 515 96 q 550 44 550 69 q 549 31 550 36 z "},"=":{"ha":679,"x_min":83,"x_max":596,"o":"m 551 328 q 583 303 571 321 q 596 267 596 286 q 571 219 596 239 q 549 210 561 213 q 521 208 536 208 q 481 210 501 208 q 442 214 461 213 l 429 214 q 380 212 408 214 q 320 208 351 210 q 259 204 289 206 q 207 203 229 203 q 174 204 190 203 q 142 208 157 206 q 101 228 118 214 q 83 257 85 242 l 83 263 q 94 294 83 281 q 121 316 106 307 q 153 330 136 325 q 183 335 171 335 q 210 329 197 333 q 238 324 224 325 q 258 322 249 322 q 279 322 268 322 q 329 324 300 322 q 388 326 358 325 q 447 329 418 328 q 497 331 476 331 q 524 331 511 331 q 551 328 538 331 m 592 461 q 594 442 594 447 q 567 395 594 411 q 500 379 539 379 q 472 384 485 379 q 444 390 460 389 q 432 391 438 390 q 419 392 426 392 q 377 391 403 392 q 324 389 351 390 q 270 387 297 388 q 225 386 243 386 q 143 397 178 386 q 106 439 108 407 q 133 494 106 472 q 185 518 160 515 q 215 515 200 518 q 250 510 231 513 q 270 508 260 508 q 292 508 281 508 q 322 508 303 508 q 360 509 340 508 q 399 510 381 510 q 431 510 418 510 q 487 508 460 510 q 536 501 514 506 q 573 486 558 496 q 592 461 588 476 z "},">":{"ha":714,"x_min":83,"x_max":631,"o":"m 165 31 q 164 44 164 36 q 181 83 164 69 q 214 111 199 96 q 318 217 265 164 q 429 317 371 269 q 302 399 363 354 q 169 485 242 444 q 144 497 158 490 q 118 510 131 503 q 96 526 106 518 q 85 544 86 533 q 84 549 85 547 q 83 553 83 550 q 92 581 83 568 q 115 603 101 594 q 145 619 129 613 q 176 625 161 625 q 205 618 189 625 q 237 601 221 611 q 268 581 253 592 q 294 563 283 571 q 426 472 357 518 q 565 382 494 426 q 607 360 586 369 q 631 324 628 350 l 631 314 q 591 274 614 292 q 542 241 568 257 q 488 208 515 225 q 433 169 460 192 q 356 101 390 135 q 290 19 322 67 q 232 7 265 7 q 194 13 213 7 q 165 31 176 18 z "},"?":{"ha":653,"x_min":83,"x_max":569,"o":"m 440 204 q 406 188 426 194 q 363 181 385 181 q 333 185 347 181 q 308 201 318 190 q 307 236 307 221 q 307 264 307 251 q 307 282 307 275 q 308 295 307 289 q 309 308 308 301 q 311 325 310 314 q 330 371 313 350 q 369 411 347 392 q 409 450 390 431 q 431 492 428 469 q 431 499 431 494 q 432 506 432 503 q 429 539 432 522 q 415 568 426 556 q 378 588 403 581 q 310 596 354 596 q 276 592 290 596 q 236 556 253 585 q 219 492 219 526 q 221 475 219 481 q 236 442 224 454 q 263 419 249 429 q 288 397 276 408 q 299 369 299 386 q 271 322 296 336 q 215 307 246 307 q 174 314 194 307 q 108 381 132 329 q 83 496 83 433 q 96 578 83 538 q 133 635 108 611 q 190 673 157 658 q 260 694 222 688 q 339 701 299 701 l 346 701 q 510 647 451 701 q 569 469 569 593 q 550 423 569 449 q 508 372 531 397 q 465 328 485 347 q 443 303 444 308 q 439 282 440 283 q 438 274 438 281 q 439 253 438 263 q 440 221 440 243 l 440 204 m 329 132 q 367 136 347 136 q 428 119 403 136 q 454 75 454 103 q 446 42 454 58 q 408 8 435 22 q 351 -6 381 -6 q 304 10 324 -6 q 285 53 285 25 q 298 100 285 76 q 329 132 311 124 z "},"@":{"ha":1006,"x_min":83,"x_max":922,"o":"m 506 161 q 456 144 482 150 q 404 139 431 139 q 331 153 364 139 q 285 197 297 167 q 276 253 276 219 q 284 318 276 286 q 304 367 292 350 q 341 398 317 383 q 396 423 365 413 q 460 440 426 433 q 522 446 493 446 q 552 444 538 446 q 578 439 567 443 q 625 420 597 433 q 658 392 653 407 q 661 376 661 383 q 652 324 661 353 q 633 271 643 294 q 622 201 622 244 q 635 138 622 167 q 681 108 647 108 q 695 110 688 108 q 710 114 703 111 q 738 141 724 119 q 765 190 753 163 q 784 247 776 218 q 794 297 792 276 q 796 319 796 307 q 796 347 796 332 q 793 424 796 383 q 783 488 790 464 q 751 538 775 515 q 691 575 726 560 q 614 599 656 590 q 529 607 572 607 q 476 603 501 607 q 428 593 451 600 q 341 556 385 582 q 278 501 297 531 q 256 463 267 486 q 237 414 246 440 q 221 360 228 388 q 211 311 214 333 q 209 290 210 300 q 208 269 208 281 q 238 131 208 190 q 313 38 268 72 q 357 19 329 25 q 412 8 385 14 q 459 -10 439 1 q 479 -47 479 -22 q 453 -94 479 -75 q 399 -114 428 -112 q 345 -101 369 -114 q 296 -78 321 -87 q 240 -55 265 -65 q 194 -30 215 -44 q 157 4 174 -15 q 128 54 140 24 q 114 90 121 68 q 101 135 107 111 q 90 181 94 158 q 83 219 85 203 l 83 239 q 97 353 83 299 q 128 454 111 408 q 148 507 138 483 q 171 550 158 531 q 200 586 183 569 q 240 619 217 603 q 383 681 301 660 q 553 703 465 703 q 656 694 600 703 q 762 665 711 685 q 852 614 813 646 q 907 535 892 582 q 920 451 918 500 q 922 360 922 403 l 922 347 q 916 288 922 322 q 901 219 910 254 q 880 153 892 185 q 857 103 868 122 q 777 30 825 50 q 672 10 729 10 q 601 21 628 10 q 556 52 574 32 q 526 100 538 72 q 506 161 515 128 m 508 338 q 478 344 497 344 q 442 339 460 344 q 414 326 425 333 q 406 303 408 317 q 403 278 403 290 q 417 238 403 250 q 481 269 464 240 q 508 338 499 299 z "},"A":{"ha":650,"x_min":28,"x_max":622,"o":"m 494 18 q 461 155 475 89 q 424 289 447 221 q 386 280 407 282 q 342 278 365 278 q 299 278 321 278 q 257 279 278 279 l 246 279 q 199 154 218 221 q 160 21 179 88 q 133 3 154 10 q 88 -4 111 -4 q 46 5 64 -4 q 28 36 28 14 q 35 79 28 56 q 51 126 42 103 q 72 174 61 150 q 90 217 83 197 l 106 256 q 142 344 124 303 q 180 425 161 385 q 217 507 199 465 q 257 597 236 549 q 276 647 267 621 q 293 682 285 672 q 317 697 303 693 q 349 701 332 701 q 408 690 379 701 q 442 617 432 654 q 467 536 451 579 q 498 456 481 496 q 526 372 515 415 q 548 292 538 329 q 569 219 558 254 q 592 147 581 183 q 619 72 604 111 q 622 64 621 68 q 622 53 622 60 q 617 25 622 38 q 583 7 603 14 q 544 0 564 0 q 494 18 517 0 m 350 533 q 318 463 333 497 q 292 389 303 429 q 338 385 315 386 q 381 383 360 383 l 394 383 q 375 460 386 424 q 350 533 364 497 z "},"B":{"ha":632,"x_min":69,"x_max":618,"o":"m 74 647 q 113 667 89 658 q 165 683 138 676 q 220 694 192 690 q 272 701 249 699 l 286 701 q 319 699 303 701 q 353 694 336 697 q 399 685 374 690 q 447 672 424 679 q 492 656 471 665 q 528 632 514 646 q 561 572 550 611 q 572 496 572 532 q 551 420 572 446 q 490 372 531 394 q 544 333 517 350 q 586 283 571 315 q 609 234 600 254 q 618 172 618 214 q 615 135 618 149 q 603 104 611 122 q 578 75 596 89 q 538 49 560 61 q 493 27 517 36 q 453 13 469 18 q 311 -7 386 -7 q 225 1 267 -7 q 153 26 183 8 q 107 55 124 39 q 82 90 90 71 q 72 135 74 110 q 69 192 69 160 q 71 278 69 242 q 73 351 72 315 q 75 424 74 386 q 76 515 76 463 q 76 581 76 549 q 74 647 75 614 m 392 288 q 342 293 371 293 q 288 295 314 293 q 244 306 263 297 q 226 338 226 314 q 240 369 226 358 q 274 386 254 381 q 313 394 293 392 q 346 401 333 397 q 372 414 356 406 q 403 433 388 422 q 430 455 418 443 q 442 478 442 467 q 435 530 442 501 q 413 568 428 558 q 359 590 393 582 q 293 599 325 599 q 242 592 265 599 q 211 569 219 585 q 206 449 207 503 q 204 346 204 396 q 203 244 204 296 q 201 132 203 193 q 269 107 232 115 q 346 99 307 99 q 418 106 383 99 q 481 128 453 113 q 484 147 483 142 q 485 165 485 151 q 463 249 485 224 q 392 288 440 275 z "},"C":{"ha":568,"x_min":42,"x_max":526,"o":"m 297 596 q 245 558 268 585 q 207 497 222 532 q 183 420 192 461 q 175 338 175 379 q 183 258 175 296 q 216 178 194 210 q 274 122 238 146 q 320 103 297 107 q 367 99 343 99 q 414 101 390 99 q 463 103 438 103 q 515 99 488 103 q 526 58 526 74 q 515 26 526 39 q 483 5 503 13 q 438 -6 464 -3 q 385 -10 413 -10 q 290 -2 336 -10 q 215 15 243 6 q 135 70 168 42 q 81 135 101 99 q 51 217 60 171 q 42 328 42 264 q 42 342 42 335 q 43 358 43 350 q 47 398 44 376 q 52 442 49 419 q 60 483 56 464 q 71 514 64 501 q 113 583 89 549 q 167 643 136 617 q 236 685 197 669 q 324 701 275 701 q 340 701 332 701 q 358 699 349 700 q 399 691 374 696 q 451 678 425 686 q 495 658 476 669 q 515 629 514 646 q 490 585 515 601 q 438 568 465 568 q 376 577 414 568 q 308 593 339 586 l 297 596 z "},"D":{"ha":608,"x_min":69,"x_max":594,"o":"m 594 467 l 594 460 q 535 225 588 321 q 406 67 483 129 q 369 43 392 56 q 322 19 347 31 q 273 -1 297 7 q 231 -8 249 -8 l 218 -8 q 182 -8 203 -8 q 141 -5 161 -7 q 104 3 121 -3 q 82 18 88 8 q 78 47 78 26 q 82 111 78 74 q 86 186 86 149 q 78 401 86 293 q 69 617 69 508 q 72 635 69 626 q 98 670 79 657 q 142 691 117 683 q 196 701 167 699 q 254 703 225 703 q 369 690 311 703 q 476 648 428 676 q 558 575 525 619 q 594 467 590 531 m 324 139 q 410 254 381 182 q 450 408 439 326 q 455 435 453 421 q 457 463 457 450 q 440 512 457 488 q 399 556 424 536 q 346 588 374 575 q 297 600 318 600 q 255 599 276 600 q 211 589 233 597 q 210 542 210 565 q 210 496 210 519 q 215 304 210 396 q 219 107 219 213 l 219 81 q 270 106 243 92 q 324 139 297 119 z "},"E":{"ha":606,"x_min":69,"x_max":536,"o":"m 213 589 q 209 506 208 542 q 204 421 210 471 q 254 417 229 417 q 304 419 279 417 q 356 421 329 421 q 435 411 397 421 q 446 369 446 389 q 420 328 446 342 q 358 311 394 315 q 279 308 321 307 q 207 307 238 308 q 208 208 207 258 q 213 113 210 158 q 248 107 231 108 q 282 106 265 106 q 367 111 325 106 q 457 117 408 117 q 478 117 468 117 q 499 115 488 117 q 520 93 514 106 q 526 68 526 81 q 505 22 526 43 q 450 -3 483 0 l 444 -3 q 421 -1 433 -3 q 396 1 408 1 l 175 1 q 151 -1 161 -1 q 101 11 125 -1 q 76 57 76 24 q 74 203 75 144 q 73 300 74 261 q 72 364 72 339 q 71 411 71 389 q 72 473 71 439 q 74 543 74 507 q 72 588 74 565 q 69 631 69 611 q 75 668 69 656 q 91 683 79 678 q 119 691 103 689 q 153 694 135 693 q 188 694 171 694 l 197 694 q 254 693 229 694 q 303 692 279 692 q 350 694 326 692 q 393 697 374 696 l 403 697 q 423 698 413 697 q 444 699 433 699 q 508 690 481 699 q 536 649 536 681 l 536 639 q 520 610 533 621 q 488 594 507 600 q 443 587 468 589 q 393 585 418 585 q 342 585 367 585 q 297 586 317 586 q 265 588 281 586 q 232 590 249 590 q 213 589 219 590 z "},"F":{"ha":536,"x_min":69,"x_max":536,"o":"m 76 22 q 74 173 75 110 q 73 282 74 236 q 72 358 72 328 q 71 411 71 389 q 72 473 71 439 q 74 543 74 507 q 72 588 74 565 q 69 631 69 611 q 75 668 69 656 q 91 683 79 678 q 119 691 103 689 q 153 694 135 693 q 188 694 171 694 l 197 694 q 254 693 229 694 q 303 692 279 692 q 350 694 326 692 q 393 697 374 696 l 403 697 q 423 698 413 697 q 444 699 433 699 q 508 690 481 699 q 536 649 536 681 l 536 639 q 520 610 533 621 q 488 594 507 600 q 443 587 468 589 q 393 585 418 585 q 342 585 367 585 q 297 586 317 586 q 265 588 281 586 q 232 590 249 590 q 213 589 219 590 q 209 506 208 542 q 204 421 210 471 q 254 417 229 417 q 304 419 279 417 q 356 421 329 421 q 435 411 397 421 q 446 369 446 389 q 420 328 446 342 q 358 311 394 315 q 279 308 321 307 q 207 307 238 308 q 208 250 207 282 q 209 185 208 218 q 211 120 210 151 q 214 67 213 89 l 214 60 q 184 17 210 36 q 129 -1 158 -1 q 101 4 114 -1 q 76 22 88 10 z "},"G":{"ha":693,"x_min":42,"x_max":651,"o":"m 496 667 q 529 711 500 694 q 590 728 558 728 q 628 719 611 728 q 650 690 644 710 q 651 679 651 686 q 648 651 651 671 q 640 612 644 632 q 629 575 635 592 q 621 554 624 558 q 597 535 611 540 q 568 529 583 529 q 514 539 543 529 q 453 561 485 549 q 389 583 421 574 q 328 593 357 593 q 311 592 317 593 q 278 581 292 589 q 244 561 265 572 q 194 476 208 525 q 179 374 179 426 q 192 263 179 317 q 225 168 206 208 q 297 117 256 129 q 410 96 339 104 l 417 101 q 440 122 433 113 q 446 158 446 131 q 441 222 446 190 q 431 278 436 254 q 430 283 431 281 q 429 288 429 285 q 382 289 408 288 q 333 297 356 290 q 294 314 310 303 q 278 346 278 325 q 279 356 278 351 q 288 372 281 364 q 307 387 296 379 q 330 399 318 394 q 353 406 342 404 q 373 408 363 408 q 394 408 383 408 q 492 398 440 408 q 574 372 543 388 q 579 339 579 357 q 583 242 579 289 q 588 149 588 196 l 588 140 q 581 92 586 111 q 565 61 575 74 q 540 40 554 49 q 507 22 525 32 l 490 14 q 440 -4 467 1 q 388 -10 414 -10 q 286 3 336 -10 q 194 40 236 17 q 120 97 151 64 q 76 169 89 129 q 51 268 61 213 q 42 379 42 324 q 48 451 42 417 q 68 514 54 486 q 88 549 76 529 q 110 586 99 568 q 133 619 122 604 q 151 640 144 633 q 182 659 161 649 q 228 679 203 669 q 279 695 253 689 q 326 701 306 701 q 410 691 368 701 q 496 667 451 681 z "},"H":{"ha":771,"x_min":69,"x_max":701,"o":"m 543 315 q 464 325 506 325 q 347 310 403 325 q 240 283 290 294 q 239 269 239 276 q 239 254 239 261 q 244 177 239 215 q 250 103 250 139 q 244 52 250 76 q 222 8 238 28 q 195 1 211 6 q 163 -3 179 -3 q 124 10 136 -3 q 111 33 114 18 q 108 68 108 49 q 110 113 108 89 q 113 160 113 138 l 113 171 q 110 273 110 219 q 108 381 110 326 q 101 490 106 436 q 86 592 96 543 q 76 622 83 607 q 69 649 69 636 q 98 687 74 672 q 150 701 122 701 q 185 694 167 701 q 210 671 200 688 q 224 631 219 654 q 231 578 229 607 q 233 519 233 549 q 233 501 233 507 q 233 491 233 496 q 232 481 232 486 q 232 465 232 475 q 233 426 232 444 q 238 397 235 408 q 373 420 308 407 q 515 433 438 433 q 531 433 524 433 q 547 432 539 432 q 548 476 547 454 q 549 519 549 497 q 549 542 549 533 q 547 558 549 551 q 544 574 546 565 q 540 599 543 583 q 536 621 539 610 q 533 643 533 632 q 536 658 533 654 q 568 683 543 674 q 619 693 593 693 q 658 683 644 693 q 679 629 675 669 q 683 540 683 589 q 679 447 683 497 q 675 344 675 397 l 675 329 q 681 261 676 292 q 689 203 686 231 q 701 67 697 135 q 673 20 701 38 q 615 3 644 3 q 595 5 604 3 q 579 14 586 7 q 566 40 569 21 q 561 81 563 58 q 560 126 560 103 q 558 164 560 149 q 551 242 556 208 q 543 315 546 276 z "},"I":{"ha":294,"x_min":69,"x_max":225,"o":"m 224 35 q 190 7 213 18 q 143 -4 167 -4 q 115 0 128 -4 q 90 15 101 4 q 85 61 85 33 q 88 119 85 89 q 92 181 92 149 q 81 422 90 297 q 69 665 72 547 q 106 691 81 681 q 157 701 132 701 q 207 681 192 701 q 214 663 213 674 q 215 640 215 653 q 213 600 215 621 q 211 558 211 579 l 211 539 q 218 335 211 436 q 225 125 225 233 q 225 80 225 101 q 224 35 225 58 z "},"J":{"ha":513,"x_min":14,"x_max":443,"o":"m 436 185 q 421 87 435 128 q 363 22 407 46 q 322 8 346 13 q 269 4 297 4 q 219 7 244 4 q 175 17 194 10 q 119 41 147 25 q 67 76 90 57 q 29 116 44 94 q 14 158 14 138 q 15 163 14 161 q 15 168 15 165 q 41 199 19 189 q 86 210 63 210 q 107 207 93 210 q 129 195 119 204 q 148 176 139 186 q 167 155 157 165 q 189 138 176 144 q 228 121 204 129 q 267 113 251 113 q 275 114 272 113 q 300 158 294 121 q 306 238 306 194 q 305 295 306 268 q 304 340 304 322 q 299 463 304 407 q 286 564 293 518 q 285 569 286 567 q 285 574 285 571 q 276 609 282 590 q 271 646 271 628 q 275 667 271 658 q 306 692 282 682 q 354 703 329 703 q 390 695 374 703 q 415 672 407 688 q 419 653 419 664 q 418 635 419 644 q 417 615 417 626 l 417 608 q 432 470 421 543 q 443 326 443 397 q 440 254 443 285 q 436 185 438 224 z "},"K":{"ha":725,"x_min":69,"x_max":697,"o":"m 333 407 q 274 360 300 388 q 214 315 249 332 q 218 292 217 304 q 219 268 219 281 q 217 210 219 240 q 214 147 214 179 l 214 135 q 217 101 215 117 q 219 71 219 85 q 215 47 219 57 q 185 15 208 29 q 135 0 161 0 q 100 10 115 0 q 90 23 94 14 q 81 43 85 32 q 74 65 76 54 q 71 85 71 76 q 77 161 72 121 q 82 244 82 201 l 82 264 q 74 428 79 344 q 69 592 69 513 q 69 629 69 611 q 71 665 69 647 q 102 691 79 682 q 150 700 125 700 q 184 694 168 700 q 211 678 200 689 l 211 656 q 208 582 211 615 q 206 514 206 549 q 206 497 206 506 q 208 479 207 489 l 208 471 l 208 467 q 210 465 208 465 q 222 471 210 463 q 252 492 233 479 q 294 522 271 506 q 338 555 317 539 q 375 583 358 571 q 397 601 392 596 q 424 629 411 614 q 452 659 438 644 q 485 683 467 674 q 525 693 503 693 q 560 688 543 693 q 582 644 582 667 q 567 604 582 625 q 531 564 551 583 q 488 528 510 544 q 450 503 465 513 q 444 499 447 500 q 439 496 442 499 q 467 453 454 472 q 494 413 481 433 q 520 368 507 392 q 550 313 533 344 q 622 192 583 246 q 690 88 661 138 q 697 64 697 76 q 688 39 697 50 q 666 20 679 28 q 636 8 653 13 q 606 4 619 4 q 579 10 589 4 q 561 28 571 14 q 541 60 551 42 q 522 95 531 78 q 508 121 514 113 q 473 180 489 154 q 443 232 457 206 q 415 285 426 264 q 392 326 404 307 q 367 363 381 344 q 333 407 354 382 z "},"L":{"ha":589,"x_min":69,"x_max":561,"o":"m 222 115 q 283 111 251 111 q 340 113 307 111 q 408 116 374 114 q 474 120 442 118 q 526 122 506 122 q 553 101 544 114 q 561 72 561 88 q 544 31 561 50 q 497 4 526 11 q 436 0 476 0 q 403 0 425 0 q 358 1 382 0 q 313 1 335 1 q 279 1 292 1 l 256 1 q 208 -1 231 0 q 167 -3 186 -3 q 97 14 122 -3 q 72 88 72 31 l 72 96 q 76 138 72 111 q 82 182 81 164 q 86 281 86 228 q 83 458 86 392 q 78 560 81 524 q 72 613 75 597 q 69 636 69 628 q 72 658 69 647 q 106 690 79 678 q 161 703 133 703 q 207 685 193 703 q 219 636 219 668 q 219 610 219 624 q 218 582 218 597 q 219 342 218 460 q 222 115 219 224 z "},"M":{"ha":819,"x_min":28,"x_max":792,"o":"m 661 7 q 577 253 611 132 q 499 501 543 374 q 469 458 481 483 q 447 408 458 432 q 423 368 436 385 q 389 351 410 351 q 353 360 369 351 q 322 383 336 369 q 294 414 307 397 q 269 446 281 431 l 256 464 q 244 399 251 435 q 229 324 238 363 q 212 248 221 286 q 194 179 203 210 q 181 123 188 153 q 165 67 175 93 q 138 23 154 42 q 96 0 122 4 q 90 -1 93 0 q 85 -1 88 -1 q 52 8 65 -1 q 28 31 39 17 l 33 53 q 83 262 57 146 q 124 492 108 378 l 126 510 q 137 578 131 544 q 154 638 143 613 q 185 680 165 664 q 238 696 206 696 q 249 696 243 696 q 263 694 256 696 q 294 663 281 682 q 321 622 308 643 q 345 580 333 601 q 371 542 357 558 q 402 591 386 564 q 437 642 418 618 q 480 683 456 667 q 538 699 504 699 q 572 693 560 699 q 590 677 583 688 q 599 651 596 667 q 607 617 603 636 q 628 551 614 588 q 656 476 642 515 q 688 376 672 428 q 720 274 704 325 q 753 174 736 222 q 788 86 769 126 q 792 67 792 75 q 783 39 792 51 q 759 18 774 26 q 727 5 744 10 q 693 0 710 0 q 661 7 675 0 z "},"N":{"ha":742,"x_min":69,"x_max":672,"o":"m 229 499 q 226 419 229 463 q 224 332 224 376 l 224 314 q 233 233 224 272 q 246 161 243 193 q 247 133 246 147 q 247 103 247 118 q 246 67 247 83 q 240 40 244 51 q 210 12 233 24 q 160 0 186 0 q 122 9 139 0 q 97 39 104 18 q 97 85 97 65 q 97 123 97 106 q 94 158 96 140 q 89 200 92 176 q 85 251 86 224 q 83 307 83 279 q 85 408 83 357 q 88 504 88 460 q 83 583 88 550 q 75 610 81 599 q 69 635 69 622 q 76 657 69 643 q 97 673 82 665 q 131 686 111 681 q 172 695 150 692 q 214 699 193 699 q 250 695 233 699 q 276 685 267 692 q 309 648 293 672 q 342 600 325 624 q 385 534 364 569 q 428 463 407 499 q 472 394 450 428 q 514 332 493 360 q 515 347 515 339 q 515 367 515 356 q 513 418 515 390 q 509 474 511 446 q 504 529 507 503 q 501 576 501 556 q 501 601 501 588 q 500 629 500 615 q 500 647 500 639 q 503 661 500 654 q 527 690 510 681 q 567 700 544 700 q 612 689 590 700 q 642 656 633 678 q 638 583 638 622 q 643 448 638 519 q 649 315 649 376 q 649 243 649 275 q 652 183 650 211 q 658 128 654 156 q 671 72 663 101 q 672 69 671 69 q 672 65 672 68 q 671 51 672 58 q 668 32 669 43 q 629 9 650 18 q 586 0 608 0 q 553 7 567 0 q 510 49 526 19 q 478 110 493 79 q 358 323 424 217 q 229 511 293 429 l 229 499 z "},"O":{"ha":678,"x_min":56,"x_max":636,"o":"m 618 490 q 632 420 628 460 q 636 340 636 381 q 619 233 636 290 q 568 125 601 175 q 485 40 535 75 q 372 -4 436 4 q 358 -6 365 -6 q 344 -6 351 -6 q 237 17 286 -6 q 151 77 188 39 q 92 169 115 115 q 63 285 69 222 q 58 341 60 314 q 56 393 56 368 q 95 567 56 494 q 239 682 135 639 q 263 689 247 686 q 297 694 279 692 q 332 699 314 697 q 364 701 350 701 l 371 701 q 475 689 436 699 q 538 658 514 679 q 576 603 561 636 q 607 522 590 569 q 613 507 610 515 q 618 490 615 499 m 215 543 q 193 489 201 524 q 185 411 185 454 q 197 322 185 365 q 227 242 208 279 q 269 174 246 204 q 315 126 292 144 q 375 108 340 108 q 410 112 389 108 q 442 122 431 115 q 460 149 450 128 q 481 197 471 171 q 499 250 492 224 q 506 293 506 276 q 502 373 506 332 q 490 452 499 414 q 463 523 481 490 q 419 578 446 556 q 388 587 404 585 q 353 589 372 589 q 317 587 338 589 q 278 579 297 585 q 242 565 258 574 q 215 543 225 557 z "},"P":{"ha":574,"x_min":69,"x_max":546,"o":"m 218 258 q 217 242 217 250 q 217 224 217 233 q 217 200 217 208 q 218 184 218 192 q 219 168 218 176 q 219 143 219 160 q 219 124 219 133 q 218 107 219 115 q 217 70 217 89 q 211 40 217 51 q 135 0 190 0 q 94 7 115 0 q 81 35 85 21 q 78 67 78 50 q 80 99 78 82 q 83 131 82 115 q 88 192 88 168 q 86 234 88 213 q 85 289 85 256 q 81 442 85 367 q 71 581 78 517 q 69 594 69 585 q 71 615 69 606 q 72 635 72 624 q 74 644 72 642 q 146 700 89 700 l 175 700 q 269 702 219 700 q 364 704 319 704 q 382 704 374 704 q 399 701 390 704 q 509 633 474 685 q 546 510 544 581 l 546 503 q 515 388 546 432 q 435 317 483 343 q 330 278 388 290 q 218 258 272 267 m 413 471 q 415 492 415 485 q 410 531 415 511 q 397 561 404 550 q 365 588 385 581 q 319 596 344 596 q 265 589 293 596 q 214 575 238 582 q 210 451 210 513 q 210 405 210 428 q 211 361 211 382 q 277 369 244 364 q 338 388 310 375 q 385 419 365 400 q 413 471 404 439 z "},"Q":{"ha":697,"x_min":56,"x_max":697,"o":"m 507 36 q 435 3 472 13 q 361 -7 399 -7 q 238 17 297 -7 q 140 78 179 42 q 103 129 118 97 q 77 199 88 161 q 61 276 67 236 q 56 351 56 315 q 62 412 56 376 q 78 483 68 447 q 101 549 89 518 q 126 596 114 581 q 174 639 144 619 q 240 672 203 658 q 319 694 276 686 q 403 701 361 701 q 499 689 453 701 q 582 647 546 676 q 629 536 614 594 q 644 411 644 478 q 628 254 644 332 q 592 128 613 176 q 615 101 597 113 q 649 77 632 89 q 681 52 667 65 q 697 19 696 39 q 672 -24 697 -8 q 615 -40 647 -40 q 601 -40 608 -40 q 588 -37 594 -40 q 549 1 568 -18 q 507 36 531 21 m 406 604 l 385 604 q 303 597 344 604 q 242 569 261 589 q 199 482 213 539 q 185 363 185 425 q 199 238 185 297 q 238 149 213 179 q 297 108 261 129 q 371 88 332 88 q 426 106 400 88 q 410 133 424 122 q 383 155 397 144 q 358 176 369 165 q 347 204 347 188 q 356 226 347 215 q 376 244 364 236 q 404 256 389 251 q 433 261 419 261 l 444 261 q 465 252 457 258 q 478 239 472 246 q 489 226 483 232 q 503 219 494 221 q 515 299 510 256 q 519 383 519 342 q 498 521 519 465 q 406 604 476 576 z "},"R":{"ha":647,"x_min":69,"x_max":619,"o":"m 222 236 q 215 193 215 218 q 218 153 215 174 q 221 114 221 132 q 219 63 221 88 q 207 24 217 38 q 183 6 199 13 q 147 0 167 0 q 109 8 128 0 q 79 31 90 15 q 77 213 78 139 q 76 335 76 286 q 74 413 75 385 q 72 460 72 442 q 70 489 71 478 q 69 515 69 500 q 71 559 69 538 q 76 600 72 581 q 112 641 82 628 q 178 665 142 654 l 189 668 q 278 690 226 679 q 382 701 331 701 q 434 697 410 701 q 481 682 458 693 q 510 662 494 675 q 542 633 526 649 q 572 601 558 618 q 594 569 585 583 q 608 535 606 554 q 610 497 610 517 l 610 465 q 592 379 607 413 q 555 324 578 346 q 500 290 532 303 q 429 263 468 276 q 483 207 460 228 q 528 167 507 186 q 572 126 550 149 q 619 67 593 104 q 610 42 615 53 q 599 19 604 31 q 567 6 583 11 q 531 0 550 0 q 488 7 513 0 q 390 112 428 71 q 327 176 351 153 q 290 211 303 200 q 267 226 276 222 q 247 231 257 229 q 222 236 238 232 m 408 356 q 468 387 440 364 q 496 449 496 410 q 495 455 496 451 q 494 461 494 458 q 481 492 492 472 q 455 533 469 513 q 424 569 440 553 q 394 590 407 586 q 346 600 371 600 q 274 585 308 600 q 213 560 240 571 q 210 511 210 535 q 210 464 210 488 q 210 401 210 432 q 213 340 211 371 q 249 347 229 346 q 288 349 268 349 l 333 349 q 372 350 353 349 q 408 356 390 351 z "},"S":{"ha":576,"x_min":42,"x_max":522,"o":"m 399 154 q 374 232 399 204 q 313 278 350 260 q 234 309 276 296 q 155 343 192 322 q 94 398 118 364 q 69 492 69 432 l 69 507 q 79 553 71 529 q 101 601 88 578 q 131 642 114 624 q 165 669 147 660 q 198 681 175 675 q 249 690 221 686 q 308 697 278 694 q 364 700 339 700 q 452 688 413 700 q 494 644 492 675 l 494 635 q 475 596 494 606 q 426 586 456 586 q 391 588 411 586 q 350 591 371 589 q 310 594 329 593 q 278 596 290 596 q 253 593 260 596 q 218 559 231 586 q 206 500 206 532 q 229 442 206 464 q 288 404 253 421 q 364 371 322 388 q 440 326 406 354 q 499 255 475 299 q 522 140 522 211 q 517 97 522 117 q 497 60 511 76 q 458 33 485 44 q 401 14 432 21 q 336 3 369 7 q 275 0 303 0 q 229 6 267 0 q 150 23 192 13 q 75 48 108 33 q 42 81 42 63 q 50 115 42 103 q 72 132 58 126 q 101 139 85 138 q 132 140 117 140 l 138 140 q 163 135 146 140 q 201 122 179 129 q 249 110 224 115 q 301 104 275 104 q 323 107 307 104 q 356 116 339 110 q 385 132 372 122 q 399 154 399 142 z "},"T":{"ha":621,"x_min":28,"x_max":593,"o":"m 364 589 q 362 515 363 553 q 361 436 361 476 q 364 235 361 329 q 368 36 367 142 q 333 10 358 21 q 282 0 307 0 q 249 7 264 0 q 229 29 235 14 q 225 51 225 39 q 227 77 225 64 q 229 106 229 90 q 228 226 228 163 q 227 351 228 289 q 225 473 226 414 q 221 581 224 532 q 207 582 214 582 q 193 582 200 582 q 161 581 178 582 q 128 581 144 581 q 93 582 111 581 q 60 588 75 583 q 37 602 46 593 q 28 626 28 611 q 45 668 28 653 q 91 690 63 683 q 155 697 119 696 q 226 699 190 699 q 353 694 289 699 q 469 689 417 689 l 522 689 q 571 681 550 689 q 593 640 592 672 l 593 631 q 565 588 593 599 q 499 578 538 578 q 426 583 463 578 q 364 589 389 588 z "},"U":{"ha":717,"x_min":69,"x_max":647,"o":"m 82 671 q 115 692 93 683 q 161 700 138 700 q 190 696 176 700 q 211 681 204 692 q 218 663 217 674 q 219 636 219 651 q 217 588 219 613 q 214 544 215 563 l 214 497 q 214 447 214 469 q 215 401 214 425 q 223 275 219 328 q 250 178 226 222 q 269 149 257 164 q 298 122 282 135 q 333 101 314 110 q 375 93 353 93 q 410 99 390 93 q 443 114 431 106 q 472 157 458 124 q 496 231 486 190 q 512 311 506 271 q 519 376 518 351 l 519 388 q 518 448 519 421 q 515 501 517 475 q 513 553 514 526 q 511 614 511 581 q 515 668 511 639 q 544 689 528 681 q 583 697 560 697 q 597 697 590 697 q 613 694 604 697 q 641 632 635 671 q 647 549 647 593 q 647 500 647 525 q 646 451 646 475 q 644 407 646 436 q 639 342 643 378 q 629 266 635 306 q 615 189 624 226 q 595 121 607 151 q 569 72 583 90 q 531 39 554 54 q 480 13 508 24 q 419 -5 451 1 q 357 -11 388 -11 q 286 -1 317 -11 q 240 19 267 4 q 188 51 214 33 q 140 88 161 68 q 111 124 119 107 q 102 149 107 125 q 93 208 97 172 q 84 286 89 243 q 76 369 79 329 q 72 442 74 410 q 69 490 69 475 q 82 671 69 576 z "},"V":{"ha":632,"x_min":28,"x_max":604,"o":"m 283 21 q 240 170 269 100 q 178 311 210 240 q 119 453 146 382 q 61 588 93 524 q 40 619 53 603 q 28 654 28 635 q 60 693 31 678 q 121 708 89 708 q 147 705 135 708 q 168 693 160 701 q 181 672 175 686 q 193 642 188 658 q 203 608 199 625 q 214 579 208 592 q 285 409 247 496 q 357 243 324 322 q 399 372 385 299 q 429 525 414 444 q 442 598 436 560 q 461 660 449 636 q 497 690 471 678 q 547 701 522 701 q 588 690 571 701 q 604 650 604 678 q 593 611 603 633 q 576 567 583 589 q 561 487 565 528 q 546 399 557 446 q 524 324 538 361 q 497 248 511 286 q 468 172 482 210 q 446 96 454 133 q 442 58 442 76 q 435 22 442 40 q 400 -1 422 7 q 354 -10 378 -10 q 314 -3 333 -10 q 283 21 294 4 z "},"W":{"ha":857,"x_min":21,"x_max":836,"o":"m 785 57 q 749 17 772 33 q 696 0 725 0 q 681 1 689 0 q 667 6 674 3 q 633 33 651 13 q 597 68 615 53 q 513 145 556 108 q 439 226 471 182 q 412 190 424 213 q 388 140 400 167 q 365 86 376 113 q 340 39 354 60 q 305 10 329 22 q 254 -1 281 -1 q 216 7 235 -1 q 183 36 197 15 q 156 188 174 103 q 113 347 139 274 q 74 473 90 411 q 40 593 57 535 q 29 616 38 603 q 21 640 21 629 q 53 681 24 663 q 115 699 83 699 q 147 692 132 699 q 168 669 161 685 q 189 587 182 636 q 213 490 196 538 q 235 426 224 457 q 257 363 247 394 q 275 299 267 332 q 289 226 283 265 q 330 285 314 253 q 351 365 346 318 l 354 379 q 387 408 368 396 q 438 421 406 421 q 476 410 458 421 q 497 385 485 404 q 519 351 508 365 q 551 309 533 332 q 585 263 568 286 q 618 217 601 239 q 649 182 635 196 q 663 267 657 219 q 674 364 669 314 q 682 465 678 414 q 693 560 686 515 q 696 609 697 586 q 701 649 694 632 q 735 681 710 668 q 786 694 761 694 q 819 685 806 694 q 836 656 833 676 l 836 649 q 832 615 836 635 q 825 579 828 594 l 806 399 q 799 330 804 363 q 789 267 794 297 q 779 206 783 236 q 775 142 775 175 q 785 57 775 94 z "},"X":{"ha":701,"x_min":47,"x_max":732,"o":"m 372 279 q 333 240 353 263 q 294 191 314 217 q 257 138 275 165 q 222 85 239 110 q 180 33 203 57 q 125 8 157 8 q 61 33 94 8 q 57 57 57 46 q 78 105 57 85 q 117 147 100 125 q 203 267 161 206 q 292 378 246 329 q 205 476 251 432 q 106 572 158 521 q 88 588 97 581 q 69 602 78 594 q 53 618 60 610 q 47 638 47 626 q 74 685 47 669 q 133 701 101 701 q 186 686 167 701 q 207 660 197 676 q 231 631 217 644 q 306 559 263 597 q 376 488 349 521 q 412 528 392 504 q 450 579 432 551 q 478 636 465 606 q 508 682 492 667 q 536 698 519 693 q 572 703 553 703 q 622 691 600 703 q 644 654 644 679 q 633 619 644 642 q 610 593 625 606 q 585 565 596 581 q 524 478 557 522 q 461 393 492 433 q 513 317 479 357 q 586 236 547 276 q 663 157 625 196 q 728 85 701 118 q 732 71 732 81 q 726 40 732 57 q 714 19 719 24 q 685 3 703 8 q 649 -1 668 -1 q 624 1 636 -1 q 604 8 613 3 q 581 35 592 15 q 556 71 571 54 q 461 174 511 124 q 372 279 411 224 z "},"Y":{"ha":651,"x_min":28,"x_max":624,"o":"m 418 364 q 421 334 419 346 q 424 313 422 322 q 426 293 425 303 q 426 268 426 283 q 425 230 426 251 q 421 181 424 208 q 419 162 419 171 q 419 143 419 153 l 419 96 q 419 68 419 81 q 415 44 418 56 q 385 12 408 24 q 340 0 361 0 q 303 10 322 0 q 281 42 285 19 q 288 128 286 94 q 290 193 290 163 q 290 258 290 225 q 286 344 289 292 q 185 449 238 397 q 82 558 133 500 q 67 574 76 564 q 49 594 58 583 q 34 616 40 604 q 28 639 28 628 l 28 644 q 50 683 31 668 q 93 697 69 697 q 117 693 106 697 q 166 648 142 683 q 218 582 190 613 q 272 529 242 554 q 302 500 286 517 q 329 483 318 483 q 358 503 339 483 q 398 549 376 524 q 438 601 419 575 q 467 636 457 626 q 515 685 488 660 q 561 711 542 710 l 567 711 q 605 701 586 711 q 624 671 624 690 q 614 633 624 656 q 585 581 601 606 q 549 538 568 557 q 521 503 539 526 q 483 453 503 479 q 445 401 463 426 q 418 364 428 376 z "},"Z":{"ha":606,"x_min":28,"x_max":578,"o":"m 360 575 q 313 586 336 583 q 268 589 290 589 q 215 587 240 589 q 163 585 189 585 q 123 587 143 585 q 82 596 103 589 q 54 615 69 600 q 39 646 39 631 q 49 673 39 661 q 74 692 58 685 q 108 704 89 700 q 147 708 128 708 q 232 703 183 708 q 336 694 281 697 l 351 694 q 403 697 378 694 q 453 699 429 699 q 489 696 472 699 q 519 686 506 693 q 541 660 531 679 q 551 625 551 640 q 535 596 549 608 q 514 574 521 583 q 443 462 476 518 q 369 354 410 406 q 295 240 329 303 q 225 118 261 176 q 266 122 243 121 q 314 124 289 124 q 388 122 350 124 q 461 119 426 121 l 472 119 q 508 118 489 119 q 542 111 526 117 q 568 95 558 106 q 578 65 578 85 q 552 13 578 25 q 490 0 526 0 q 415 6 454 0 q 342 13 375 13 l 335 13 q 243 4 289 13 q 161 -4 197 -4 l 156 -4 q 109 -2 132 -4 q 68 6 86 0 q 39 23 50 13 q 28 51 28 33 q 47 86 31 72 q 74 113 64 100 q 110 169 93 139 q 145 231 128 200 q 181 294 163 263 q 218 353 199 325 q 360 575 296 460 z "},"[":{"ha":438,"x_min":83,"x_max":354,"o":"m 244 -114 q 290 -118 269 -115 q 324 -129 310 -121 q 347 -151 339 -137 q 354 -189 354 -165 q 350 -219 354 -203 q 313 -233 332 -229 q 274 -236 293 -236 q 244 -235 253 -236 q 228 -234 236 -235 q 210 -233 221 -233 q 174 -232 199 -232 q 140 -219 153 -229 q 94 9 103 -115 q 86 268 86 133 l 86 411 q 85 521 86 467 q 83 628 83 575 q 87 742 83 686 q 103 850 90 797 q 134 874 111 865 q 181 883 157 883 q 203 881 189 883 l 214 881 q 270 877 244 879 q 315 868 296 875 q 344 846 333 861 q 354 804 354 831 q 350 771 354 788 q 313 759 332 761 q 274 757 293 757 q 242 758 256 757 q 215 763 228 760 q 211 749 213 756 q 208 736 210 743 q 203 694 204 715 q 201 649 201 672 q 206 541 201 596 q 211 428 211 486 l 211 286 q 216 76 211 178 q 244 -114 221 -26 z "},"\\":{"ha":860,"x_min":83,"x_max":776,"o":"m 776 -179 q 739 -203 763 -194 q 692 -211 715 -211 q 653 -200 667 -211 q 640 -179 644 -192 q 631 -152 635 -167 q 624 -121 628 -137 q 614 -89 621 -104 q 521 103 572 7 q 417 293 469 199 q 392 335 408 308 q 353 397 375 363 q 309 467 332 431 q 265 538 286 504 q 225 599 243 572 q 197 642 207 626 q 167 683 183 663 q 135 725 151 704 q 106 767 119 746 q 85 811 93 789 q 83 819 83 814 q 92 841 83 831 q 114 860 101 851 q 142 873 126 868 q 169 878 157 878 q 181 876 178 878 q 201 863 190 874 q 220 837 211 851 q 238 808 229 822 q 253 782 246 793 q 353 621 294 715 q 472 426 411 526 q 587 228 532 325 q 675 58 642 131 q 733 -60 703 -3 q 776 -179 764 -117 z "},"]":{"ha":438,"x_min":83,"x_max":354,"o":"m 193 -114 q 222 76 217 -26 q 226 286 226 178 l 226 428 q 231 541 226 486 q 236 649 236 596 q 235 694 236 672 q 229 736 233 715 q 226 749 228 743 q 222 763 225 756 q 196 758 210 760 q 164 757 182 757 q 125 759 144 757 q 88 771 106 761 q 83 804 83 788 q 94 846 83 831 q 123 868 104 861 q 167 877 142 875 q 224 881 193 879 l 235 881 q 257 883 249 883 q 303 874 281 883 q 335 850 326 865 q 351 742 347 797 q 354 628 354 686 q 353 521 354 575 q 351 411 351 467 l 351 268 q 343 9 351 133 q 297 -219 335 -115 q 264 -232 285 -229 q 228 -233 239 -232 q 209 -234 217 -233 q 193 -235 201 -235 q 164 -236 185 -236 q 125 -233 144 -236 q 88 -219 106 -229 q 83 -189 83 -203 q 91 -151 83 -165 q 113 -129 99 -137 q 148 -118 128 -121 q 193 -114 168 -115 z "},"^":{"ha":644,"x_min":83,"x_max":561,"o":"m 497 310 q 490 311 492 310 q 454 333 465 314 q 431 368 443 353 q 397 410 407 397 q 378 433 386 422 q 362 458 371 443 q 333 504 353 472 q 290 449 308 482 q 252 386 272 417 q 208 334 232 356 q 147 313 183 313 q 101 324 118 313 q 83 364 83 335 l 83 374 q 110 445 88 411 q 162 511 132 479 q 224 573 192 543 q 282 633 257 603 q 310 672 297 653 q 347 690 322 690 l 358 689 q 406 613 389 649 q 442 544 424 578 q 486 478 461 510 q 557 413 511 446 q 561 381 561 397 q 556 350 561 361 q 531 322 549 335 q 497 310 513 310 z "},"_":{"ha":793,"x_min":83,"x_max":710,"o":"m 381 -161 q 344 -161 363 -161 q 310 -162 326 -161 q 283 -162 294 -162 q 268 -162 272 -162 q 216 -165 243 -162 q 165 -167 189 -167 q 108 -158 131 -167 q 83 -122 85 -150 l 83 -117 q 95 -78 83 -93 q 126 -56 107 -64 q 169 -47 144 -49 q 222 -44 194 -44 q 261 -45 242 -44 q 300 -46 281 -46 l 318 -46 q 349 -49 324 -47 q 406 -51 375 -50 q 463 -51 436 -51 q 496 -51 489 -51 q 567 -46 531 -51 q 636 -40 604 -40 q 686 -49 665 -40 q 710 -86 707 -58 l 710 -96 q 690 -131 710 -118 q 640 -151 671 -144 q 570 -160 608 -158 q 494 -162 532 -162 q 430 -162 460 -162 q 381 -161 400 -161 z "},"`":{"ha":363,"x_min":83,"x_max":279,"o":"m 279 433 q 268 414 279 417 q 240 411 257 411 q 220 412 229 411 q 201 419 211 413 q 169 461 186 428 q 137 533 153 494 q 107 605 121 571 q 83 651 93 639 q 110 685 83 676 q 165 694 138 694 q 200 690 179 694 q 229 679 221 686 q 253 633 243 667 q 268 560 263 599 q 276 486 274 522 q 279 433 279 450 z "},"a":{"ha":650,"x_min":28,"x_max":622,"o":"m 494 18 q 461 155 475 89 q 424 289 447 221 q 386 280 407 282 q 342 278 365 278 q 299 278 321 278 q 257 279 278 279 l 246 279 q 199 154 218 221 q 160 21 179 88 q 133 3 154 10 q 88 -4 111 -4 q 46 5 64 -4 q 28 36 28 14 q 35 79 28 56 q 51 126 42 103 q 72 174 61 150 q 90 217 83 197 l 106 256 q 142 344 124 303 q 180 425 161 385 q 217 507 199 465 q 257 597 236 549 q 276 647 267 621 q 293 682 285 672 q 317 697 303 693 q 349 701 332 701 q 408 690 379 701 q 442 617 432 654 q 467 536 451 579 q 498 456 481 496 q 526 372 515 415 q 548 292 538 329 q 569 219 558 254 q 592 147 581 183 q 619 72 604 111 q 622 64 621 68 q 622 53 622 60 q 617 25 622 38 q 583 7 603 14 q 544 0 564 0 q 494 18 517 0 m 350 533 q 318 463 333 497 q 292 389 303 429 q 338 385 315 386 q 381 383 360 383 l 394 383 q 375 460 386 424 q 350 533 364 497 z "},"b":{"ha":632,"x_min":69,"x_max":618,"o":"m 74 647 q 113 667 89 658 q 165 683 138 676 q 220 694 192 690 q 272 701 249 699 l 286 701 q 319 699 303 701 q 353 694 336 697 q 399 685 374 690 q 447 672 424 679 q 492 656 471 665 q 528 632 514 646 q 561 572 550 611 q 572 496 572 532 q 551 420 572 446 q 490 372 531 394 q 544 333 517 350 q 586 283 571 315 q 609 234 600 254 q 618 172 618 214 q 615 135 618 149 q 603 104 611 122 q 578 75 596 89 q 538 49 560 61 q 493 27 517 36 q 453 13 469 18 q 311 -7 386 -7 q 225 1 267 -7 q 153 26 183 8 q 107 55 124 39 q 82 90 90 71 q 72 135 74 110 q 69 192 69 160 q 71 278 69 242 q 73 351 72 315 q 75 424 74 386 q 76 515 76 463 q 76 581 76 549 q 74 647 75 614 m 392 288 q 342 293 371 293 q 288 295 314 293 q 244 306 263 297 q 226 338 226 314 q 240 369 226 358 q 274 386 254 381 q 313 394 293 392 q 346 401 333 397 q 372 414 356 406 q 403 433 388 422 q 430 455 418 443 q 442 478 442 467 q 435 530 442 501 q 413 568 428 558 q 359 590 393 582 q 293 599 325 599 q 242 592 265 599 q 211 569 219 585 q 206 449 207 503 q 204 346 204 396 q 203 244 204 296 q 201 132 203 193 q 269 107 232 115 q 346 99 307 99 q 418 106 383 99 q 481 128 453 113 q 484 147 483 142 q 485 165 485 151 q 463 249 485 224 q 392 288 440 275 z "},"c":{"ha":568,"x_min":42,"x_max":526,"o":"m 297 596 q 245 558 268 585 q 207 497 222 532 q 183 420 192 461 q 175 338 175 379 q 183 258 175 296 q 216 178 194 210 q 274 122 238 146 q 320 103 297 107 q 367 99 343 99 q 414 101 390 99 q 463 103 438 103 q 515 99 488 103 q 526 58 526 74 q 515 26 526 39 q 483 5 503 13 q 438 -6 464 -3 q 385 -10 413 -10 q 290 -2 336 -10 q 215 15 243 6 q 135 70 168 42 q 81 135 101 99 q 51 217 60 171 q 42 328 42 264 q 42 342 42 335 q 43 358 43 350 q 47 398 44 376 q 52 442 49 419 q 60 483 56 464 q 71 514 64 501 q 113 583 89 549 q 167 643 136 617 q 236 685 197 669 q 324 701 275 701 q 340 701 332 701 q 358 699 349 700 q 399 691 374 696 q 451 678 425 686 q 495 658 476 669 q 515 629 514 646 q 490 585 515 601 q 438 568 465 568 q 376 577 414 568 q 308 593 339 586 l 297 596 z "},"d":{"ha":608,"x_min":69,"x_max":594,"o":"m 594 467 l 594 460 q 535 225 588 321 q 406 67 483 129 q 369 43 392 56 q 322 19 347 31 q 273 -1 297 7 q 231 -8 249 -8 l 218 -8 q 182 -8 203 -8 q 141 -5 161 -7 q 104 3 121 -3 q 82 18 88 8 q 78 47 78 26 q 82 111 78 74 q 86 186 86 149 q 78 401 86 293 q 69 617 69 508 q 72 635 69 626 q 98 670 79 657 q 142 691 117 683 q 196 701 167 699 q 254 703 225 703 q 369 690 311 703 q 476 648 428 676 q 558 575 525 619 q 594 467 590 531 m 324 139 q 410 254 381 182 q 450 408 439 326 q 455 435 453 421 q 457 463 457 450 q 440 512 457 488 q 399 556 424 536 q 346 588 374 575 q 297 600 318 600 q 255 599 276 600 q 211 589 233 597 q 210 542 210 565 q 210 496 210 519 q 215 304 210 396 q 219 107 219 213 l 219 81 q 270 106 243 92 q 324 139 297 119 z "},"e":{"ha":606,"x_min":69,"x_max":536,"o":"m 213 589 q 209 506 208 542 q 204 421 210 471 q 254 417 229 417 q 304 419 279 417 q 356 421 329 421 q 435 411 397 421 q 446 369 446 389 q 420 328 446 342 q 358 311 394 315 q 279 308 321 307 q 207 307 238 308 q 208 208 207 258 q 213 113 210 158 q 248 107 231 108 q 282 106 265 106 q 367 111 325 106 q 457 117 408 117 q 478 117 468 117 q 499 115 488 117 q 520 93 514 106 q 526 68 526 81 q 505 22 526 43 q 450 -3 483 0 l 444 -3 q 421 -1 433 -3 q 396 1 408 1 l 175 1 q 151 -1 161 -1 q 101 11 125 -1 q 76 57 76 24 q 74 203 75 144 q 73 300 74 261 q 72 364 72 339 q 71 411 71 389 q 72 473 71 439 q 74 543 74 507 q 72 588 74 565 q 69 631 69 611 q 75 668 69 656 q 91 683 79 678 q 119 691 103 689 q 153 694 135 693 q 188 694 171 694 l 197 694 q 254 693 229 694 q 303 692 279 692 q 350 694 326 692 q 393 697 374 696 l 403 697 q 423 698 413 697 q 444 699 433 699 q 508 690 481 699 q 536 649 536 681 l 536 639 q 520 610 533 621 q 488 594 507 600 q 443 587 468 589 q 393 585 418 585 q 342 585 367 585 q 297 586 317 586 q 265 588 281 586 q 232 590 249 590 q 213 589 219 590 z "},"f":{"ha":536,"x_min":69,"x_max":536,"o":"m 76 22 q 74 173 75 110 q 73 282 74 236 q 72 358 72 328 q 71 411 71 389 q 72 473 71 439 q 74 543 74 507 q 72 588 74 565 q 69 631 69 611 q 75 668 69 656 q 91 683 79 678 q 119 691 103 689 q 153 694 135 693 q 188 694 171 694 l 197 694 q 254 693 229 694 q 303 692 279 692 q 350 694 326 692 q 393 697 374 696 l 403 697 q 423 698 413 697 q 444 699 433 699 q 508 690 481 699 q 536 649 536 681 l 536 639 q 520 610 533 621 q 488 594 507 600 q 443 587 468 589 q 393 585 418 585 q 342 585 367 585 q 297 586 317 586 q 265 588 281 586 q 232 590 249 590 q 213 589 219 590 q 209 506 208 542 q 204 421 210 471 q 254 417 229 417 q 304 419 279 417 q 356 421 329 421 q 435 411 397 421 q 446 369 446 389 q 420 328 446 342 q 358 311 394 315 q 279 308 321 307 q 207 307 238 308 q 208 250 207 282 q 209 185 208 218 q 211 120 210 151 q 214 67 213 89 l 214 60 q 184 17 210 36 q 129 -1 158 -1 q 101 4 114 -1 q 76 22 88 10 z "},"g":{"ha":693,"x_min":42,"x_max":651,"o":"m 496 667 q 529 711 500 694 q 590 728 558 728 q 628 719 611 728 q 650 690 644 710 q 651 679 651 686 q 648 651 651 671 q 640 612 644 632 q 629 575 635 592 q 621 554 624 558 q 597 535 611 540 q 568 529 583 529 q 514 539 543 529 q 453 561 485 549 q 389 583 421 574 q 328 593 357 593 q 311 592 317 593 q 278 581 292 589 q 244 561 265 572 q 194 476 208 525 q 179 374 179 426 q 192 263 179 317 q 225 168 206 208 q 297 117 256 129 q 410 96 339 104 l 417 101 q 440 122 433 113 q 446 158 446 131 q 441 222 446 190 q 431 278 436 254 q 430 283 431 281 q 429 288 429 285 q 382 289 408 288 q 333 297 356 290 q 294 314 310 303 q 278 346 278 325 q 279 356 278 351 q 288 372 281 364 q 307 387 296 379 q 330 399 318 394 q 353 406 342 404 q 373 408 363 408 q 394 408 383 408 q 492 398 440 408 q 574 372 543 388 q 579 339 579 357 q 583 242 579 289 q 588 149 588 196 l 588 140 q 581 92 586 111 q 565 61 575 74 q 540 40 554 49 q 507 22 525 32 l 490 14 q 440 -4 467 1 q 388 -10 414 -10 q 286 3 336 -10 q 194 40 236 17 q 120 97 151 64 q 76 169 89 129 q 51 268 61 213 q 42 379 42 324 q 48 451 42 417 q 68 514 54 486 q 88 549 76 529 q 110 586 99 568 q 133 619 122 604 q 151 640 144 633 q 182 659 161 649 q 228 679 203 669 q 279 695 253 689 q 326 701 306 701 q 410 691 368 701 q 496 667 451 681 z "},"h":{"ha":771,"x_min":69,"x_max":701,"o":"m 543 315 q 464 325 506 325 q 347 310 403 325 q 240 283 290 294 q 239 269 239 276 q 239 254 239 261 q 244 177 239 215 q 250 103 250 139 q 244 52 250 76 q 222 8 238 28 q 195 1 211 6 q 163 -3 179 -3 q 124 10 136 -3 q 111 33 114 18 q 108 68 108 49 q 110 113 108 89 q 113 160 113 138 l 113 171 q 110 273 110 219 q 108 381 110 326 q 101 490 106 436 q 86 592 96 543 q 76 622 83 607 q 69 649 69 636 q 98 687 74 672 q 150 701 122 701 q 185 694 167 701 q 210 671 200 688 q 224 631 219 654 q 231 578 229 607 q 233 519 233 549 q 233 501 233 507 q 233 491 233 496 q 232 481 232 486 q 232 465 232 475 q 233 426 232 444 q 238 397 235 408 q 373 420 308 407 q 515 433 438 433 q 531 433 524 433 q 547 432 539 432 q 548 476 547 454 q 549 519 549 497 q 549 542 549 533 q 547 558 549 551 q 544 574 546 565 q 540 599 543 583 q 536 621 539 610 q 533 643 533 632 q 536 658 533 654 q 568 683 543 674 q 619 693 593 693 q 658 683 644 693 q 679 629 675 669 q 683 540 683 589 q 679 447 683 497 q 675 344 675 397 l 675 329 q 681 261 676 292 q 689 203 686 231 q 701 67 697 135 q 673 20 701 38 q 615 3 644 3 q 595 5 604 3 q 579 14 586 7 q 566 40 569 21 q 561 81 563 58 q 560 126 560 103 q 558 164 560 149 q 551 242 556 208 q 543 315 546 276 z "},"i":{"ha":294,"x_min":69,"x_max":225,"o":"m 224 35 q 190 7 213 18 q 143 -4 167 -4 q 115 0 128 -4 q 90 15 101 4 q 85 61 85 33 q 88 119 85 89 q 92 181 92 149 q 81 422 90 297 q 69 665 72 547 q 106 691 81 681 q 157 701 132 701 q 207 681 192 701 q 214 663 213 674 q 215 640 215 653 q 213 600 215 621 q 211 558 211 579 l 211 539 q 218 335 211 436 q 225 125 225 233 q 225 80 225 101 q 224 35 225 58 z "},"j":{"ha":513,"x_min":14,"x_max":443,"o":"m 436 185 q 421 87 435 128 q 363 22 407 46 q 322 8 346 13 q 269 4 297 4 q 219 7 244 4 q 175 17 194 10 q 119 41 147 25 q 67 76 90 57 q 29 116 44 94 q 14 158 14 138 q 15 163 14 161 q 15 168 15 165 q 41 199 19 189 q 86 210 63 210 q 107 207 93 210 q 129 195 119 204 q 148 176 139 186 q 167 155 157 165 q 189 138 176 144 q 228 121 204 129 q 267 113 251 113 q 275 114 272 113 q 300 158 294 121 q 306 238 306 194 q 305 295 306 268 q 304 340 304 322 q 299 463 304 407 q 286 564 293 518 q 285 569 286 567 q 285 574 285 571 q 276 609 282 590 q 271 646 271 628 q 275 667 271 658 q 306 692 282 682 q 354 703 329 703 q 390 695 374 703 q 415 672 407 688 q 419 653 419 664 q 418 635 419 644 q 417 615 417 626 l 417 608 q 432 470 421 543 q 443 326 443 397 q 440 254 443 285 q 436 185 438 224 z "},"k":{"ha":725,"x_min":69,"x_max":697,"o":"m 333 407 q 274 360 300 388 q 214 315 249 332 q 218 292 217 304 q 219 268 219 281 q 217 210 219 240 q 214 147 214 179 l 214 135 q 217 101 215 117 q 219 71 219 85 q 215 47 219 57 q 185 15 208 29 q 135 0 161 0 q 100 10 115 0 q 90 23 94 14 q 81 43 85 32 q 74 65 76 54 q 71 85 71 76 q 77 161 72 121 q 82 244 82 201 l 82 264 q 74 428 79 344 q 69 592 69 513 q 69 629 69 611 q 71 665 69 647 q 102 691 79 682 q 150 700 125 700 q 184 694 168 700 q 211 678 200 689 l 211 656 q 208 582 211 615 q 206 514 206 549 q 206 497 206 506 q 208 479 207 489 l 208 471 l 208 467 q 210 465 208 465 q 222 471 210 463 q 252 492 233 479 q 294 522 271 506 q 338 555 317 539 q 375 583 358 571 q 397 601 392 596 q 424 629 411 614 q 452 659 438 644 q 485 683 467 674 q 525 693 503 693 q 560 688 543 693 q 582 644 582 667 q 567 604 582 625 q 531 564 551 583 q 488 528 510 544 q 450 503 465 513 q 444 499 447 500 q 439 496 442 499 q 467 453 454 472 q 494 413 481 433 q 520 368 507 392 q 550 313 533 344 q 622 192 583 246 q 690 88 661 138 q 697 64 697 76 q 688 39 697 50 q 666 20 679 28 q 636 8 653 13 q 606 4 619 4 q 579 10 589 4 q 561 28 571 14 q 541 60 551 42 q 522 95 531 78 q 508 121 514 113 q 473 180 489 154 q 443 232 457 206 q 415 285 426 264 q 392 326 404 307 q 367 363 381 344 q 333 407 354 382 z "},"l":{"ha":589,"x_min":69,"x_max":561,"o":"m 222 115 q 283 111 251 111 q 340 113 307 111 q 408 116 374 114 q 474 120 442 118 q 526 122 506 122 q 553 101 544 114 q 561 72 561 88 q 544 31 561 50 q 497 4 526 11 q 436 0 476 0 q 403 0 425 0 q 358 1 382 0 q 313 1 335 1 q 279 1 292 1 l 256 1 q 208 -1 231 0 q 167 -3 186 -3 q 97 14 122 -3 q 72 88 72 31 l 72 96 q 76 138 72 111 q 82 182 81 164 q 86 281 86 228 q 83 458 86 392 q 78 560 81 524 q 72 613 75 597 q 69 636 69 628 q 72 658 69 647 q 106 690 79 678 q 161 703 133 703 q 207 685 193 703 q 219 636 219 668 q 219 610 219 624 q 218 582 218 597 q 219 342 218 460 q 222 115 219 224 z "},"m":{"ha":819,"x_min":28,"x_max":792,"o":"m 661 7 q 577 253 611 132 q 499 501 543 374 q 469 458 481 483 q 447 408 458 432 q 423 368 436 385 q 389 351 410 351 q 353 360 369 351 q 322 383 336 369 q 294 414 307 397 q 269 446 281 431 l 256 464 q 244 399 251 435 q 229 324 238 363 q 212 248 221 286 q 194 179 203 210 q 181 123 188 153 q 165 67 175 93 q 138 23 154 42 q 96 0 122 4 q 90 -1 93 0 q 85 -1 88 -1 q 52 8 65 -1 q 28 31 39 17 l 33 53 q 83 262 57 146 q 124 492 108 378 l 126 510 q 137 578 131 544 q 154 638 143 613 q 185 680 165 664 q 238 696 206 696 q 249 696 243 696 q 263 694 256 696 q 294 663 281 682 q 321 622 308 643 q 345 580 333 601 q 371 542 357 558 q 402 591 386 564 q 437 642 418 618 q 480 683 456 667 q 538 699 504 699 q 572 693 560 699 q 590 677 583 688 q 599 651 596 667 q 607 617 603 636 q 628 551 614 588 q 656 476 642 515 q 688 376 672 428 q 720 274 704 325 q 753 174 736 222 q 788 86 769 126 q 792 67 792 75 q 783 39 792 51 q 759 18 774 26 q 727 5 744 10 q 693 0 710 0 q 661 7 675 0 z "},"n":{"ha":742,"x_min":69,"x_max":672,"o":"m 229 499 q 226 419 229 463 q 224 332 224 376 l 224 314 q 233 233 224 272 q 246 161 243 193 q 247 133 246 147 q 247 103 247 118 q 246 67 247 83 q 240 40 244 51 q 210 12 233 24 q 160 0 186 0 q 122 9 139 0 q 97 39 104 18 q 97 85 97 65 q 97 123 97 106 q 94 158 96 140 q 89 200 92 176 q 85 251 86 224 q 83 307 83 279 q 85 408 83 357 q 88 504 88 460 q 83 583 88 550 q 75 610 81 599 q 69 635 69 622 q 76 657 69 643 q 97 673 82 665 q 131 686 111 681 q 172 695 150 692 q 214 699 193 699 q 250 695 233 699 q 276 685 267 692 q 309 648 293 672 q 342 600 325 624 q 385 534 364 569 q 428 463 407 499 q 472 394 450 428 q 514 332 493 360 q 515 347 515 339 q 515 367 515 356 q 513 418 515 390 q 509 474 511 446 q 504 529 507 503 q 501 576 501 556 q 501 601 501 588 q 500 629 500 615 q 500 647 500 639 q 503 661 500 654 q 527 690 510 681 q 567 700 544 700 q 612 689 590 700 q 642 656 633 678 q 638 583 638 622 q 643 448 638 519 q 649 315 649 376 q 649 243 649 275 q 652 183 650 211 q 658 128 654 156 q 671 72 663 101 q 672 69 671 69 q 672 65 672 68 q 671 51 672 58 q 668 32 669 43 q 629 9 650 18 q 586 0 608 0 q 553 7 567 0 q 510 49 526 19 q 478 110 493 79 q 358 323 424 217 q 229 511 293 429 l 229 499 z "},"o":{"ha":678,"x_min":56,"x_max":636,"o":"m 618 490 q 632 420 628 460 q 636 340 636 381 q 619 233 636 290 q 568 125 601 175 q 485 40 535 75 q 372 -4 436 4 q 358 -6 365 -6 q 344 -6 351 -6 q 237 17 286 -6 q 151 77 188 39 q 92 169 115 115 q 63 285 69 222 q 58 341 60 314 q 56 393 56 368 q 95 567 56 494 q 239 682 135 639 q 263 689 247 686 q 297 694 279 692 q 332 699 314 697 q 364 701 350 701 l 371 701 q 475 689 436 699 q 538 658 514 679 q 576 603 561 636 q 607 522 590 569 q 613 507 610 515 q 618 490 615 499 m 215 543 q 193 489 201 524 q 185 411 185 454 q 197 322 185 365 q 227 242 208 279 q 269 174 246 204 q 315 126 292 144 q 375 108 340 108 q 410 112 389 108 q 442 122 431 115 q 460 149 450 128 q 481 197 471 171 q 499 250 492 224 q 506 293 506 276 q 502 373 506 332 q 490 452 499 414 q 463 523 481 490 q 419 578 446 556 q 388 587 404 585 q 353 589 372 589 q 317 587 338 589 q 278 579 297 585 q 242 565 258 574 q 215 543 225 557 z "},"p":{"ha":574,"x_min":69,"x_max":546,"o":"m 218 258 q 217 242 217 250 q 217 224 217 233 q 217 200 217 208 q 218 184 218 192 q 219 168 218 176 q 219 143 219 160 q 219 124 219 133 q 218 107 219 115 q 217 70 217 89 q 211 40 217 51 q 135 0 190 0 q 94 7 115 0 q 81 35 85 21 q 78 67 78 50 q 80 99 78 82 q 83 131 82 115 q 88 192 88 168 q 86 234 88 213 q 85 289 85 256 q 81 442 85 367 q 71 581 78 517 q 69 594 69 585 q 71 615 69 606 q 72 635 72 624 q 74 644 72 642 q 146 700 89 700 l 175 700 q 269 702 219 700 q 364 704 319 704 q 382 704 374 704 q 399 701 390 704 q 509 633 474 685 q 546 510 544 581 l 546 503 q 515 388 546 432 q 435 317 483 343 q 330 278 388 290 q 218 258 272 267 m 413 471 q 415 492 415 485 q 410 531 415 511 q 397 561 404 550 q 365 588 385 581 q 319 596 344 596 q 265 589 293 596 q 214 575 238 582 q 210 451 210 513 q 210 405 210 428 q 211 361 211 382 q 277 369 244 364 q 338 388 310 375 q 385 419 365 400 q 413 471 404 439 z "},"q":{"ha":697,"x_min":56,"x_max":697,"o":"m 507 36 q 435 3 472 13 q 361 -7 399 -7 q 238 17 297 -7 q 140 78 179 42 q 103 129 118 97 q 77 199 88 161 q 61 276 67 236 q 56 351 56 315 q 62 412 56 376 q 78 483 68 447 q 101 549 89 518 q 126 596 114 581 q 174 639 144 619 q 240 672 203 658 q 319 694 276 686 q 403 701 361 701 q 499 689 453 701 q 582 647 546 676 q 629 536 614 594 q 644 411 644 478 q 628 254 644 332 q 592 128 613 176 q 615 101 597 113 q 649 77 632 89 q 681 52 667 65 q 697 19 696 39 q 672 -24 697 -8 q 615 -40 647 -40 q 601 -40 608 -40 q 588 -37 594 -40 q 549 1 568 -18 q 507 36 531 21 m 406 604 l 385 604 q 303 597 344 604 q 242 569 261 589 q 199 482 213 539 q 185 363 185 425 q 199 238 185 297 q 238 149 213 179 q 297 108 261 129 q 371 88 332 88 q 426 106 400 88 q 410 133 424 122 q 383 155 397 144 q 358 176 369 165 q 347 204 347 188 q 356 226 347 215 q 376 244 364 236 q 404 256 389 251 q 433 261 419 261 l 444 261 q 465 252 457 258 q 478 239 472 246 q 489 226 483 232 q 503 219 494 221 q 515 299 510 256 q 519 383 519 342 q 498 521 519 465 q 406 604 476 576 z "},"r":{"ha":647,"x_min":69,"x_max":619,"o":"m 222 236 q 215 193 215 218 q 218 153 215 174 q 221 114 221 132 q 219 63 221 88 q 207 24 217 38 q 183 6 199 13 q 147 0 167 0 q 109 8 128 0 q 79 31 90 15 q 77 213 78 139 q 76 335 76 286 q 74 413 75 385 q 72 460 72 442 q 70 489 71 478 q 69 515 69 500 q 71 559 69 538 q 76 600 72 581 q 112 641 82 628 q 178 665 142 654 l 189 668 q 278 690 226 679 q 382 701 331 701 q 434 697 410 701 q 481 682 458 693 q 510 662 494 675 q 542 633 526 649 q 572 601 558 618 q 594 569 585 583 q 608 535 606 554 q 610 497 610 517 l 610 465 q 592 379 607 413 q 555 324 578 346 q 500 290 532 303 q 429 263 468 276 q 483 207 460 228 q 528 167 507 186 q 572 126 550 149 q 619 67 593 104 q 610 42 615 53 q 599 19 604 31 q 567 6 583 11 q 531 0 550 0 q 488 7 513 0 q 390 112 428 71 q 327 176 351 153 q 290 211 303 200 q 267 226 276 222 q 247 231 257 229 q 222 236 238 232 m 408 356 q 468 387 440 364 q 496 449 496 410 q 495 455 496 451 q 494 461 494 458 q 481 492 492 472 q 455 533 469 513 q 424 569 440 553 q 394 590 407 586 q 346 600 371 600 q 274 585 308 600 q 213 560 240 571 q 210 511 210 535 q 210 464 210 488 q 210 401 210 432 q 213 340 211 371 q 249 347 229 346 q 288 349 268 349 l 333 349 q 372 350 353 349 q 408 356 390 351 z "},"s":{"ha":576,"x_min":42,"x_max":522,"o":"m 399 154 q 374 232 399 204 q 313 278 350 260 q 234 309 276 296 q 155 343 192 322 q 94 398 118 364 q 69 492 69 432 l 69 507 q 79 553 71 529 q 101 601 88 578 q 131 642 114 624 q 165 669 147 660 q 198 681 175 675 q 249 690 221 686 q 308 697 278 694 q 364 700 339 700 q 452 688 413 700 q 494 644 492 675 l 494 635 q 475 596 494 606 q 426 586 456 586 q 391 588 411 586 q 350 591 371 589 q 310 594 329 593 q 278 596 290 596 q 253 593 260 596 q 218 559 231 586 q 206 500 206 532 q 229 442 206 464 q 288 404 253 421 q 364 371 322 388 q 440 326 406 354 q 499 255 475 299 q 522 140 522 211 q 517 97 522 117 q 497 60 511 76 q 458 33 485 44 q 401 14 432 21 q 336 3 369 7 q 275 0 303 0 q 229 6 267 0 q 150 23 192 13 q 75 48 108 33 q 42 81 42 63 q 50 115 42 103 q 72 132 58 126 q 101 139 85 138 q 132 140 117 140 l 138 140 q 163 135 146 140 q 201 122 179 129 q 249 110 224 115 q 301 104 275 104 q 323 107 307 104 q 356 116 339 110 q 385 132 372 122 q 399 154 399 142 z "},"t":{"ha":621,"x_min":28,"x_max":593,"o":"m 364 589 q 362 515 363 553 q 361 436 361 476 q 364 235 361 329 q 368 36 367 142 q 333 10 358 21 q 282 0 307 0 q 249 7 264 0 q 229 29 235 14 q 225 51 225 39 q 227 77 225 64 q 229 106 229 90 q 228 226 228 163 q 227 351 228 289 q 225 473 226 414 q 221 581 224 532 q 207 582 214 582 q 193 582 200 582 q 161 581 178 582 q 128 581 144 581 q 93 582 111 581 q 60 588 75 583 q 37 602 46 593 q 28 626 28 611 q 45 668 28 653 q 91 690 63 683 q 155 697 119 696 q 226 699 190 699 q 353 694 289 699 q 469 689 417 689 l 522 689 q 571 681 550 689 q 593 640 592 672 l 593 631 q 565 588 593 599 q 499 578 538 578 q 426 583 463 578 q 364 589 389 588 z "},"u":{"ha":717,"x_min":69,"x_max":647,"o":"m 82 671 q 115 692 93 683 q 161 700 138 700 q 190 696 176 700 q 211 681 204 692 q 218 663 217 674 q 219 636 219 651 q 217 588 219 613 q 214 544 215 563 l 214 497 q 214 447 214 469 q 215 401 214 425 q 223 275 219 328 q 250 178 226 222 q 269 149 257 164 q 298 122 282 135 q 333 101 314 110 q 375 93 353 93 q 410 99 390 93 q 443 114 431 106 q 472 157 458 124 q 496 231 486 190 q 512 311 506 271 q 519 376 518 351 l 519 388 q 518 448 519 421 q 515 501 517 475 q 513 553 514 526 q 511 614 511 581 q 515 668 511 639 q 544 689 528 681 q 583 697 560 697 q 597 697 590 697 q 613 694 604 697 q 641 632 635 671 q 647 549 647 593 q 647 500 647 525 q 646 451 646 475 q 644 407 646 436 q 639 342 643 378 q 629 266 635 306 q 615 189 624 226 q 595 121 607 151 q 569 72 583 90 q 531 39 554 54 q 480 13 508 24 q 419 -5 451 1 q 357 -11 388 -11 q 286 -1 317 -11 q 240 19 267 4 q 188 51 214 33 q 140 88 161 68 q 111 124 119 107 q 102 149 107 125 q 93 208 97 172 q 84 286 89 243 q 76 369 79 329 q 72 442 74 410 q 69 490 69 475 q 82 671 69 576 z "},"v":{"ha":632,"x_min":28,"x_max":604,"o":"m 283 21 q 240 170 269 100 q 178 311 210 240 q 119 453 146 382 q 61 588 93 524 q 40 619 53 603 q 28 654 28 635 q 60 693 31 678 q 121 708 89 708 q 147 705 135 708 q 168 693 160 701 q 181 672 175 686 q 193 642 188 658 q 203 608 199 625 q 214 579 208 592 q 285 409 247 496 q 357 243 324 322 q 399 372 385 299 q 429 525 414 444 q 442 598 436 560 q 461 660 449 636 q 497 690 471 678 q 547 701 522 701 q 588 690 571 701 q 604 650 604 678 q 593 611 603 633 q 576 567 583 589 q 561 487 565 528 q 546 399 557 446 q 524 324 538 361 q 497 248 511 286 q 468 172 482 210 q 446 96 454 133 q 442 58 442 76 q 435 22 442 40 q 400 -1 422 7 q 354 -10 378 -10 q 314 -3 333 -10 q 283 21 294 4 z "},"w":{"ha":857,"x_min":21,"x_max":836,"o":"m 785 57 q 749 17 772 33 q 696 0 725 0 q 681 1 689 0 q 667 6 674 3 q 633 33 651 13 q 597 68 615 53 q 513 145 556 108 q 439 226 471 182 q 412 190 424 213 q 388 140 400 167 q 365 86 376 113 q 340 39 354 60 q 305 10 329 22 q 254 -1 281 -1 q 216 7 235 -1 q 183 36 197 15 q 156 188 174 103 q 113 347 139 274 q 74 473 90 411 q 40 593 57 535 q 29 616 38 603 q 21 640 21 629 q 53 681 24 663 q 115 699 83 699 q 147 692 132 699 q 168 669 161 685 q 189 587 182 636 q 213 490 196 538 q 235 426 224 457 q 257 363 247 394 q 275 299 267 332 q 289 226 283 265 q 330 285 314 253 q 351 365 346 318 l 354 379 q 387 408 368 396 q 438 421 406 421 q 476 410 458 421 q 497 385 485 404 q 519 351 508 365 q 551 309 533 332 q 585 263 568 286 q 618 217 601 239 q 649 182 635 196 q 663 267 657 219 q 674 364 669 314 q 682 465 678 414 q 693 560 686 515 q 696 609 697 586 q 701 649 694 632 q 735 681 710 668 q 786 694 761 694 q 819 685 806 694 q 836 656 833 676 l 836 649 q 832 615 836 635 q 825 579 828 594 l 806 399 q 799 330 804 363 q 789 267 794 297 q 779 206 783 236 q 775 142 775 175 q 785 57 775 94 z "},"x":{"ha":701,"x_min":47,"x_max":732,"o":"m 372 279 q 333 240 353 263 q 294 191 314 217 q 257 138 275 165 q 222 85 239 110 q 180 33 203 57 q 125 8 157 8 q 61 33 94 8 q 57 57 57 46 q 78 105 57 85 q 117 147 100 125 q 203 267 161 206 q 292 378 246 329 q 205 476 251 432 q 106 572 158 521 q 88 588 97 581 q 69 602 78 594 q 53 618 60 610 q 47 638 47 626 q 74 685 47 669 q 133 701 101 701 q 186 686 167 701 q 207 660 197 676 q 231 631 217 644 q 306 559 263 597 q 376 488 349 521 q 412 528 392 504 q 450 579 432 551 q 478 636 465 606 q 508 682 492 667 q 536 698 519 693 q 572 703 553 703 q 622 691 600 703 q 644 654 644 679 q 633 619 644 642 q 610 593 625 606 q 585 565 596 581 q 524 478 557 522 q 461 393 492 433 q 513 317 479 357 q 586 236 547 276 q 663 157 625 196 q 728 85 701 118 q 732 71 732 81 q 726 40 732 57 q 714 19 719 24 q 685 3 703 8 q 649 -1 668 -1 q 624 1 636 -1 q 604 8 613 3 q 581 35 592 15 q 556 71 571 54 q 461 174 511 124 q 372 279 411 224 z "},"y":{"ha":651,"x_min":28,"x_max":624,"o":"m 418 364 q 421 334 419 346 q 424 313 422 322 q 426 293 425 303 q 426 268 426 283 q 425 230 426 251 q 421 181 424 208 q 419 162 419 171 q 419 143 419 153 l 419 96 q 419 68 419 81 q 415 44 418 56 q 385 12 408 24 q 340 0 361 0 q 303 10 322 0 q 281 42 285 19 q 288 128 286 94 q 290 193 290 163 q 290 258 290 225 q 286 344 289 292 q 185 449 238 397 q 82 558 133 500 q 67 574 76 564 q 49 594 58 583 q 34 616 40 604 q 28 639 28 628 l 28 644 q 50 683 31 668 q 93 697 69 697 q 117 693 106 697 q 166 648 142 683 q 218 582 190 613 q 272 529 242 554 q 302 500 286 517 q 329 483 318 483 q 358 503 339 483 q 398 549 376 524 q 438 601 419 575 q 467 636 457 626 q 515 685 488 660 q 561 711 542 710 l 567 711 q 605 701 586 711 q 624 671 624 690 q 614 633 624 656 q 585 581 601 606 q 549 538 568 557 q 521 503 539 526 q 483 453 503 479 q 445 401 463 426 q 418 364 428 376 z "},"z":{"ha":606,"x_min":28,"x_max":578,"o":"m 360 575 q 313 586 336 583 q 268 589 290 589 q 215 587 240 589 q 163 585 189 585 q 123 587 143 585 q 82 596 103 589 q 54 615 69 600 q 39 646 39 631 q 49 673 39 661 q 74 692 58 685 q 108 704 89 700 q 147 708 128 708 q 232 703 183 708 q 336 694 281 697 l 351 694 q 403 697 378 694 q 453 699 429 699 q 489 696 472 699 q 519 686 506 693 q 541 660 531 679 q 551 625 551 640 q 535 596 549 608 q 514 574 521 583 q 443 462 476 518 q 369 354 410 406 q 295 240 329 303 q 225 118 261 176 q 266 122 243 121 q 314 124 289 124 q 388 122 350 124 q 461 119 426 121 l 472 119 q 508 118 489 119 q 542 111 526 117 q 568 95 558 106 q 578 65 578 85 q 552 13 578 25 q 490 0 526 0 q 415 6 454 0 q 342 13 375 13 l 335 13 q 243 4 289 13 q 161 -4 197 -4 l 156 -4 q 109 -2 132 -4 q 68 6 86 0 q 39 23 50 13 q 28 51 28 33 q 47 86 31 72 q 74 113 64 100 q 110 169 93 139 q 145 231 128 200 q 181 294 163 263 q 218 353 199 325 q 360 575 296 460 z "},"{":{"ha":540,"x_min":83,"x_max":457,"o":"m 304 -1 q 307 -42 304 -22 q 317 -77 310 -62 q 339 -101 325 -92 q 376 -110 353 -110 q 415 -112 396 -110 q 453 -124 435 -114 q 457 -157 457 -140 q 447 -200 457 -185 q 417 -222 436 -215 q 373 -231 399 -229 q 317 -233 347 -233 q 249 -218 275 -233 q 208 -178 222 -203 q 190 -124 194 -154 q 185 -64 185 -93 l 185 -11 q 183 73 185 33 q 176 157 182 113 q 165 206 174 193 q 143 238 156 218 q 119 260 135 251 q 85 274 103 268 q 83 282 83 276 q 84 295 83 285 q 86 318 85 306 q 89 341 88 331 q 90 354 90 351 q 115 358 104 360 q 138 363 126 357 q 177 395 165 375 q 189 447 189 415 q 188 496 189 475 q 188 537 188 517 q 187 578 188 557 q 186 625 186 599 q 185 664 186 643 q 185 708 185 685 q 190 768 185 738 q 208 823 194 799 q 249 863 222 847 q 317 878 275 878 q 373 876 347 878 q 417 867 399 874 q 447 844 436 860 q 457 801 457 828 q 453 768 457 785 q 415 756 435 758 q 376 754 396 754 q 339 745 353 754 q 317 722 325 736 q 307 687 310 707 q 304 646 304 667 q 310 549 304 593 q 317 447 317 504 q 295 361 317 394 q 247 306 274 328 q 288 244 272 275 q 304 156 304 213 l 304 -1 z "},"|":{"ha":322,"x_min":83,"x_max":239,"o":"m 238 -196 q 203 -224 226 -212 q 157 -235 181 -235 q 128 -231 142 -235 q 104 -215 115 -226 q 99 -169 99 -197 q 102 -112 99 -142 q 106 -50 106 -82 q 103 59 106 -11 q 99 215 101 129 q 95 394 97 300 q 90 574 93 488 q 85 731 88 660 q 83 840 83 801 q 120 866 94 856 q 171 876 146 876 q 221 856 206 876 q 228 838 226 849 q 229 815 229 828 q 227 775 229 796 q 225 733 225 754 l 225 714 q 226 615 225 679 q 228 473 226 551 q 232 308 231 394 q 235 141 233 221 q 238 -4 238 61 q 239 -106 239 -69 q 239 -151 239 -129 q 238 -196 239 -172 z "},"}":{"ha":540,"x_min":83,"x_max":457,"o":"m 236 156 q 252 244 236 213 q 293 306 268 275 q 245 361 267 328 q 224 447 224 394 q 230 549 224 504 q 236 646 236 593 q 233 687 236 667 q 223 722 231 707 q 201 745 215 736 q 164 754 188 754 q 125 756 144 754 q 88 768 106 758 q 83 801 83 785 q 94 844 83 828 q 123 867 104 860 q 167 876 142 874 q 224 878 193 878 q 292 863 265 878 q 332 823 318 847 q 351 768 346 799 q 356 708 356 738 q 355 664 356 685 q 354 625 354 643 q 353 578 354 599 q 353 537 353 557 q 352 496 353 517 q 351 447 351 475 q 363 395 351 415 q 403 363 375 375 q 425 358 414 357 q 450 354 436 360 q 451 341 450 351 q 454 318 453 331 q 456 295 456 306 q 457 282 457 285 q 456 274 457 276 q 422 260 438 268 q 397 238 406 251 q 376 206 385 218 q 364 157 367 193 q 357 73 358 113 q 356 -11 356 33 l 356 -64 q 351 -124 356 -93 q 332 -178 346 -154 q 292 -218 318 -203 q 224 -233 265 -233 q 167 -231 193 -233 q 123 -222 142 -229 q 94 -200 104 -215 q 83 -157 83 -185 q 88 -124 83 -140 q 125 -112 106 -114 q 164 -110 144 -110 q 201 -101 188 -110 q 223 -77 215 -92 q 233 -42 231 -62 q 236 -1 236 -22 l 236 156 z "},"~":{"ha":688,"x_min":83,"x_max":604,"o":"m 178 354 q 142 340 158 351 q 110 329 125 329 q 96 333 101 329 q 86 352 89 339 q 83 379 83 365 q 85 411 83 390 q 89 436 86 432 q 129 465 108 456 q 175 476 150 474 q 224 469 199 476 q 267 453 249 463 q 326 408 294 435 q 400 368 358 382 q 430 364 415 365 q 460 363 444 363 q 508 367 485 363 q 543 380 528 369 q 574 390 558 390 q 581 389 576 390 q 588 386 585 388 q 594 376 592 383 q 599 358 597 368 q 603 337 601 347 q 604 319 604 326 q 594 282 604 294 q 554 253 575 263 q 508 242 533 244 q 488 240 497 240 q 468 240 478 240 q 403 248 436 240 q 339 274 371 256 q 301 300 319 286 q 265 326 283 314 q 225 346 246 338 q 178 354 204 354 z "},"":{"ha":624,"x_min":3,"x_max":585,"o":"m 583 760 q 585 750 585 757 q 578 728 585 739 q 563 708 571 718 q 544 688 554 699 q 535 677 538 681 q 530 672 532 674 q 525 666 528 669 q 515 657 522 663 q 483 636 503 644 q 518 596 507 618 q 532 547 528 576 q 543 489 536 517 q 555 424 551 457 q 558 357 558 390 q 542 222 558 288 q 492 97 525 156 q 467 63 482 81 q 435 31 451 46 q 403 5 419 15 q 375 -10 388 -6 q 331 -17 347 -17 q 286 -6 304 -17 q 255 23 268 6 q 231 63 242 40 q 210 108 221 85 q 184 168 194 138 q 163 229 174 199 q 108 238 132 232 q 82 265 85 243 l 82 276 q 113 337 82 318 q 185 356 144 356 q 241 347 214 356 q 283 321 268 338 q 308 226 289 271 q 347 139 326 182 l 353 126 q 406 220 385 167 q 428 350 428 274 q 428 367 428 358 q 426 386 428 376 q 417 463 424 422 q 397 529 410 503 q 340 585 381 561 q 247 608 300 608 q 239 608 243 608 q 229 607 235 607 q 188 594 207 604 q 149 574 168 585 q 108 556 129 564 q 63 547 88 547 l 53 547 q 17 562 31 550 q 3 592 3 574 q 24 632 3 611 q 79 667 42 649 q 149 694 117 685 q 205 705 175 701 q 264 708 235 708 q 291 708 278 708 q 317 706 304 707 q 333 703 325 704 q 350 700 342 703 q 396 722 375 707 q 418 744 410 733 q 435 765 426 756 q 453 784 443 775 q 478 801 463 793 q 501 806 486 806 q 558 790 531 806 q 583 760 579 776 z "},"":{"ha":0,"x_min":-754,"x_max":-300,"o":"m -747 901 q -691 923 -724 917 q -621 929 -658 929 q -590 929 -596 929 q -583 930 -585 929 q -576 931 -582 931 q -544 931 -571 931 l -524 931 q -481 932 -499 931 q -448 935 -464 933 q -417 937 -432 936 q -381 938 -401 938 q -342 934 -361 938 q -304 921 -322 931 q -300 890 -300 904 q -307 844 -300 860 q -330 823 -314 829 q -372 815 -346 817 q -435 813 -397 814 q -490 810 -457 811 q -547 810 -522 810 q -574 810 -565 810 q -592 810 -583 810 q -610 813 -600 811 q -642 815 -621 814 q -694 818 -672 818 q -728 822 -715 818 q -748 835 -742 825 q -754 867 -754 844 q -747 901 -754 883 z "},"":{"ha":0,"x_min":-754,"x_max":-300,"o":"m -433 815 q -496 815 -457 815 q -574 814 -535 814 q -610 814 -593 814 q -642 815 -628 814 q -694 818 -672 818 q -728 822 -715 818 q -748 835 -742 825 q -754 867 -754 844 q -747 901 -754 883 q -691 923 -724 917 q -621 929 -658 929 q -594 929 -601 929 q -585 930 -587 929 q -582 931 -583 931 q -572 931 -581 931 l -471 931 l -429 926 q -428 939 -428 932 q -428 953 -428 946 q -429 967 -428 965 q -431 981 -431 971 q -402 1017 -429 1008 q -346 1025 -375 1025 q -319 1018 -331 1025 q -305 997 -308 1011 q -301 967 -301 983 l -301 918 q -301 899 -301 908 q -300 878 -300 889 q -301 863 -300 871 q -307 843 -303 854 q -363 822 -331 828 q -433 815 -396 815 z "},"":{"ha":0,"x_min":-754,"x_max":-301,"o":"m -444 815 q -504 815 -468 815 q -576 814 -540 814 q -611 814 -594 814 q -642 815 -628 814 q -694 818 -672 818 q -728 822 -715 818 q -748 835 -742 825 q -754 867 -754 844 q -747 901 -754 883 q -691 923 -724 917 q -621 929 -658 929 q -590 929 -596 929 q -581 930 -583 929 q -573 931 -579 931 q -540 931 -567 931 q -540 936 -540 933 q -539 942 -540 939 q -522 978 -535 963 q -491 1006 -510 994 q -450 1022 -472 1017 q -406 1028 -428 1028 q -333 1007 -365 1028 q -301 942 -301 986 q -312 876 -301 903 q -314 872 -312 874 q -360 825 -329 836 q -426 814 -390 814 q -436 815 -431 814 q -444 815 -442 815 z "},"":{"ha":0,"x_min":-754,"x_max":-300,"o":"m -301 918 q -301 899 -301 908 q -300 878 -300 889 q -301 863 -300 871 q -307 843 -303 854 q -363 822 -331 828 q -433 815 -396 815 q -496 815 -457 815 q -574 814 -535 814 q -610 814 -593 814 q -642 815 -628 814 q -694 818 -672 818 q -728 822 -715 818 q -748 835 -742 825 q -754 867 -754 844 q -747 901 -754 883 q -691 923 -724 917 q -621 929 -658 929 l -608 929 q -607 941 -607 935 q -607 953 -607 947 q -608 967 -607 965 q -610 981 -610 971 q -581 1017 -608 1008 q -525 1025 -554 1025 q -499 1018 -510 1025 q -484 997 -487 1011 q -481 967 -481 983 l -481 931 l -471 931 l -429 926 q -428 939 -428 932 q -428 953 -428 946 q -429 967 -428 965 q -431 981 -431 971 q -402 1017 -429 1008 q -346 1025 -375 1025 q -319 1018 -331 1025 q -305 997 -308 1011 q -301 967 -301 983 l -301 918 l -301 918 z "},"":{"ha":982,"x_min":69,"x_max":913,"o":"m 114 132 q 151 136 132 136 q 213 119 188 136 q 239 75 239 103 q 231 42 239 58 q 192 8 219 22 q 136 -6 165 -6 q 89 10 108 -6 q 69 53 69 25 q 83 100 69 76 q 114 132 96 124 m 457 132 q 494 136 475 136 q 556 119 531 136 q 582 75 582 103 q 574 42 582 58 q 535 8 563 22 q 479 -6 508 -6 q 432 10 451 -6 q 413 53 413 25 q 426 100 413 76 q 457 132 439 124 m 788 132 q 825 136 806 136 q 887 119 861 136 q 913 75 913 103 q 904 42 913 58 q 866 8 893 22 q 810 -6 839 -6 q 763 10 782 -6 q 743 53 743 25 q 756 100 743 76 q 788 132 769 124 z "},"":{"ha":0,"x_min":-467,"x_max":-329,"o":"m -411 815 q -444 829 -435 815 q -456 864 -453 843 q -458 909 -458 885 q -461 954 -457 933 q -465 996 -464 972 q -467 1033 -467 1019 q -466 1038 -467 1036 q -465 1043 -465 1040 q -436 1074 -460 1065 q -385 1082 -412 1082 q -361 1078 -372 1082 q -341 1053 -347 1072 q -333 1010 -335 1035 q -331 958 -331 985 q -329 910 -332 932 l -329 897 q -338 836 -329 858 q -386 814 -347 814 q -397 814 -392 814 q -411 815 -403 814 z "},"":{"ha":0,"x_min":-572,"x_max":-92,"o":"m -550 851 q -544 881 -550 868 q -529 905 -537 893 q -514 930 -521 917 q -507 963 -507 943 q -551 981 -531 967 q -572 1017 -572 996 q -554 1051 -572 1033 q -522 1071 -540 1065 q -483 1076 -504 1076 q -442 1070 -462 1076 q -404 1053 -421 1064 q -377 1026 -387 1042 q -367 989 -367 1010 q -386 933 -367 963 l -372 933 q -305 950 -332 933 q -253 987 -278 967 q -200 1024 -228 1007 q -129 1040 -172 1040 l -122 1040 q -92 997 -92 1021 q -101 971 -92 983 q -123 947 -110 958 q -152 924 -136 935 q -182 904 -168 913 l -187 901 q -240 872 -210 888 q -303 844 -269 857 q -374 822 -337 831 q -446 814 -411 814 q -500 820 -474 814 q -550 842 -526 826 l -550 851 z "},"":{"ha":0,"x_min":-756,"x_max":-256,"o":"m -456 833 q -458 846 -458 840 q -458 857 -458 851 l -458 931 q -470 967 -458 961 q -486 972 -482 972 q -497 963 -492 972 q -506 943 -501 954 q -515 923 -510 932 q -525 914 -519 914 q -544 915 -536 914 q -561 924 -553 917 q -588 957 -572 942 q -617 972 -604 972 q -628 965 -626 969 q -631 957 -631 961 q -622 932 -631 942 q -604 915 -614 922 q -585 901 -594 908 q -574 883 -576 893 q -573 879 -574 881 q -572 875 -572 878 q -597 832 -572 849 q -651 815 -621 815 q -665 817 -661 815 q -712 841 -689 821 q -742 875 -735 861 q -756 947 -756 906 q -745 1016 -756 982 q -712 1067 -735 1050 q -629 1094 -676 1094 q -582 1081 -601 1094 q -536 1049 -562 1068 q -525 1059 -531 1053 q -511 1072 -519 1065 q -491 1083 -503 1078 q -462 1088 -479 1088 q -442 1085 -453 1088 q -419 1072 -431 1083 q -400 1037 -408 1060 q -389 972 -392 1014 q -387 992 -387 976 q -385 1027 -386 1008 q -385 1062 -385 1046 q -385 1081 -385 1078 q -392 1111 -385 1097 q -399 1142 -399 1125 q -397 1154 -399 1150 q -372 1187 -393 1175 q -325 1199 -350 1199 q -284 1188 -303 1199 q -260 1154 -265 1178 q -256 1114 -256 1135 q -262 1045 -256 1083 q -278 969 -268 1007 q -299 901 -287 932 q -324 854 -311 869 l -329 849 q -353 824 -340 835 q -390 814 -367 814 q -423 818 -404 814 q -456 833 -442 822 z "},"":{"ha":0,"x_min":-617,"x_max":-275,"o":"m -378 925 q -376 893 -378 907 q -371 864 -374 879 q -401 827 -376 842 q -453 813 -425 813 q -496 826 -478 813 q -502 857 -501 840 q -503 893 -503 874 l -503 918 q -537 923 -518 922 q -574 926 -557 924 q -604 933 -592 928 q -617 951 -617 939 l -617 974 q -610 1005 -617 994 q -591 1021 -603 1015 q -565 1030 -579 1026 q -533 1038 -550 1033 q -531 1038 -532 1038 q -528 1039 -529 1039 l -529 1079 q -522 1107 -529 1096 q -502 1124 -514 1118 q -476 1133 -490 1131 q -447 1135 -461 1135 q -401 1119 -421 1135 q -382 1071 -382 1104 l -382 1043 q -358 1044 -364 1044 q -332 1044 -351 1044 q -288 1037 -301 1044 q -275 1001 -275 1029 q -278 982 -275 996 q -278 980 -278 981 q -279 978 -279 979 q -287 957 -279 967 q -308 944 -296 947 q -333 942 -325 942 q -345 941 -340 942 q -357 939 -350 940 q -378 933 -364 938 l -378 925 z "},"":{"ha":0,"x_min":-651,"x_max":-293,"o":"m -511 917 q -517 869 -515 893 q -540 829 -518 844 q -567 818 -550 822 q -599 814 -583 814 q -622 816 -611 814 q -639 825 -633 818 q -649 843 -646 832 q -651 867 -651 854 q -651 890 -651 878 q -650 915 -650 903 l -650 928 q -631 987 -650 965 q -580 1018 -611 1008 q -511 1030 -549 1028 q -437 1032 -474 1032 l -422 1032 l -414 1032 q -408 1031 -415 1031 l -387 1031 q -356 1031 -372 1031 q -327 1028 -340 1031 q -305 1017 -314 1025 q -293 993 -296 1010 l -293 988 q -298 960 -293 974 q -307 942 -303 946 q -338 923 -321 928 q -375 918 -356 918 q -398 919 -390 918 q -412 923 -406 921 q -428 927 -419 925 q -451 929 -436 929 q -482 926 -467 929 q -511 917 -497 924 z "},"":{"ha":0,"x_min":-232,"x_max":-94,"o":"m -176 815 q -209 829 -200 815 q -221 864 -218 843 q -223 909 -224 885 q -226 954 -222 933 q -231 996 -229 972 q -232 1033 -232 1019 q -231 1038 -232 1036 q -231 1043 -231 1040 q -201 1074 -225 1065 q -150 1082 -178 1082 q -126 1078 -137 1082 q -106 1053 -112 1072 q -98 1010 -100 1035 q -97 958 -96 985 q -94 910 -97 932 l -94 897 q -103 836 -94 858 q -151 814 -112 814 q -162 814 -157 814 q -176 815 -168 814 z "},"":{"ha":0,"x_min":-431,"x_max":50,"o":"m -408 851 q -402 881 -408 868 q -387 905 -396 893 q -372 930 -379 917 q -365 963 -365 943 q -410 981 -389 967 q -431 1017 -431 996 q -412 1051 -431 1033 q -381 1071 -399 1065 q -342 1076 -362 1076 q -300 1070 -321 1076 q -262 1053 -279 1064 q -235 1026 -246 1042 q -225 989 -225 1010 q -244 933 -225 963 l -231 933 q -163 950 -190 933 q -111 987 -136 967 q -58 1024 -86 1007 q 13 1040 -31 1040 l 19 1040 q 50 997 50 1021 q 41 971 50 983 q 19 947 32 958 q -10 924 6 935 q -40 904 -26 913 l -46 901 q -98 872 -68 888 q -162 844 -128 857 q -233 822 -196 831 q -304 814 -269 814 q -358 820 -332 814 q -408 842 -385 826 l -408 851 z "},"":{"ha":0,"x_min":-476,"x_max":24,"o":"m -176 833 q -179 846 -179 840 q -179 857 -179 851 l -179 931 q -191 967 -179 961 q -207 972 -203 972 q -217 963 -212 972 q -226 943 -222 954 q -235 923 -231 932 q -246 914 -240 914 q -265 915 -257 914 q -282 924 -274 917 q -309 957 -293 942 q -337 972 -325 972 q -349 965 -347 969 q -351 957 -351 961 q -343 932 -351 942 q -325 915 -335 922 q -306 901 -315 908 q -294 883 -297 893 q -294 879 -294 881 q -293 875 -293 878 q -317 832 -293 849 q -372 815 -342 815 q -386 817 -382 815 q -433 841 -410 821 q -462 875 -456 861 q -476 947 -476 906 q -466 1016 -476 982 q -433 1067 -456 1050 q -350 1094 -397 1094 q -303 1081 -322 1094 q -257 1049 -283 1068 q -246 1059 -251 1053 q -232 1072 -240 1065 q -212 1083 -224 1078 q -183 1088 -200 1088 q -162 1085 -174 1088 q -140 1072 -151 1083 q -121 1037 -129 1060 q -110 972 -112 1014 q -108 992 -108 976 q -106 1027 -107 1008 q -106 1062 -106 1046 q -106 1081 -106 1078 q -112 1111 -106 1097 q -119 1142 -119 1125 q -118 1154 -119 1150 q -92 1187 -114 1175 q -46 1199 -71 1199 q -5 1188 -24 1199 q 19 1154 14 1178 q 24 1114 24 1135 q 17 1045 24 1083 q 1 969 11 1007 q -20 901 -8 932 q -44 854 -32 869 l -50 849 q -74 824 -61 835 q -111 814 -87 814 q -144 818 -125 814 q -176 833 -162 822 z "},"":{"ha":0,"x_min":-340,"x_max":1,"o":"m -101 925 q -99 893 -101 907 q -94 864 -97 879 q -124 827 -100 842 q -176 813 -149 813 q -219 826 -201 813 q -226 857 -225 840 q -226 893 -226 874 l -226 918 q -261 923 -242 922 q -298 926 -281 924 q -328 933 -315 928 q -340 951 -340 939 l -340 974 q -333 1005 -340 994 q -315 1021 -326 1015 q -288 1030 -303 1026 q -257 1038 -274 1033 q -254 1038 -256 1038 q -251 1039 -253 1039 l -253 1079 q -245 1107 -253 1096 q -226 1124 -237 1118 q -199 1133 -214 1131 q -171 1135 -185 1135 q -125 1119 -144 1135 q -106 1071 -106 1104 l -106 1043 q -81 1044 -87 1044 q -56 1044 -75 1044 q -12 1037 -25 1044 q 1 1001 1 1029 q -1 982 1 996 q -2 980 -1 981 q -3 978 -3 979 q -11 957 -3 967 q -32 944 -19 947 q -56 942 -49 942 q -69 941 -64 942 q -81 939 -74 940 q -101 933 -87 938 l -101 925 z "},"":{"ha":0,"x_min":-290,"x_max":114,"o":"m -150 917 q -156 869 -154 893 q -179 829 -157 844 q -206 818 -189 822 q -237 814 -222 814 q -261 816 -250 814 q -278 825 -272 818 q -287 843 -285 832 q -290 867 -290 854 q -290 890 -290 878 q -289 915 -289 903 l -289 928 q -269 987 -289 965 q -219 1018 -250 1008 q -150 1030 -187 1028 q -76 1032 -112 1032 l -61 1032 q -31 1031 -46 1032 q -1 1031 -15 1031 l 19 1031 q 51 1031 35 1031 q 80 1028 67 1031 q 102 1017 93 1025 q 114 993 111 1010 l 114 988 q 109 960 114 974 q 100 942 104 946 q 69 923 86 928 q 32 918 51 918 q -28 924 3 918 q -90 929 -60 929 q -121 926 -106 929 q -150 917 -136 924 z "},"":{"ha":988,"x_min":18,"x_max":906,"o":"m 476 424 q 469 486 472 465 q 459 520 465 507 q 442 545 453 533 q 415 582 432 557 q 388 590 404 586 q 352 595 371 593 q 315 598 333 597 q 285 599 297 599 q 199 589 238 599 q 206 566 199 574 q 217 544 214 558 q 215 475 215 513 q 215 397 215 438 q 215 336 215 367 q 217 274 215 306 l 217 233 q 217 173 217 210 q 218 113 217 136 q 240 122 222 115 q 265 129 258 128 l 278 129 q 330 119 314 129 q 346 79 346 108 l 346 72 q 327 47 343 58 q 290 26 311 35 q 247 13 268 18 q 213 6 225 7 q 177 1 201 3 q 142 0 153 0 q 113 6 126 0 q 89 24 100 11 q 93 153 92 89 q 94 285 94 218 q 93 387 94 336 q 86 490 92 438 q 65 495 75 493 q 44 501 54 497 q 28 510 35 504 q 18 528 21 517 l 18 533 q 33 572 18 549 q 69 619 49 596 q 109 660 89 642 q 140 682 129 678 q 210 697 168 692 q 297 701 253 701 q 363 699 328 701 q 429 692 397 697 q 486 678 461 686 q 522 661 511 671 q 542 633 531 653 q 564 588 554 613 q 581 540 574 564 q 588 500 588 517 q 587 440 588 472 q 586 372 586 408 q 591 276 586 325 q 608 188 596 228 q 644 123 621 149 q 703 97 667 97 q 749 120 732 97 q 774 176 765 143 q 783 246 782 210 q 785 307 785 282 l 785 331 q 781 383 785 358 q 778 419 778 408 q 775 511 778 460 q 769 600 772 563 q 766 628 768 614 q 764 654 764 642 q 767 676 764 665 q 781 696 769 686 q 817 701 796 701 q 867 690 843 701 q 901 656 892 679 q 904 640 904 647 q 905 603 904 624 q 906 564 906 582 l 906 556 q 905 509 906 525 q 904 478 904 493 q 903 442 904 463 q 903 382 903 421 q 899 338 903 369 q 891 273 896 307 q 883 209 886 239 q 879 168 879 179 q 861 83 879 115 q 818 32 843 50 q 767 7 793 14 q 728 0 742 0 l 707 0 q 656 8 692 0 q 583 45 619 15 q 517 134 546 75 q 489 294 489 193 l 476 424 z "},"":{"ha":363,"x_min":83,"x_max":279,"o":"m 279 672 q 276 619 279 656 q 268 545 274 583 q 253 473 263 507 q 229 426 243 439 q 200 415 221 419 q 165 411 179 411 q 110 420 138 411 q 83 454 83 429 q 107 501 93 467 q 137 573 121 535 q 169 644 153 611 q 201 686 186 678 q 220 694 211 693 q 240 694 229 694 q 268 692 257 694 q 279 672 279 689 z "},"":{"ha":363,"x_min":83,"x_max":279,"o":"m 83 433 q 86 486 83 450 q 94 560 89 522 q 110 633 100 599 q 133 679 119 667 q 163 690 142 686 q 197 694 183 694 q 252 685 225 694 q 279 651 279 676 q 256 605 269 639 q 226 533 242 571 q 193 461 210 494 q 161 419 176 428 q 142 412 151 413 q 122 411 133 411 q 94 414 106 411 q 83 433 83 417 z "},"":{"ha":593,"x_min":83,"x_max":510,"o":"m 279 672 q 276 619 279 656 q 268 545 274 583 q 253 473 263 507 q 229 426 243 439 q 200 415 221 419 q 165 411 179 411 q 110 420 138 411 q 83 454 83 429 q 107 501 93 467 q 137 573 121 535 q 169 644 153 611 q 201 686 186 678 q 220 694 211 693 q 240 694 229 694 q 268 692 257 694 q 279 672 279 689 m 510 672 q 507 619 510 656 q 499 545 504 583 q 483 473 493 507 q 460 426 474 439 q 431 415 451 419 q 396 411 410 411 q 341 420 368 411 q 314 454 314 429 q 338 501 324 467 q 367 573 351 535 q 400 644 383 611 q 432 686 417 678 q 451 694 442 693 q 471 694 460 694 q 499 692 488 694 q 510 672 510 689 z "},"":{"ha":593,"x_min":83,"x_max":510,"o":"m 314 433 q 317 486 314 450 q 325 560 319 522 q 340 633 331 599 q 364 679 350 667 q 393 690 372 686 q 428 694 414 694 q 483 685 456 694 q 510 651 510 676 q 486 605 500 639 q 456 533 472 571 q 424 461 440 494 q 392 419 407 428 q 373 412 382 413 q 353 411 364 411 q 325 414 336 411 q 314 433 314 417 m 83 433 q 86 486 83 450 q 94 560 89 522 q 110 633 100 599 q 133 679 119 667 q 163 690 142 686 q 197 694 183 694 q 252 685 225 694 q 279 651 279 676 q 256 605 269 639 q 226 533 242 571 q 193 461 210 494 q 161 419 176 428 q 142 412 151 413 q 122 411 133 411 q 94 414 106 411 q 83 433 83 417 z "},"":{"ha":414,"x_min":83,"x_max":331,"o":"m 322 267 q 310 235 322 249 q 282 210 299 221 q 246 194 265 200 q 211 189 226 189 q 182 190 196 189 q 161 203 168 192 q 99 249 115 215 q 83 333 83 283 q 88 376 83 350 q 104 426 92 401 q 140 469 117 451 q 200 486 163 486 q 298 457 265 486 q 331 386 331 428 q 326 331 331 358 q 322 267 322 304 z "},"":{"ha":793,"x_min":83,"x_max":710,"o":"m 381 314 q 344 314 363 314 q 310 313 326 314 q 283 313 294 313 q 268 313 272 313 q 216 310 243 313 q 165 308 189 308 q 108 317 131 308 q 83 353 85 325 l 83 358 q 95 397 83 382 q 126 419 107 411 q 169 428 144 426 q 222 431 194 431 q 261 430 242 431 q 300 429 281 429 l 318 429 q 349 426 324 428 q 406 424 375 425 q 463 424 436 424 q 496 424 489 424 q 567 429 531 424 q 636 435 604 435 q 686 426 665 435 q 710 389 707 417 l 710 379 q 690 344 710 357 q 640 324 671 331 q 570 315 608 317 q 494 313 532 313 q 430 313 460 313 q 381 314 400 314 z "},"":{"ha":904,"x_min":83,"x_max":821,"o":"m 381 314 q 344 314 363 314 q 310 313 326 314 q 283 313 294 313 q 268 313 272 313 q 216 310 243 313 q 165 308 189 308 q 108 317 131 308 q 83 353 85 325 l 83 358 q 95 397 83 382 q 126 419 107 411 q 169 428 144 426 q 222 431 194 431 q 261 430 242 431 q 300 429 281 429 l 318 429 q 343 427 321 428 q 396 426 365 426 q 462 425 426 425 q 528 424 497 425 q 581 424 558 424 q 607 424 603 424 q 678 429 642 424 q 747 435 715 435 q 797 426 776 435 q 821 389 818 417 l 821 379 q 801 344 821 357 q 751 324 782 331 q 681 315 719 317 q 606 313 643 313 q 555 313 589 313 q 485 313 521 313 q 420 314 450 314 q 381 314 390 314 z "},"":{"ha":0,"x_min":-664,"x_max":-286,"o":"m -531 815 q -601 822 -568 815 q -657 843 -633 828 q -662 863 -661 854 q -664 878 -664 871 q -663 899 -664 889 q -662 918 -662 908 l -662 967 q -659 997 -662 983 q -644 1018 -656 1011 q -618 1025 -633 1025 q -562 1017 -589 1025 q -533 981 -535 1008 q -535 967 -533 971 q -536 953 -536 965 q -536 939 -536 946 q -535 926 -536 932 l -493 931 l -468 931 q -458 931 -460 931 q -455 930 -457 931 q -446 929 -453 929 q -419 929 -439 929 q -349 923 -382 929 q -293 901 -317 917 q -286 867 -286 883 q -292 835 -286 844 q -312 822 -299 825 q -347 818 -326 818 q -399 815 -368 818 q -430 814 -412 814 q -467 814 -447 814 q -494 814 -486 814 q -506 815 -501 814 q -514 815 -510 815 q -531 815 -518 815 z "},"":{"ha":0,"x_min":-586,"x_max":-311,"o":"m -311 986 q -324 922 -311 953 q -357 867 -336 890 q -405 828 -378 843 q -461 814 -432 814 q -492 815 -475 814 q -525 821 -510 817 q -553 833 -540 825 q -572 856 -567 842 q -583 891 -579 871 q -586 933 -586 911 q -578 1001 -586 978 q -546 1051 -569 1025 q -495 1088 -522 1078 q -433 1099 -468 1099 q -348 1069 -385 1099 q -311 986 -311 1039 m -451 1004 q -475 994 -467 1004 q -483 961 -483 985 q -474 917 -483 924 q -453 911 -464 911 q -430 920 -437 911 q -422 940 -422 929 l -422 961 q -431 990 -422 976 q -451 1004 -440 1004 z "},"":{"ha":0,"x_min":-658,"x_max":-233,"o":"m -522 1004 q -543 956 -543 990 q -533 908 -543 931 q -503 930 -521 917 q -467 943 -486 943 q -455 940 -462 943 q -439 933 -447 938 q -423 926 -431 929 q -411 921 -415 922 q -393 959 -404 939 q -369 982 -382 979 q -354 983 -364 983 q -315 963 -328 983 q -303 917 -303 943 q -308 882 -303 900 q -325 849 -314 864 q -353 825 -336 835 q -392 815 -369 815 q -406 817 -400 815 q -444 826 -421 819 q -478 842 -467 832 q -499 828 -492 833 q -514 820 -507 824 q -528 815 -521 817 q -549 814 -536 814 q -560 815 -556 814 q -572 817 -565 815 q -637 863 -617 825 q -658 950 -658 901 q -645 1026 -658 990 q -604 1081 -632 1061 q -556 1101 -583 1096 q -500 1106 -529 1106 l -479 1106 q -447 1100 -464 1106 q -412 1094 -431 1094 q -381 1104 -392 1096 q -358 1122 -369 1113 q -333 1140 -347 1132 q -294 1147 -319 1147 l -283 1147 q -249 1135 -264 1144 q -233 1103 -233 1125 q -235 1089 -233 1094 q -247 1069 -237 1079 q -271 1049 -257 1058 q -299 1031 -285 1039 q -325 1018 -314 1022 q -379 1003 -353 1007 q -433 999 -406 999 q -476 1000 -454 999 q -522 1004 -499 1001 z "},"":{"ha":0,"x_min":-433,"x_max":-300,"o":"m -382 1110 q -419 1119 -412 1110 q -425 1149 -425 1129 q -425 1170 -425 1158 q -428 1197 -425 1182 q -433 1257 -433 1229 q -433 1262 -433 1260 q -432 1267 -432 1264 q -403 1297 -426 1289 q -351 1306 -379 1306 q -328 1301 -339 1306 q -305 1283 -308 1294 q -301 1254 -301 1272 q -301 1232 -301 1244 q -300 1204 -301 1219 l -300 1192 q -309 1131 -300 1153 q -357 1108 -318 1108 q -368 1108 -362 1108 q -382 1110 -374 1108 z "},"":{"ha":0,"x_min":-572,"x_max":-92,"o":"m -526 1149 q -524 1178 -526 1165 q -517 1201 -521 1190 q -510 1226 -514 1213 q -507 1258 -507 1239 q -551 1277 -531 1263 q -572 1313 -572 1292 q -554 1347 -572 1329 q -522 1367 -540 1361 q -483 1372 -504 1372 q -442 1366 -462 1372 q -404 1349 -421 1360 q -377 1322 -387 1338 q -367 1285 -367 1306 q -386 1229 -367 1258 l -372 1229 q -305 1246 -332 1229 q -253 1283 -278 1263 q -200 1319 -228 1303 q -129 1336 -172 1336 l -122 1336 q -92 1293 -92 1317 q -101 1267 -92 1279 q -123 1242 -110 1254 q -152 1219 -136 1231 q -182 1200 -168 1208 l -187 1197 q -240 1168 -210 1183 q -303 1140 -269 1153 q -374 1118 -337 1126 q -446 1110 -411 1110 q -488 1117 -474 1110 q -526 1139 -503 1124 l -526 1149 z "},"":{"ha":0,"x_min":-700,"x_max":-253,"o":"m -435 1126 q -437 1138 -437 1132 q -437 1147 -437 1143 l -437 1214 q -449 1247 -437 1242 q -462 1251 -460 1251 q -472 1243 -468 1251 q -481 1225 -476 1235 q -489 1207 -485 1215 q -499 1199 -493 1199 q -525 1207 -514 1199 q -545 1225 -536 1215 q -562 1243 -554 1235 q -581 1251 -571 1251 q -592 1245 -590 1249 q -594 1238 -594 1242 q -586 1213 -594 1222 q -567 1197 -578 1204 q -549 1183 -557 1190 q -540 1164 -540 1175 q -562 1125 -540 1140 q -612 1110 -585 1110 q -654 1122 -637 1110 q -681 1151 -671 1133 q -696 1190 -692 1169 q -700 1229 -700 1211 q -672 1325 -700 1288 q -593 1363 -644 1363 q -550 1350 -568 1363 q -508 1321 -532 1338 q -486 1342 -499 1328 q -442 1356 -474 1356 q -423 1353 -433 1356 q -403 1342 -412 1351 q -385 1310 -393 1332 q -375 1251 -378 1289 q -373 1270 -374 1256 q -372 1301 -372 1285 q -371 1333 -371 1318 q -371 1350 -371 1347 l -371 1382 q -351 1419 -371 1406 q -304 1433 -332 1433 q -265 1412 -276 1433 q -253 1354 -253 1390 q -258 1296 -253 1326 q -274 1236 -264 1265 q -294 1183 -283 1207 q -315 1144 -306 1158 l -321 1140 q -343 1118 -332 1128 q -376 1108 -354 1108 q -406 1113 -389 1108 q -435 1126 -424 1117 z "},"":{"ha":0,"x_min":-539,"x_max":-197,"o":"m -300 1203 q -298 1180 -300 1185 q -293 1160 -296 1175 q -323 1123 -299 1138 q -375 1108 -347 1108 q -418 1122 -400 1108 q -424 1144 -424 1136 q -425 1171 -425 1151 l -425 1196 q -460 1201 -440 1200 q -497 1203 -479 1201 q -526 1211 -514 1206 q -539 1229 -539 1217 l -539 1251 q -532 1283 -539 1272 q -513 1299 -525 1293 q -487 1308 -501 1304 q -456 1315 -472 1311 q -453 1316 -454 1315 q -450 1317 -451 1317 l -451 1349 q -444 1376 -451 1365 q -424 1394 -436 1388 q -398 1402 -412 1400 q -369 1404 -383 1404 q -324 1389 -343 1404 q -304 1340 -304 1374 l -304 1321 q -280 1322 -286 1322 q -254 1322 -274 1322 q -210 1315 -224 1322 q -197 1279 -197 1307 q -200 1260 -197 1274 q -201 1258 -200 1258 q -201 1256 -201 1257 q -210 1235 -201 1244 q -231 1222 -218 1225 q -255 1219 -247 1219 q -267 1219 -262 1219 q -279 1217 -272 1218 q -300 1211 -286 1215 l -300 1203 z "},"":{"ha":0,"x_min":-564,"x_max":-160,"o":"m -424 1192 q -429 1153 -428 1168 q -453 1124 -431 1138 q -479 1113 -462 1117 q -511 1108 -496 1108 q -535 1110 -524 1108 q -551 1119 -546 1113 q -561 1138 -558 1126 q -564 1161 -564 1149 q -563 1175 -564 1172 q -562 1190 -562 1178 l -562 1203 q -543 1262 -562 1240 q -492 1293 -524 1283 q -424 1305 -461 1303 q -350 1307 -386 1307 l -335 1307 q -304 1306 -319 1307 q -275 1306 -289 1306 l -254 1306 q -223 1306 -239 1306 q -194 1303 -207 1306 q -172 1292 -181 1300 q -160 1268 -162 1285 l -160 1263 q -165 1235 -160 1249 q -174 1217 -169 1221 q -205 1198 -187 1203 q -242 1193 -222 1193 q -302 1199 -271 1193 q -364 1204 -333 1204 q -394 1201 -379 1204 q -424 1192 -410 1199 z "},"":{"ha":15472,"x_min":0,"x_max":0,"o":""},"":{"ha":696,"x_min":18,"x_max":626,"o":"m 415 581 q 388 588 404 585 q 352 594 371 592 q 315 597 333 596 q 285 597 297 597 q 199 588 238 597 q 206 565 199 572 q 217 543 214 557 q 215 474 215 511 q 215 396 215 436 q 215 335 215 365 q 217 272 215 304 l 217 232 q 217 174 217 203 q 219 115 217 144 q 224 90 221 103 q 226 67 226 78 l 226 60 q 197 17 222 36 q 142 -1 171 -1 q 113 4 126 -1 q 89 22 100 10 q 93 152 92 88 q 94 283 94 217 q 93 385 94 335 q 86 489 92 436 q 65 494 75 492 q 44 499 54 496 q 28 509 35 503 q 18 526 21 515 l 18 532 q 33 571 18 547 q 69 617 49 594 q 109 658 89 640 q 140 681 129 676 q 210 695 168 690 q 297 700 253 700 q 363 698 328 700 q 429 690 397 696 q 486 677 461 685 q 522 660 511 669 q 541 631 531 651 q 560 586 551 610 q 576 539 569 563 q 588 499 583 515 q 601 400 597 454 q 604 289 604 346 q 612 194 604 233 q 619 117 619 156 q 619 106 619 111 q 618 94 618 100 q 620 86 618 89 q 625 81 622 83 q 626 67 626 76 q 617 38 626 51 q 595 13 608 24 q 565 -3 582 3 q 535 -8 549 -8 q 508 -1 519 -8 q 494 19 497 6 q 490 50 490 33 l 490 99 q 490 118 490 108 q 489 139 489 128 q 485 263 488 200 q 476 385 483 326 q 454 494 468 443 q 415 581 440 544 z "},"":{"ha":619,"x_min":35,"x_max":550,"o":"m 157 603 q 122 587 146 599 q 75 575 97 575 q 44 589 57 575 q 35 614 35 600 q 48 647 35 631 q 81 677 61 664 q 124 699 101 690 q 168 710 147 708 l 183 710 q 263 676 238 710 q 296 586 289 643 l 292 574 q 269 509 281 544 q 247 436 257 474 q 229 360 236 399 q 222 283 222 321 q 233 199 222 239 q 271 128 244 160 q 333 108 307 108 q 374 123 358 108 q 400 163 390 138 q 414 219 410 188 q 418 288 418 251 q 410 408 418 350 q 401 508 403 460 q 396 589 400 557 q 386 619 393 607 q 379 647 379 632 q 381 657 379 654 q 407 692 386 679 q 453 704 428 704 q 485 699 469 704 q 513 678 501 693 q 531 528 519 606 q 547 372 542 450 q 549 341 549 357 q 550 310 550 325 q 538 188 550 244 q 498 88 525 131 q 426 21 471 46 q 317 -4 381 -4 q 221 19 263 -4 q 151 80 179 42 q 108 169 122 118 q 93 278 93 221 q 101 365 93 321 q 117 418 107 392 q 136 469 126 444 q 153 519 146 494 q 161 568 161 543 q 157 603 161 586 z "},"":{"ha":619,"x_min":0,"x_max":546,"o":"m 543 367 q 545 339 544 353 q 546 310 546 325 q 535 196 546 253 q 498 94 525 139 q 425 21 471 49 q 308 -7 379 -7 q 215 16 256 -7 q 145 78 174 39 q 102 167 117 117 q 88 274 88 218 q 96 360 88 315 q 122 434 103 399 q 156 506 140 469 q 158 521 156 510 q 51 562 97 531 q 0 658 6 593 q 67 697 22 697 q 96 692 83 697 q 110 678 106 689 q 120 658 115 668 q 131 639 125 647 q 147 631 136 631 q 183 673 165 650 q 233 696 201 696 q 244 696 239 696 q 257 693 250 696 q 290 653 276 688 q 304 583 304 618 q 285 510 304 544 q 251 432 265 475 q 229 349 238 390 q 221 268 221 308 q 231 194 221 229 q 265 128 242 158 q 329 108 300 108 q 370 122 354 108 q 395 160 386 136 q 408 216 404 185 q 413 283 413 247 q 410 343 413 313 q 404 403 407 374 q 397 503 397 454 q 390 583 396 551 q 381 615 388 601 q 375 642 375 628 q 376 651 375 647 q 403 686 382 674 q 449 699 425 699 q 481 693 465 699 q 507 672 496 688 q 525 522 514 600 q 543 367 536 444 z "},"":{"ha":757,"x_min":76,"x_max":708,"o":"m 211 346 q 242 392 226 372 q 288 431 258 411 q 325 452 308 444 q 369 460 342 460 q 419 452 396 460 q 457 426 442 444 q 458 424 457 425 q 458 421 458 422 q 461 401 460 411 q 463 383 463 392 q 457 357 463 368 q 436 339 451 346 q 395 333 418 332 q 353 324 372 335 q 331 308 344 319 q 303 283 317 297 q 278 253 289 268 q 265 225 268 238 q 256 173 258 196 q 252 129 254 150 q 247 88 250 108 q 235 46 243 68 q 208 9 224 21 q 178 -3 193 -3 q 140 13 158 -3 q 111 57 122 28 q 103 75 107 68 q 98 89 100 82 q 94 106 96 96 q 90 133 92 115 q 80 249 83 189 q 76 369 76 308 q 78 466 76 418 q 86 557 81 514 q 139 624 106 596 q 215 670 172 651 q 309 698 258 689 q 414 707 360 707 l 438 707 q 521 690 485 707 q 583 643 557 672 q 625 574 608 614 q 650 490 642 535 q 660 406 658 451 q 665 312 663 360 q 670 217 667 264 q 683 131 674 171 q 690 108 686 115 q 699 97 694 101 q 706 90 703 93 q 708 79 708 88 l 708 72 q 680 22 704 44 q 625 0 656 0 q 612 1 618 0 q 599 6 606 3 q 570 31 579 13 q 556 76 561 50 q 550 131 551 101 q 547 192 549 161 q 544 303 544 242 q 538 422 544 365 q 515 524 532 479 q 460 586 497 568 q 381 601 425 601 q 282 584 329 601 q 221 538 235 567 q 206 458 206 501 q 208 408 206 435 q 211 346 210 381 z "},"":{"ha":757,"x_min":76,"x_max":708,"o":"m 558 451 q 549 545 558 503 q 513 607 540 588 q 450 567 475 589 q 404 544 425 544 q 368 556 388 546 q 328 578 349 567 q 290 600 308 590 q 256 610 271 610 q 239 607 244 610 q 217 570 225 601 q 210 499 210 539 q 210 467 210 486 q 210 427 210 449 q 210 384 210 406 q 211 346 211 363 q 242 392 226 372 q 288 431 258 411 q 325 452 308 444 q 369 460 342 460 q 419 452 396 460 q 457 426 442 444 q 458 424 457 425 q 458 421 458 422 q 461 401 460 411 q 463 383 463 392 q 457 357 463 368 q 436 339 451 346 q 395 333 418 332 q 353 324 372 335 q 331 308 344 319 q 303 283 317 297 q 278 253 289 268 q 265 225 268 238 q 256 173 258 196 q 252 129 254 150 q 247 88 250 108 q 235 46 243 68 q 208 9 224 21 q 178 -3 193 -3 q 140 13 158 -3 q 111 57 122 28 q 103 75 107 68 q 98 89 100 82 q 94 106 96 96 q 90 133 92 115 q 80 249 83 189 q 76 369 76 308 q 78 466 76 418 q 88 557 81 514 q 92 584 89 572 q 100 610 94 596 q 168 685 117 658 q 279 713 219 713 q 345 703 313 713 q 404 672 378 693 q 463 705 432 694 q 525 715 494 715 q 613 692 572 715 q 669 628 653 668 q 678 596 676 614 q 679 557 679 578 q 678 519 679 538 q 678 482 678 501 l 678 431 q 675 333 678 378 q 672 246 672 289 q 674 189 672 218 q 683 131 676 160 q 690 108 686 115 q 699 97 694 101 q 706 90 703 93 q 708 79 708 88 l 708 72 q 680 22 704 44 q 625 0 656 0 q 612 1 618 0 q 599 6 606 3 q 570 31 579 13 q 556 76 561 50 q 550 131 551 101 q 547 192 549 161 l 547 204 q 549 253 547 224 q 552 316 550 283 q 556 381 554 349 q 558 435 558 413 l 558 451 z "},"":{"ha":717,"x_min":26,"x_max":642,"o":"m 254 328 q 274 238 254 279 q 322 168 294 197 q 378 123 350 139 q 422 107 407 107 q 469 117 444 107 q 505 192 496 150 q 514 285 514 235 q 512 349 514 317 q 507 417 510 382 q 502 513 503 465 q 499 600 501 560 q 495 628 497 614 q 493 654 493 642 q 496 676 493 665 q 510 696 499 686 q 546 701 525 701 q 597 690 572 701 q 631 656 621 679 q 633 640 633 647 q 628 603 633 624 q 624 564 624 582 l 624 556 q 633 415 624 494 q 642 257 642 336 q 637 174 642 214 q 619 100 632 133 q 583 42 606 67 q 525 7 560 18 q 483 -2 507 1 q 433 -6 460 -6 q 360 1 392 -6 q 305 23 329 7 q 264 67 281 39 q 235 140 247 96 l 231 156 q 229 149 229 153 q 228 147 229 147 q 228 144 228 146 q 226 136 226 140 l 226 122 q 227 96 226 115 q 228 64 228 76 q 226 47 228 53 q 199 12 219 24 q 150 0 178 0 q 127 3 133 0 q 108 17 121 7 l 108 274 q 115 316 113 294 q 122 360 118 338 q 148 434 129 399 q 182 506 167 469 q 185 521 182 510 q 78 562 124 531 q 26 658 32 593 q 93 697 49 697 q 122 692 110 697 q 137 678 132 689 q 147 658 142 668 q 157 639 151 647 q 174 631 163 631 q 210 673 192 650 q 260 696 228 696 q 271 696 265 696 q 283 693 276 696 q 317 653 303 688 q 331 583 331 618 q 311 510 331 544 q 278 432 292 475 q 267 399 271 411 q 260 378 263 388 q 256 358 257 369 q 254 328 254 347 z "},"":{"ha":568,"x_min":7,"x_max":499,"o":"m 18 222 q 7 250 7 233 q 17 281 7 265 q 42 308 26 296 q 76 328 58 321 q 111 336 94 336 q 150 319 138 336 q 176 285 163 301 q 213 243 192 265 q 258 199 235 221 q 305 159 282 178 q 346 128 328 140 q 347 134 346 131 q 347 140 347 138 q 360 266 354 199 q 365 397 365 333 q 365 434 365 417 q 363 468 364 451 q 339 544 360 508 q 286 600 318 581 q 210 586 247 586 q 172 593 188 586 q 154 618 156 600 q 177 666 154 644 q 219 694 200 688 q 266 707 239 703 q 321 711 293 711 q 389 703 365 711 q 426 674 408 694 q 459 628 444 654 q 483 573 474 601 q 496 519 493 544 q 498 489 497 506 q 499 456 499 472 l 499 431 q 491 296 497 361 q 476 164 485 231 q 469 99 474 138 q 456 43 465 61 q 408 6 443 19 q 338 -8 374 -8 q 290 0 311 -8 q 218 49 251 17 q 153 110 185 81 q 88 172 118 140 q 18 222 57 203 z "},"":{"ha":628,"x_min":3,"x_max":558,"o":"m 163 229 q 108 238 132 232 q 82 265 85 243 l 82 276 q 113 337 82 318 q 185 356 144 356 q 241 347 214 356 q 283 321 268 338 q 308 226 289 271 q 347 139 326 182 l 353 126 q 406 220 385 167 q 428 350 428 274 q 428 367 428 358 q 426 386 428 376 q 417 463 424 422 q 397 529 410 503 q 340 585 381 561 q 247 608 300 608 q 239 608 243 608 q 229 607 235 607 q 188 594 207 604 q 149 574 168 585 q 108 556 129 564 q 63 547 88 547 l 53 547 q 17 562 31 550 q 3 592 3 574 q 24 632 3 611 q 79 667 42 649 q 149 694 117 685 q 205 705 175 701 q 264 708 235 708 q 291 708 278 708 q 317 706 304 707 q 380 692 347 703 q 440 665 413 681 q 489 632 468 650 q 518 596 510 614 q 532 547 528 576 q 543 489 536 517 q 555 424 551 457 q 558 357 558 390 q 542 222 558 288 q 492 97 525 156 q 467 63 482 81 q 435 31 451 46 q 403 5 419 15 q 375 -10 388 -6 q 331 -17 347 -17 q 286 -6 304 -17 q 255 23 268 6 q 231 63 242 40 q 210 108 221 85 q 184 168 194 138 q 163 229 174 199 z "},"":{"ha":717,"x_min":35,"x_max":632,"o":"m 507 432 q 488 528 507 493 q 440 581 468 564 q 378 603 411 599 q 319 608 346 608 q 311 608 315 608 q 301 607 307 607 q 260 594 279 604 q 221 574 240 585 q 181 556 201 564 q 135 547 160 547 l 125 547 q 89 562 103 550 q 75 592 75 574 q 96 632 75 611 q 151 667 114 649 q 221 694 189 685 q 277 705 247 701 q 336 708 307 708 q 363 708 350 708 q 389 706 376 707 q 453 692 419 703 q 517 667 488 682 q 570 635 547 653 q 601 599 593 617 q 617 549 611 579 q 626 492 624 519 q 631 424 631 457 q 632 357 632 390 l 632 17 q 613 3 619 7 q 590 0 607 0 q 535 3 563 0 q 501 25 508 6 q 500 42 500 31 q 501 74 500 54 q 501 100 501 93 q 501 117 501 107 q 497 133 500 126 l 493 118 q 460 49 481 74 q 413 12 439 24 q 360 -3 388 0 q 307 -6 332 -6 q 257 -2 281 -6 q 215 7 233 1 q 163 40 182 18 q 136 93 144 63 q 126 160 128 124 q 124 238 124 197 l 124 257 q 121 297 124 281 q 113 329 118 313 q 67 340 89 336 q 38 368 46 344 q 35 381 35 376 q 47 415 35 399 q 72 440 58 432 q 90 447 83 446 q 113 447 97 447 q 176 437 144 447 q 218 415 207 426 q 231 392 225 407 q 242 360 238 378 q 249 322 246 342 q 251 285 251 303 q 250 239 251 261 q 249 197 249 217 q 253 154 249 174 q 271 117 257 135 q 318 107 296 107 q 406 138 369 107 q 464 217 442 169 q 497 322 486 265 q 507 432 507 379 z "},"":{"ha":689,"x_min":35,"x_max":617,"o":"m 499 563 q 578 521 546 550 q 607 424 597 476 q 617 318 617 371 q 585 138 617 222 q 489 11 554 54 q 356 -11 424 -11 q 266 1 308 -11 q 192 38 224 14 q 139 99 160 63 q 114 186 118 136 q 110 268 110 225 q 122 383 110 325 q 144 465 132 424 q 156 546 156 506 q 155 563 156 554 q 153 578 154 571 q 119 572 138 575 q 85 568 101 568 q 51 576 65 568 q 35 606 38 583 l 35 613 q 46 647 35 631 q 76 676 57 664 q 118 697 94 689 q 165 704 142 704 l 179 704 q 226 689 204 701 q 265 657 249 676 q 292 613 282 638 q 301 563 301 589 q 284 480 301 522 q 256 394 267 438 q 246 342 249 367 q 243 290 243 318 q 250 219 243 253 q 272 159 257 185 q 312 118 288 133 q 372 103 336 103 q 413 107 389 103 q 453 170 440 131 q 471 263 467 210 q 473 292 472 278 q 474 324 474 306 q 470 394 474 361 q 456 438 467 426 q 428 450 446 447 q 390 456 410 453 q 356 469 371 460 q 338 501 340 478 q 350 558 340 531 q 370 612 360 585 q 391 665 381 639 q 406 718 401 692 q 497 754 439 754 q 539 749 518 754 q 556 713 556 732 q 543 674 556 693 q 524 633 531 656 q 515 607 517 613 q 513 600 513 601 q 507 586 510 593 q 502 573 504 579 q 499 563 500 567 z "},"":{"ha":671,"x_min":0,"x_max":599,"o":"m 238 394 q 228 342 231 367 q 225 290 225 318 q 232 219 225 253 q 254 159 239 185 q 294 118 269 133 q 354 103 318 103 q 394 107 371 103 q 435 170 422 131 q 453 263 449 210 q 455 292 454 278 q 456 324 456 306 q 452 394 456 361 q 438 438 449 426 q 410 450 428 447 q 372 456 392 453 q 338 469 353 460 q 319 501 322 478 q 329 546 319 521 q 346 593 339 571 q 355 620 350 608 q 364 645 360 632 q 373 675 368 658 q 382 717 378 692 q 474 753 415 753 q 515 747 494 753 q 524 728 524 739 l 524 714 q 515 674 524 694 q 500 632 507 654 q 490 599 493 617 q 481 563 486 582 q 560 521 528 550 q 589 424 579 476 q 599 318 599 371 q 567 138 599 222 q 471 11 536 54 q 338 -11 406 -11 q 248 1 290 -11 q 174 38 206 14 q 121 99 142 63 q 96 186 100 136 q 92 268 92 225 q 104 383 92 325 q 114 417 108 403 q 126 446 119 432 q 141 474 133 460 q 156 506 149 488 q 158 521 156 510 q 51 562 97 531 q 0 658 6 593 q 67 697 22 697 q 96 692 83 697 q 110 678 106 689 q 120 658 115 668 q 131 639 125 647 q 147 631 136 631 q 183 673 165 650 q 233 696 201 696 q 244 696 239 696 q 257 693 250 696 q 290 653 276 688 q 304 583 304 618 q 297 540 304 564 q 278 491 289 517 q 256 440 267 465 q 238 394 244 415 z "},"":{"ha":989,"x_min":18,"x_max":913,"o":"m 588 500 q 591 425 588 467 q 602 340 594 383 q 621 254 610 296 q 647 180 632 213 q 681 127 663 147 q 722 107 700 107 q 776 134 763 107 q 789 197 789 161 q 787 243 789 221 q 785 285 785 265 q 783 349 785 317 q 778 417 781 382 q 773 513 774 465 q 769 600 772 560 q 766 628 768 614 q 764 654 764 642 q 767 676 764 665 q 781 696 769 686 q 817 701 796 701 q 867 690 843 701 q 901 656 892 679 q 904 640 904 647 q 899 603 904 624 q 894 564 894 582 l 894 556 q 903 415 894 494 q 913 257 913 336 q 908 149 913 197 q 884 66 903 100 q 830 13 865 32 q 733 -6 794 -6 q 700 -3 718 -6 q 665 9 682 -1 q 631 43 647 19 q 603 110 615 67 l 599 125 q 597 118 597 122 q 597 116 597 117 q 596 114 596 115 q 594 106 594 110 l 594 92 q 595 81 594 85 q 596 64 596 76 q 594 47 596 53 q 567 12 588 24 q 518 0 546 0 q 495 3 501 0 q 476 17 489 7 l 476 299 q 463 458 476 383 q 415 582 450 533 q 388 590 404 586 q 352 595 371 593 q 315 598 333 597 q 285 599 297 599 q 199 589 238 599 q 206 566 199 574 q 217 544 214 558 q 215 475 215 513 q 215 397 215 438 q 215 336 215 367 q 217 274 215 306 l 217 233 q 217 173 217 210 q 218 113 217 136 q 240 122 222 115 q 265 129 258 128 l 278 129 q 330 119 314 129 q 346 79 346 108 l 346 72 q 327 47 343 58 q 290 26 311 35 q 247 13 268 18 q 213 6 225 7 q 177 1 201 3 q 142 0 153 0 q 113 6 126 0 q 89 24 100 11 q 93 153 92 89 q 94 285 94 218 q 93 387 94 336 q 86 490 92 438 q 65 495 75 493 q 44 501 54 497 q 28 510 35 504 q 18 528 21 517 l 18 533 q 33 572 18 549 q 69 619 49 596 q 109 660 89 642 q 140 682 129 678 q 210 697 168 692 q 297 701 253 701 q 363 699 328 701 q 429 692 397 697 q 486 678 461 686 q 522 661 511 671 q 542 633 531 653 q 564 588 554 613 q 581 540 574 564 q 588 500 588 517 z "},"":{"ha":988,"x_min":18,"x_max":906,"o":"m 476 424 q 469 486 472 465 q 459 520 465 507 q 442 545 453 533 q 415 582 432 557 q 388 590 404 586 q 352 595 371 593 q 315 598 333 597 q 285 599 297 599 q 199 589 238 599 q 206 566 199 574 q 217 544 214 558 q 215 475 215 513 q 215 397 215 438 q 215 336 215 367 q 217 274 215 306 l 217 233 q 217 173 217 210 q 218 113 217 136 q 240 122 222 115 q 265 129 258 128 l 278 129 q 330 119 314 129 q 346 79 346 108 l 346 72 q 327 47 343 58 q 290 26 311 35 q 247 13 268 18 q 213 6 225 7 q 177 1 201 3 q 142 0 153 0 q 113 6 126 0 q 89 24 100 11 q 93 153 92 89 q 94 285 94 218 q 93 387 94 336 q 86 490 92 438 q 65 495 75 493 q 44 501 54 497 q 28 510 35 504 q 18 528 21 517 l 18 533 q 33 572 18 549 q 69 619 49 596 q 109 660 89 642 q 140 682 129 678 q 210 697 168 692 q 297 701 253 701 q 363 699 328 701 q 429 692 397 697 q 486 678 461 686 q 522 661 511 671 q 542 633 531 653 q 564 588 554 613 q 581 540 574 564 q 588 500 588 517 q 590 403 588 451 q 605 317 592 356 q 645 256 618 279 q 722 232 672 232 q 765 250 750 232 q 781 287 776 265 q 785 331 785 308 q 781 383 785 358 q 778 419 778 408 q 775 511 778 460 q 769 600 772 563 q 766 628 768 614 q 764 654 764 642 q 767 676 764 665 q 781 696 769 686 q 817 701 796 701 q 867 690 843 701 q 901 656 892 679 q 904 640 904 647 q 905 603 904 624 q 906 564 906 582 l 906 556 q 905 509 906 525 q 904 478 904 493 q 903 442 904 463 q 903 382 903 421 q 904 333 903 356 q 906 288 906 310 q 906 267 906 276 q 903 247 906 257 q 906 222 906 233 q 906 197 906 210 q 890 88 906 139 q 843 -1 874 36 q 769 -60 813 -39 q 669 -82 725 -82 q 624 -78 646 -82 q 590 -71 611 -76 q 547 -57 568 -65 q 508 -37 525 -49 q 490 -11 492 -25 l 490 -4 q 520 44 490 25 q 586 63 550 63 l 599 63 q 626 56 615 61 q 646 44 638 50 q 663 35 654 39 q 685 31 672 31 q 693 31 689 31 q 703 33 697 32 q 735 60 722 38 q 754 119 747 83 l 733 119 q 701 122 722 119 q 651 131 679 124 q 595 149 624 138 q 543 181 567 161 q 504 228 519 200 q 489 294 489 256 l 476 424 z "},"":{"ha":711,"x_min":21,"x_max":650,"o":"m 213 -208 q 167 -204 189 -208 q 140 -182 146 -200 l 140 -175 q 140 -162 140 -168 q 139 -150 139 -157 q 151 -113 139 -126 q 190 -97 163 -100 l 203 -101 l 392 -101 q 455 -110 425 -101 q 511 -139 485 -118 q 509 -36 510 -99 q 506 99 508 26 q 499 247 503 171 q 487 389 494 322 q 467 507 479 456 q 439 582 456 558 q 411 590 428 586 q 376 595 394 593 q 339 598 357 597 q 308 599 321 599 q 222 589 261 599 q 230 566 222 574 q 240 544 238 558 q 239 475 239 513 q 239 397 239 438 q 240 336 239 367 q 240 274 240 306 l 240 61 q 238 27 240 39 q 231 10 235 15 q 222 3 226 4 q 211 1 217 1 q 184 1 197 1 q 149 0 171 0 q 124 0 138 0 q 94 1 111 0 q 49 6 71 1 q 22 28 28 10 l 22 35 q 22 47 22 42 q 21 60 21 53 q 29 100 21 83 q 65 119 38 117 l 78 121 l 115 111 q 117 197 117 154 q 118 285 118 240 q 117 387 118 336 q 110 490 115 438 q 88 495 99 493 q 68 501 78 497 q 51 510 58 504 q 42 528 44 517 l 42 533 q 57 572 42 549 q 92 619 72 596 q 133 660 113 642 q 164 682 153 678 q 234 697 192 692 q 321 701 276 701 q 386 699 351 701 q 453 692 421 697 q 510 678 485 686 q 546 661 535 671 q 565 632 554 653 q 584 588 575 611 q 600 540 593 564 q 611 500 607 517 q 624 401 621 456 q 628 290 628 347 q 630 197 628 263 q 635 60 632 132 q 641 -72 639 -11 q 643 -153 643 -133 q 642 -164 643 -158 q 642 -175 642 -169 q 644 -183 642 -181 q 649 -189 646 -186 q 650 -203 650 -193 q 641 -232 650 -218 q 619 -256 632 -246 q 589 -272 606 -267 q 558 -278 572 -278 q 503 -266 531 -278 q 451 -241 475 -254 q 405 -216 426 -228 q 368 -204 383 -204 q 342 -204 365 -204 q 290 -205 318 -204 q 238 -206 263 -206 q 213 -208 214 -207 z "},"":{"ha":711,"x_min":21,"x_max":650,"o":"m 189 -278 q 163 -276 176 -278 q 135 -272 149 -275 q 112 -265 122 -269 q 99 -253 101 -260 l 99 -246 q 98 -233 99 -239 q 97 -221 97 -228 q 109 -183 97 -197 q 149 -165 121 -168 l 169 -175 q 214 -160 185 -175 q 272 -128 243 -146 q 325 -95 301 -110 q 354 -81 349 -81 q 380 -87 360 -81 q 425 -103 400 -94 q 474 -123 450 -112 q 511 -139 499 -133 q 509 -36 510 -99 q 506 99 508 26 q 499 247 503 171 q 487 389 494 322 q 467 507 479 456 q 439 582 456 558 q 411 590 428 586 q 376 595 394 593 q 339 598 357 597 q 308 599 321 599 q 222 589 261 599 q 230 566 222 574 q 240 544 238 558 q 239 475 239 513 q 239 397 239 438 q 240 336 239 367 q 240 274 240 306 l 240 61 q 238 27 240 39 q 231 10 235 15 q 222 3 226 4 q 211 1 217 1 q 184 1 197 1 q 149 0 171 0 q 124 0 138 0 q 94 1 111 0 q 49 6 71 1 q 22 28 28 10 l 22 35 q 22 47 22 42 q 21 60 21 53 q 29 100 21 83 q 65 119 38 117 l 78 121 l 115 111 q 117 197 117 154 q 118 285 118 240 q 117 387 118 336 q 110 490 115 438 q 88 495 99 493 q 68 501 78 497 q 51 510 58 504 q 42 528 44 517 l 42 533 q 57 572 42 549 q 92 619 72 596 q 133 660 113 642 q 164 682 153 678 q 234 697 192 692 q 321 701 276 701 q 386 699 351 701 q 453 692 421 697 q 510 678 485 686 q 546 661 535 671 q 565 632 554 653 q 584 588 575 611 q 600 540 593 564 q 611 500 607 517 q 624 401 621 456 q 628 290 628 347 q 630 197 628 263 q 635 60 632 132 q 641 -72 639 -11 q 643 -153 643 -133 q 642 -164 643 -158 q 642 -175 642 -169 q 644 -183 642 -181 q 649 -189 646 -186 q 650 -203 650 -193 q 641 -232 650 -218 q 619 -256 632 -246 q 589 -272 606 -267 q 558 -278 572 -278 q 501 -266 531 -278 q 447 -241 472 -254 q 398 -216 421 -228 q 360 -204 375 -204 q 325 -228 347 -215 q 278 -251 303 -240 q 229 -270 253 -262 q 189 -278 206 -278 z "},"":{"ha":624,"x_min":3,"x_max":585,"o":"m 557 -176 q 559 -185 557 -182 q 564 -190 561 -187 q 565 -204 565 -194 q 556 -233 565 -219 q 534 -258 547 -247 q 504 -274 521 -268 q 474 -279 488 -279 q 417 -267 446 -279 q 362 -242 388 -256 q 313 -217 336 -229 q 275 -206 290 -206 q 249 -229 263 -217 q 220 -253 235 -242 q 190 -272 206 -264 q 158 -279 175 -279 q 132 -278 146 -279 q 105 -274 118 -276 q 81 -266 92 -271 q 68 -254 71 -261 l 68 -247 q 67 -235 68 -240 q 67 -222 67 -229 q 78 -184 67 -199 q 118 -167 90 -169 l 139 -176 q 175 -162 154 -176 q 215 -129 196 -147 q 249 -97 233 -111 q 269 -82 264 -82 q 295 -89 275 -82 q 340 -105 315 -96 q 390 -123 365 -114 q 426 -136 414 -132 q 442 -91 426 -110 q 475 -71 457 -72 l 483 -71 q 528 -75 507 -71 q 557 -100 549 -79 q 558 -109 557 -101 q 558 -126 558 -117 q 558 -144 558 -136 q 558 -154 558 -153 q 558 -165 558 -160 q 557 -176 557 -171 m 583 760 q 585 750 585 757 q 578 728 585 739 q 563 708 571 718 q 544 688 554 699 q 535 677 538 681 q 530 672 532 674 q 525 666 528 669 q 515 657 522 663 q 483 636 503 644 q 518 596 507 618 q 532 547 528 576 q 543 489 536 517 q 555 424 551 457 q 558 357 558 390 q 542 222 558 288 q 492 97 525 156 q 467 63 482 81 q 435 31 451 46 q 403 5 419 15 q 375 -10 388 -6 q 331 -17 347 -17 q 286 -6 304 -17 q 255 23 268 6 q 231 63 242 40 q 210 108 221 85 q 184 168 194 138 q 163 229 174 199 q 108 238 132 232 q 82 265 85 243 l 82 276 q 113 337 82 318 q 185 356 144 356 q 241 347 214 356 q 283 321 268 338 q 308 226 289 271 q 347 139 326 182 l 353 126 q 406 220 385 167 q 428 350 428 274 q 428 367 428 358 q 426 386 428 376 q 417 463 424 422 q 397 529 410 503 q 340 585 381 561 q 247 608 300 608 q 239 608 243 608 q 229 607 235 607 q 188 594 207 604 q 149 574 168 585 q 108 556 129 564 q 63 547 88 547 l 53 547 q 17 562 31 550 q 3 592 3 574 q 24 632 3 611 q 79 667 42 649 q 149 694 117 685 q 205 705 175 701 q 264 708 235 708 q 291 708 278 708 q 317 706 304 707 q 333 703 325 704 q 350 700 342 703 q 396 722 375 707 q 418 744 410 733 q 435 765 426 756 q 453 784 443 775 q 478 801 463 793 q 501 806 486 806 q 558 790 531 806 q 583 760 579 776 z "},"":{"ha":696,"x_min":0,"x_max":621,"o":"m 603 140 q 608 101 603 122 q 613 64 613 81 q 610 49 613 57 q 576 14 600 25 q 525 3 551 3 q 489 8 504 3 q 475 28 478 18 q 472 50 472 39 q 474 76 472 63 q 478 104 476 90 q 481 192 481 144 q 486 288 482 239 q 491 355 489 322 q 493 419 493 388 q 484 512 493 469 q 449 588 475 554 q 413 595 435 593 q 379 597 390 597 q 344 589 360 597 q 315 561 329 581 q 285 511 300 542 q 251 435 269 481 q 229 352 238 393 q 221 271 221 311 q 224 227 221 257 q 229 164 226 197 q 235 101 232 131 q 238 61 238 72 q 236 44 238 50 q 204 9 229 21 q 151 -3 179 -3 q 118 1 135 -3 q 89 15 101 6 l 89 115 q 88 206 89 169 q 88 276 88 243 q 96 363 88 318 q 122 437 103 401 q 156 508 140 472 q 158 524 156 513 q 51 565 97 533 q 0 661 6 596 q 67 700 22 700 q 96 694 83 700 q 110 681 106 692 q 120 660 115 671 q 131 642 125 650 q 147 633 136 633 q 183 676 165 653 q 233 699 201 699 q 244 699 239 699 q 257 696 250 699 q 278 678 268 693 q 294 643 288 663 q 323 675 304 663 q 363 695 342 688 q 406 706 385 703 q 440 710 426 710 q 476 706 467 710 q 504 697 486 703 q 562 662 539 686 q 598 604 585 638 q 616 531 611 571 q 621 447 621 490 q 612 289 621 368 q 603 149 603 210 l 603 140 z "},"":{"ha":1076,"x_min":76,"x_max":999,"o":"m 554 451 q 545 545 554 503 q 508 607 536 588 q 446 567 471 589 q 400 544 421 544 q 364 556 383 546 q 324 578 344 567 q 285 600 304 590 q 251 610 267 610 q 235 607 240 610 q 213 570 221 601 q 206 499 206 539 q 207 453 206 476 q 210 411 208 431 q 213 376 211 392 q 218 354 215 361 q 224 329 222 339 q 228 312 226 319 q 231 297 229 304 q 236 281 233 290 q 269 315 256 292 q 283 361 283 338 l 283 368 q 286 417 283 400 q 306 453 289 433 q 328 467 314 463 q 358 472 343 472 q 419 453 393 472 q 422 432 421 442 q 422 413 422 422 q 403 343 422 378 q 363 275 385 308 q 320 209 340 242 q 299 144 300 176 l 299 138 q 299 115 299 126 q 300 92 300 103 q 298 63 300 76 q 289 35 296 50 q 253 10 275 21 q 208 0 232 0 q 168 10 186 0 q 143 86 156 49 q 119 165 131 124 q 99 251 108 206 q 86 350 90 296 q 85 355 86 353 q 85 360 85 357 q 79 431 82 393 q 76 504 76 468 q 82 560 76 533 q 96 610 88 588 q 164 685 113 658 q 275 713 215 713 q 341 703 308 713 q 400 672 374 693 q 459 705 428 694 q 521 715 490 715 q 608 692 568 715 q 665 628 649 668 q 674 596 672 614 q 675 557 675 578 q 674 528 675 538 q 674 500 674 519 q 677 425 674 467 q 688 340 681 383 q 707 254 696 296 q 733 180 718 213 q 767 127 749 147 q 808 107 786 107 q 862 134 849 107 q 875 197 875 161 q 873 243 875 221 q 871 285 871 265 q 869 349 871 317 q 864 417 867 382 q 859 513 860 465 q 856 600 858 560 q 852 628 854 614 q 850 654 850 642 q 853 676 850 665 q 867 696 856 686 q 903 701 882 701 q 953 690 929 701 q 988 656 978 679 q 990 640 990 647 q 985 603 990 624 q 981 564 981 582 l 981 556 q 990 415 981 494 q 999 257 999 336 q 994 149 999 197 q 970 66 989 100 q 916 13 951 32 q 819 -6 881 -6 q 786 -3 804 -6 q 751 9 768 -1 q 717 43 733 19 q 689 110 701 67 l 685 125 q 683 118 683 122 q 683 116 683 117 q 682 114 682 115 q 681 106 681 110 l 681 92 q 681 81 681 85 q 682 64 682 76 q 681 47 682 53 q 653 12 674 24 q 604 0 632 0 q 581 3 588 0 q 563 17 575 7 l 554 451 z "},"":{"ha":1015,"x_min":18,"x_max":933,"o":"m 588 500 q 588 472 588 494 q 590 417 589 449 q 594 351 592 386 q 597 284 596 315 q 599 228 599 253 q 600 197 600 204 q 613 134 600 161 q 667 107 626 107 q 726 140 700 107 q 769 233 751 174 q 794 376 786 293 q 803 556 803 458 l 803 564 q 798 603 803 582 q 793 640 793 624 q 796 656 793 647 q 830 690 806 679 q 881 701 854 701 q 917 696 901 701 q 931 676 928 686 q 933 654 933 665 q 931 628 933 642 q 928 600 929 614 q 924 519 925 560 q 919 431 924 479 q 915 350 915 389 q 915 324 915 336 q 918 299 915 311 l 918 17 q 899 3 906 7 q 876 0 893 0 q 828 12 849 0 q 800 47 807 24 q 799 64 799 53 q 797 94 799 76 q 790 125 796 113 l 786 110 q 758 43 774 67 q 724 9 742 19 q 689 -3 707 -1 q 656 -6 671 -6 q 559 19 594 -6 q 505 87 524 44 q 481 184 486 129 q 476 299 476 239 q 463 458 476 383 q 415 582 450 533 q 388 590 404 586 q 352 595 371 593 q 315 598 333 597 q 285 599 297 599 q 199 589 238 599 q 206 566 199 574 q 217 544 214 558 q 215 475 215 513 q 215 397 215 438 q 215 336 215 367 q 217 274 215 306 l 217 233 q 217 173 217 210 q 218 113 217 136 q 240 122 222 115 q 265 129 258 128 l 278 129 q 330 119 314 129 q 346 79 346 108 l 346 72 q 327 47 343 58 q 290 26 311 35 q 247 13 268 18 q 213 6 225 7 q 177 1 201 3 q 142 0 153 0 q 113 6 126 0 q 89 24 100 11 q 93 153 92 89 q 94 285 94 218 q 93 387 94 336 q 86 490 92 438 q 65 495 75 493 q 44 501 54 497 q 28 510 35 504 q 18 528 21 517 l 18 533 q 33 572 18 549 q 69 619 49 596 q 109 660 89 642 q 140 682 129 678 q 210 697 168 692 q 297 701 253 701 q 363 699 328 701 q 429 692 397 697 q 486 678 461 686 q 522 661 511 671 q 542 633 531 653 q 564 588 554 613 q 581 540 574 564 q 588 500 588 517 z "},"":{"ha":746,"x_min":51,"x_max":658,"o":"m 519 22 q 518 113 518 67 q 518 206 518 158 q 519 322 518 279 q 519 385 519 364 q 519 414 519 407 q 519 425 519 421 q 514 486 519 454 q 495 544 508 518 q 459 588 482 571 q 401 606 436 606 q 238 565 296 606 q 175 425 179 525 l 175 419 q 181 352 175 386 q 198 287 188 318 q 222 228 208 256 q 250 182 235 201 q 276 280 265 229 q 290 393 288 331 q 328 418 301 406 q 381 431 354 431 q 419 413 407 431 q 422 397 422 407 l 422 390 q 418 351 422 374 q 409 305 414 329 q 399 259 404 281 q 390 224 393 238 q 383 179 388 208 q 372 120 378 150 q 360 66 367 90 q 349 33 354 42 q 316 7 339 18 q 267 -4 293 -4 q 251 -4 257 -4 q 239 -1 246 -4 q 216 11 228 1 q 193 32 204 21 q 173 53 182 43 q 160 71 164 64 q 117 138 136 100 q 83 218 97 175 q 60 307 68 261 q 51 399 51 353 l 51 408 q 84 545 56 489 q 160 636 113 601 q 271 686 207 671 q 410 701 335 701 q 482 693 443 701 q 555 667 521 685 q 615 622 589 649 q 649 558 640 596 q 653 519 653 539 q 654 476 654 500 q 653 311 654 376 q 653 203 653 246 q 656 131 653 160 q 658 74 658 101 q 636 22 657 44 q 583 0 615 0 q 519 22 551 0 z "},"":{"ha":764,"x_min":69,"x_max":694,"o":"m 678 10 q 640 -5 660 3 q 601 -12 621 -12 q 564 -1 579 -12 q 551 35 551 13 q 552 51 551 42 q 553 68 553 60 q 547 174 551 118 q 542 289 542 231 l 542 303 q 544 374 542 335 q 547 451 547 413 q 538 545 547 503 q 501 607 529 588 q 439 567 464 589 q 393 544 414 544 q 357 556 376 546 q 317 578 338 567 q 278 600 297 590 q 244 610 260 610 q 228 607 233 610 q 206 570 214 601 q 199 499 199 539 q 200 453 199 476 q 203 411 201 431 q 206 376 204 392 q 211 354 208 361 q 217 329 215 339 q 221 312 219 319 q 224 297 222 304 q 229 281 226 290 q 263 315 249 292 q 276 361 276 338 l 276 368 q 279 417 276 400 q 299 453 282 433 q 322 467 307 463 q 351 472 336 472 q 413 453 386 472 q 415 432 414 442 q 415 413 415 422 q 397 343 415 378 q 356 275 378 308 q 313 209 333 242 q 292 144 293 176 l 292 138 q 292 115 292 126 q 293 92 293 103 q 291 63 293 76 q 282 35 289 50 q 247 10 268 21 q 201 0 225 0 q 161 10 179 0 q 136 86 149 49 q 113 165 124 124 q 92 251 101 206 q 79 350 83 296 q 78 355 79 353 q 78 360 78 357 q 72 431 75 393 q 69 504 69 468 q 75 560 69 533 q 89 610 81 588 q 157 685 106 658 q 268 713 208 713 q 334 703 301 713 q 393 672 367 693 q 452 705 421 694 q 514 715 483 715 q 601 692 561 715 q 658 628 642 668 q 667 596 665 614 q 668 557 668 578 q 667 519 668 538 q 667 482 667 501 l 667 464 q 669 296 669 383 q 678 138 668 208 q 688 93 681 114 q 694 53 694 72 q 678 10 694 28 z "},"":{"ha":696,"x_min":18,"x_max":626,"o":"m 625 82 q 626 68 626 78 q 617 39 626 53 q 595 15 608 25 q 565 -1 582 4 q 535 -7 549 -7 q 508 0 519 -7 q 494 21 497 7 q 490 51 490 35 l 490 100 q 490 119 490 110 q 489 140 489 129 q 485 265 488 201 q 476 386 483 328 q 454 495 468 444 q 415 582 440 546 q 388 590 404 586 q 352 595 371 593 q 315 598 333 597 q 285 599 297 599 q 199 589 238 599 q 206 566 199 574 q 217 544 214 558 q 215 475 215 513 q 215 397 215 438 q 215 336 215 367 q 217 274 215 306 l 217 233 q 217 173 217 210 q 218 113 217 136 q 240 122 222 115 q 265 129 258 128 l 278 129 q 330 119 314 129 q 346 79 346 108 l 346 72 q 327 47 343 58 q 290 26 311 35 q 247 13 268 18 q 213 6 225 7 q 177 1 201 3 q 142 0 153 0 q 113 6 126 0 q 89 24 100 11 q 93 153 92 89 q 94 285 94 218 q 93 387 94 336 q 86 490 92 438 q 65 495 75 493 q 44 501 54 497 q 28 510 35 504 q 18 528 21 517 l 18 533 q 33 572 18 549 q 69 619 49 596 q 109 660 89 642 q 140 682 129 678 q 210 697 168 692 q 297 701 253 701 q 363 699 328 701 q 429 692 397 697 q 486 678 461 686 q 522 661 511 671 q 541 632 531 653 q 560 588 551 611 q 576 540 569 564 q 588 500 583 517 q 601 401 597 456 q 604 290 604 347 q 612 196 604 235 q 619 118 619 157 q 619 107 619 113 q 618 96 618 101 q 620 88 618 90 q 625 82 622 85 z "},"":{"ha":719,"x_min":35,"x_max":642,"o":"m 510 6 q 496 26 499 15 q 493 47 493 36 q 495 74 493 60 q 499 101 497 88 q 502 189 501 142 q 507 285 503 236 q 512 352 510 319 q 514 417 514 385 q 505 509 514 467 q 469 585 496 551 q 422 594 444 594 q 361 567 383 594 q 324 497 339 539 q 301 426 313 467 q 279 340 289 385 q 263 249 269 294 q 257 167 257 204 q 263 110 257 139 q 269 58 269 81 q 268 42 269 47 q 236 6 261 18 q 183 -6 211 -6 q 150 -1 167 -6 q 121 13 133 3 q 119 286 121 142 q 114 581 117 431 q 92 582 107 582 q 83 582 85 582 q 80 581 81 582 q 77 581 79 581 q 69 581 75 581 q 45 592 50 581 q 38 624 40 604 q 37 627 38 626 q 36 631 36 628 q 35 637 36 633 q 35 643 35 640 q 45 689 35 682 q 88 696 56 696 l 94 696 q 123 695 110 696 q 147 694 136 694 q 195 682 176 694 q 224 650 214 669 q 239 604 235 631 q 243 551 243 578 q 243 533 243 542 q 242 515 243 524 l 246 531 q 260 578 253 554 q 274 624 267 603 q 290 659 282 644 q 306 678 297 674 q 366 700 332 693 q 433 707 400 707 q 483 703 460 707 q 525 694 507 700 q 583 659 560 683 q 619 601 606 635 q 637 528 632 568 q 642 444 642 488 q 633 286 642 365 q 624 146 624 207 l 624 138 q 628 99 624 119 q 633 61 633 78 q 631 46 633 54 q 597 11 621 22 q 546 0 572 0 q 510 6 525 0 z "},"":{"ha":650,"x_min":81,"x_max":581,"o":"m 90 267 q 92 281 90 276 q 118 315 97 303 q 164 328 139 328 q 197 322 181 328 q 222 301 213 315 q 219 247 222 271 q 217 203 217 224 q 226 147 217 168 q 254 116 236 126 q 297 103 272 106 q 350 100 321 100 q 389 104 371 100 q 419 118 407 108 q 444 157 439 133 q 451 214 449 181 q 452 220 451 217 q 453 226 453 224 q 423 299 444 269 q 371 350 401 329 q 315 373 346 367 q 251 381 283 379 q 188 387 219 383 q 133 401 157 390 q 95 437 110 413 q 81 506 81 461 q 81 535 81 521 q 83 565 81 550 q 95 626 88 604 q 126 668 103 649 q 164 683 136 676 q 225 694 192 689 q 291 704 258 700 q 343 711 324 708 q 358 713 350 713 q 374 713 365 713 q 432 708 400 713 q 493 696 464 704 q 542 676 522 688 q 565 650 563 664 q 567 633 567 644 q 558 602 567 614 q 534 584 549 590 q 501 575 519 578 q 467 571 483 572 q 443 581 458 575 q 410 593 428 588 q 376 602 393 599 q 346 606 358 606 q 324 606 342 606 q 285 605 306 606 q 247 603 264 604 q 225 600 229 601 q 210 565 218 579 q 201 525 201 550 q 221 497 201 507 q 266 483 240 488 q 319 476 292 478 q 361 475 346 475 q 435 459 399 475 q 501 415 471 443 q 551 351 531 388 q 576 271 572 314 q 578 260 578 265 q 578 251 578 256 q 579 197 578 219 q 581 154 581 174 q 574 97 581 122 q 543 35 567 71 q 493 12 524 21 q 426 -3 463 3 q 353 -10 390 -8 q 288 -12 317 -12 q 176 4 214 -12 q 122 53 139 21 q 102 133 106 86 q 92 240 99 179 q 90 253 90 253 q 90 267 90 253 z "},"":{"ha":721,"x_min":21,"x_max":633,"o":"m 493 563 q 496 588 496 576 q 494 615 496 601 q 493 640 493 629 q 496 656 493 647 q 530 690 506 679 q 581 701 554 701 q 617 696 601 701 q 631 676 628 686 q 633 654 633 665 q 631 628 633 642 q 628 600 629 614 q 626 567 626 585 q 625 532 625 550 q 626 475 625 504 q 631 417 628 446 l 631 17 q 612 3 618 7 q 589 0 606 0 q 540 11 561 0 q 513 46 519 22 q 511 63 511 51 q 512 96 511 75 q 513 124 513 117 q 512 131 513 126 q 511 138 511 135 l 511 146 q 510 148 511 147 q 510 150 510 149 q 508 157 510 154 q 438 32 486 69 q 306 -6 389 -6 q 256 -2 279 -6 q 214 7 232 1 q 156 42 178 18 q 120 100 133 67 q 102 174 107 133 q 97 257 97 214 q 100 330 97 293 q 106 403 103 367 l 110 472 q 110 482 110 478 q 111 492 111 486 q 108 539 111 515 q 99 579 104 563 q 76 583 88 582 q 53 588 64 585 q 35 597 43 592 q 24 614 28 603 q 21 626 21 622 q 33 661 21 644 q 58 686 44 678 q 110 697 81 697 q 173 687 142 697 q 215 665 204 676 q 228 642 222 657 q 239 610 235 628 q 246 572 243 592 q 249 535 249 553 q 243 483 247 518 q 235 408 239 447 q 228 335 231 369 q 225 285 225 300 q 234 192 225 235 q 269 117 243 150 q 317 107 294 107 q 381 129 353 107 q 428 188 408 151 q 461 271 449 225 q 481 364 474 317 q 492 455 489 411 q 494 532 494 499 l 493 563 z "},"":{"ha":731,"x_min":28,"x_max":639,"o":"m 106 579 q 83 583 94 582 q 60 588 71 585 q 42 597 50 592 q 31 614 35 603 q 28 626 28 622 q 40 661 28 644 q 65 686 51 678 q 117 697 88 697 q 180 687 149 697 q 222 665 211 676 q 240 617 236 650 q 244 549 244 585 q 244 505 244 525 q 243 469 243 485 l 243 443 q 242 386 243 410 q 242 332 242 363 q 251 219 242 272 q 292 118 260 167 q 336 105 311 110 q 386 100 361 100 q 425 104 407 100 q 456 118 443 108 q 476 147 467 126 q 492 191 485 167 q 505 241 500 215 q 511 286 510 267 q 513 297 511 292 q 515 312 514 303 q 516 335 515 321 q 517 372 517 349 q 517 419 517 392 q 514 483 517 446 q 507 563 511 519 q 503 633 503 606 q 504 647 503 643 q 531 682 510 669 q 576 694 551 694 q 609 688 593 694 q 635 668 625 682 q 638 579 638 606 q 639 535 639 553 q 639 512 639 524 q 638 481 639 500 q 638 434 638 463 q 638 361 638 406 l 638 338 q 627 174 638 256 q 579 35 617 92 q 531 12 560 21 q 468 -3 501 3 q 400 -10 435 -8 q 336 -12 365 -12 q 243 1 283 -12 q 192 38 214 11 q 154 99 169 64 q 129 174 139 133 q 115 251 119 214 q 113 276 114 264 q 113 303 113 289 q 116 386 113 347 q 119 469 119 425 q 117 526 119 499 q 106 579 114 554 z "},"":{"ha":729,"x_min":28,"x_max":638,"o":"m 106 579 q 83 583 94 582 q 60 588 71 585 q 42 597 50 592 q 31 614 35 603 q 28 626 28 622 q 40 661 28 644 q 65 686 51 678 q 117 697 88 697 q 180 687 149 697 q 222 665 211 676 q 240 617 236 650 q 244 549 244 585 q 244 505 244 525 q 243 469 243 485 l 243 443 q 242 386 243 410 q 242 332 242 363 q 251 219 242 272 q 292 118 260 167 q 336 105 311 110 q 386 100 361 100 q 425 104 407 100 q 456 118 443 108 q 476 147 467 126 q 492 191 485 167 q 505 241 500 215 q 511 286 510 267 q 513 310 513 299 q 513 335 513 322 q 503 476 513 407 q 493 631 494 544 q 494 669 493 650 q 494 710 494 689 q 493 758 494 733 q 488 806 492 782 q 483 851 483 826 q 482 900 482 876 l 482 956 q 483 969 482 965 q 510 1004 489 992 q 556 1017 531 1017 q 588 1010 572 1017 q 614 990 604 1004 q 635 702 632 856 q 638 393 638 549 l 638 338 q 627 174 638 256 q 579 35 617 92 q 531 12 560 21 q 468 -3 501 3 q 400 -10 435 -8 q 336 -12 365 -12 q 243 1 283 -12 q 192 38 214 11 q 154 99 169 64 q 129 174 139 133 q 115 251 119 214 q 113 276 114 264 q 113 303 113 289 q 116 386 113 347 q 119 469 119 425 q 117 526 119 499 q 106 579 114 554 z "},"":{"ha":757,"x_min":82,"x_max":694,"o":"m 211 525 q 217 390 211 454 q 224 253 224 326 l 224 226 q 256 280 243 243 q 281 347 269 317 q 318 411 294 381 q 379 442 342 442 q 411 435 393 442 q 448 406 431 428 q 481 357 465 383 q 513 306 497 331 q 544 267 529 281 q 547 301 546 283 q 547 338 547 319 q 546 401 547 371 q 542 461 544 431 q 539 524 540 492 q 538 596 538 557 l 538 626 q 538 638 538 633 q 540 650 539 643 q 567 689 547 676 q 614 701 586 701 q 661 690 642 701 l 661 661 q 664 558 661 603 q 671 472 667 514 q 678 384 675 431 q 681 274 681 338 q 680 226 681 250 q 679 179 679 203 q 682 130 679 153 q 694 92 685 107 l 694 86 q 685 46 694 63 q 662 19 676 29 q 628 3 647 8 q 592 -1 610 -1 q 579 -1 585 -1 q 568 0 574 -1 q 467 133 511 63 q 372 271 424 204 q 323 197 344 242 q 277 110 301 153 q 222 36 253 67 q 144 6 192 6 q 97 14 122 6 q 90 40 92 26 q 89 67 89 53 q 91 111 89 89 q 94 157 93 133 l 94 178 q 93 253 94 213 q 89 325 92 293 q 86 391 86 361 q 86 450 86 421 q 85 510 86 479 q 82 578 85 542 q 85 629 82 603 q 104 674 89 656 q 147 695 115 685 q 210 706 178 706 q 261 694 239 706 q 287 669 275 686 q 299 635 299 653 q 296 622 299 631 q 283 606 292 611 q 265 597 275 600 q 243 592 254 593 q 221 588 232 590 l 213 581 q 211 568 211 574 q 211 557 211 563 l 211 538 l 211 525 z "},"":{"ha":767,"x_min":88,"x_max":697,"o":"m 88 578 q 91 629 88 603 q 110 674 94 656 q 152 695 121 685 q 215 706 183 706 q 267 694 244 706 q 292 669 281 686 q 304 635 304 653 q 301 622 304 631 q 289 606 297 611 q 270 597 281 600 q 249 592 260 593 q 226 588 238 590 l 218 581 q 215 547 215 563 q 214 515 215 531 q 216 448 214 479 q 220 386 218 417 q 224 323 222 356 q 226 253 226 290 l 226 226 q 259 280 246 243 q 283 347 272 317 q 321 411 297 381 q 382 442 344 442 q 414 435 396 442 q 451 406 433 428 q 484 357 468 383 q 516 306 500 331 q 547 267 532 281 q 549 301 549 283 q 550 338 550 319 q 549 401 550 371 q 545 461 547 431 q 542 524 543 492 q 540 596 540 557 l 540 696 q 540 740 540 721 q 540 776 540 758 q 538 813 539 794 q 536 854 538 831 q 526 910 533 881 q 519 967 519 939 q 520 978 519 974 q 522 990 521 983 q 553 1029 529 1017 q 606 1042 578 1042 q 653 1031 633 1042 q 664 958 661 996 q 667 879 667 919 q 665 803 667 842 q 664 726 664 764 l 664 697 q 667 589 664 639 q 674 490 669 539 q 681 390 678 442 q 683 274 683 338 q 683 226 683 250 q 682 179 682 203 q 685 130 682 153 q 697 92 688 107 l 697 86 q 688 46 697 63 q 665 19 679 29 q 631 3 650 8 q 594 -1 613 -1 q 582 -1 588 -1 q 571 0 576 -1 q 470 133 514 63 q 375 271 426 204 q 326 197 347 242 q 280 110 304 153 q 225 36 256 67 q 147 6 194 6 q 100 14 125 6 q 93 40 94 26 q 92 67 92 53 q 94 111 92 89 q 97 157 96 133 l 97 178 q 96 253 97 213 q 92 325 94 293 q 90 374 90 351 q 90 421 90 397 l 88 578 z "},"":{"ha":776,"x_min":35,"x_max":707,"o":"m 550 626 q 551 638 550 633 q 553 650 551 643 q 579 689 560 676 q 626 701 599 701 q 674 690 654 701 l 674 661 q 676 558 674 603 q 683 472 679 514 q 690 384 688 431 q 693 274 693 338 q 692 226 693 250 q 692 179 692 203 q 694 130 692 153 q 707 92 697 107 l 707 86 q 698 46 707 63 q 674 19 689 29 q 641 3 660 8 q 604 -1 622 -1 q 592 -1 597 -1 q 581 0 586 -1 q 531 65 553 31 q 488 133 508 99 q 445 203 467 168 q 399 271 424 238 q 351 197 371 242 q 310 110 332 153 q 260 36 289 67 q 185 6 232 6 q 138 14 163 6 q 131 40 132 26 q 129 67 129 53 q 131 111 129 89 q 135 157 133 133 l 135 178 q 133 253 135 213 q 129 325 132 293 q 126 390 126 360 q 126 451 126 421 q 126 512 126 481 q 121 581 125 543 l 113 588 q 90 592 101 590 q 69 597 79 593 q 50 606 58 600 q 38 622 42 611 q 35 635 35 631 q 47 669 35 653 q 72 694 58 686 q 124 706 94 706 q 187 695 156 706 q 229 674 218 685 q 248 629 244 656 q 251 578 251 603 l 251 532 q 258 394 251 458 q 264 253 264 329 l 264 226 q 294 280 282 243 q 317 347 306 317 q 331 381 324 364 q 349 411 339 397 q 373 433 360 425 q 406 442 386 442 q 438 435 419 442 q 472 406 457 428 q 501 357 488 383 q 528 306 514 331 q 557 267 542 281 q 559 301 558 283 q 560 338 560 319 q 558 401 560 371 q 555 461 557 431 q 551 524 553 492 q 550 596 550 557 l 550 626 z "},"":{"ha":776,"x_min":35,"x_max":707,"o":"m 707 86 q 698 46 707 63 q 674 19 689 29 q 641 3 660 8 q 604 -1 622 -1 q 592 -1 597 -1 q 581 0 586 -1 q 531 65 553 31 q 488 133 508 99 q 445 203 467 168 q 399 271 424 238 q 351 197 371 242 q 310 110 332 153 q 260 36 289 67 q 185 6 232 6 q 138 14 163 6 q 131 40 132 26 q 129 67 129 53 q 131 111 129 89 q 135 157 133 133 l 135 178 q 133 253 135 213 q 129 325 132 293 q 126 390 126 360 q 126 451 126 421 q 126 512 126 481 q 121 581 125 543 l 113 588 q 90 592 101 590 q 69 597 79 593 q 50 606 58 600 q 38 622 42 611 q 35 635 35 631 q 47 669 35 653 q 72 694 58 686 q 124 706 94 706 q 187 695 156 706 q 229 674 218 685 q 248 629 244 656 q 251 578 251 603 l 251 532 q 258 394 251 458 q 264 253 264 329 l 264 226 q 297 280 283 243 q 321 347 310 317 l 324 356 q 336 386 329 371 q 353 414 343 401 q 375 434 363 426 q 406 442 388 442 q 438 435 419 442 q 472 406 457 428 q 501 357 488 383 q 528 306 514 331 q 557 267 542 281 q 559 301 558 283 q 560 338 560 319 q 558 401 560 371 q 555 461 557 431 q 551 524 553 492 q 550 596 550 557 l 550 696 q 550 740 550 721 q 549 776 550 758 q 548 813 549 794 q 546 854 547 831 q 536 910 543 881 q 529 967 529 939 q 530 978 529 974 q 532 990 531 983 q 563 1029 539 1017 q 615 1042 588 1042 q 663 1031 643 1042 q 674 958 671 996 q 676 879 676 919 q 675 803 676 842 q 674 726 674 764 l 674 697 q 676 589 674 639 q 683 490 679 539 q 690 390 688 442 q 693 274 693 338 q 692 226 693 250 q 692 179 692 203 q 694 130 692 153 q 707 92 697 107 l 707 86 z "},"":{"ha":740,"x_min":42,"x_max":671,"o":"m 669 82 q 671 68 671 78 q 662 39 671 53 q 640 15 653 25 q 610 -1 626 4 q 579 -7 593 -7 q 553 0 564 -7 q 538 21 542 7 q 535 51 535 35 l 535 100 q 534 119 535 110 q 533 140 533 129 q 530 265 532 201 q 520 386 528 328 q 499 495 513 444 q 460 582 485 546 q 432 590 449 586 q 397 595 415 593 q 360 598 378 597 q 329 599 342 599 q 243 589 282 599 q 251 566 243 574 q 261 544 258 558 q 260 475 260 513 q 260 397 260 438 q 260 336 260 367 q 261 274 261 306 l 261 61 q 258 27 261 39 q 251 10 256 15 q 242 3 247 4 q 232 1 238 1 q 205 1 218 1 q 169 0 192 0 q 145 0 158 0 q 115 1 132 0 q 70 6 92 1 q 43 28 49 10 l 43 35 q 42 47 43 42 q 42 60 42 53 q 50 100 42 83 q 86 119 58 117 l 99 121 l 136 111 q 138 197 138 154 q 139 285 139 240 q 138 387 139 336 q 131 490 136 438 q 109 495 119 493 q 89 501 99 497 q 72 510 79 504 q 63 528 65 517 l 63 533 q 78 572 63 549 q 113 619 93 596 q 153 660 133 642 q 185 682 174 678 q 255 697 213 692 q 342 701 297 701 q 407 699 372 701 q 474 692 442 697 q 531 678 506 686 q 567 661 556 671 q 585 632 575 653 q 605 588 596 611 q 621 540 614 564 q 632 500 628 517 q 645 401 642 456 q 649 290 649 347 q 656 196 649 235 q 664 118 664 157 q 663 107 664 113 q 663 96 663 101 q 665 88 663 90 q 669 82 667 85 z "},"":{"ha":689,"x_min":7,"x_max":619,"o":"m 96 447 l 96 472 q 94 530 96 500 q 85 579 92 560 q 62 583 74 582 q 40 588 50 585 q 22 597 29 592 q 10 614 14 603 q 7 626 7 622 q 19 661 7 644 q 44 686 31 678 q 96 697 67 697 q 159 687 128 697 q 201 665 190 676 q 212 642 208 657 q 217 609 215 628 q 220 571 219 590 q 221 533 221 551 q 224 456 221 500 q 234 365 226 413 q 255 272 242 318 q 288 188 268 225 q 336 129 308 151 q 400 107 364 107 q 447 117 422 107 q 483 192 474 150 q 492 285 492 235 q 490 349 492 317 q 485 417 488 382 q 480 513 481 465 q 476 600 479 560 q 473 628 475 614 q 471 654 471 642 q 474 676 471 665 q 488 696 476 686 q 524 701 503 701 q 574 690 550 701 q 608 656 599 679 q 611 640 611 647 q 606 603 611 624 q 601 564 601 582 l 601 556 q 610 415 601 494 q 619 257 619 336 q 615 174 619 214 q 597 100 610 133 q 560 42 583 67 q 503 7 538 18 q 461 -2 485 1 q 411 -6 438 -6 q 338 1 369 -6 q 283 23 307 7 q 242 67 258 39 q 213 140 225 96 l 208 156 q 207 149 207 153 q 206 147 207 147 q 206 144 206 146 q 204 136 204 140 l 204 122 q 205 96 204 115 q 206 64 206 76 q 204 47 206 53 q 176 12 197 24 q 128 0 156 0 q 105 3 111 0 q 86 17 99 7 l 96 447 z "},"":{"ha":701,"x_min":56,"x_max":615,"o":"m 206 576 q 194 555 199 569 q 187 524 189 540 q 184 495 185 508 q 183 478 183 482 q 195 426 183 446 q 235 393 207 406 q 257 389 246 388 q 282 385 268 390 q 283 372 282 382 q 286 349 285 361 q 288 326 288 336 q 289 313 289 315 q 288 304 289 307 q 253 290 269 299 q 229 268 238 282 q 208 236 217 249 q 196 188 199 224 q 209 142 197 158 q 240 117 221 125 q 283 107 258 108 q 339 106 308 106 q 394 110 368 106 q 442 124 421 115 q 475 147 463 133 q 488 179 488 161 q 488 388 488 304 q 492 525 489 471 q 486 589 489 561 q 483 644 483 617 q 485 658 483 654 q 511 693 490 681 q 557 706 532 706 q 590 699 574 706 q 615 679 606 693 l 615 646 q 613 578 615 601 q 610 540 610 556 q 606 336 606 436 l 606 190 q 601 140 606 174 q 572 74 597 107 q 494 17 547 42 q 344 -7 442 -7 l 336 -7 q 207 11 258 -7 q 125 57 156 29 q 81 119 94 85 q 68 186 68 154 q 84 274 68 243 q 125 336 100 306 q 77 392 99 358 q 56 478 56 425 q 58 515 56 494 q 65 558 61 536 q 70 621 65 594 q 89 663 75 647 q 131 684 100 674 q 194 694 163 694 q 246 683 224 694 q 272 658 260 675 q 283 624 283 642 q 281 611 283 619 q 269 594 276 600 q 251 585 261 589 q 228 581 240 582 q 206 576 217 579 z "},"":{"ha":582,"x_min":43,"x_max":519,"o":"m 394 149 q 365 222 386 192 q 313 272 343 251 q 252 305 285 290 q 187 335 219 319 q 126 367 154 350 q 82 410 99 385 q 67 467 67 432 l 67 504 q 67 534 67 519 q 69 564 67 549 q 83 622 74 603 q 113 667 93 642 q 146 690 125 682 q 192 702 167 699 q 241 707 217 706 q 285 711 265 708 q 299 713 292 713 q 315 713 307 713 q 374 708 342 713 q 435 696 406 704 q 484 676 464 688 q 507 650 504 664 q 508 633 508 644 q 499 602 508 614 q 476 584 490 590 q 443 575 461 578 q 408 571 425 572 q 385 581 400 575 q 352 593 369 588 q 317 602 335 599 q 288 606 300 606 q 272 605 283 606 q 249 603 261 604 q 226 601 236 603 q 211 599 215 600 q 195 556 204 578 q 186 508 186 533 q 186 499 186 504 q 188 489 186 494 q 201 465 189 476 q 231 442 214 453 q 265 422 247 432 q 299 406 283 413 q 369 371 332 390 q 437 326 406 351 q 491 269 468 301 q 518 193 514 236 q 519 183 519 188 q 519 174 519 178 q 504 107 519 135 q 474 46 489 79 q 388 -1 443 14 q 271 -17 333 -17 q 183 -8 226 -17 q 106 18 139 0 q 65 50 86 29 q 43 90 44 71 q 51 114 43 103 q 70 134 58 125 q 96 148 82 143 q 122 153 110 153 q 161 133 142 150 q 204 108 181 117 q 301 89 251 89 q 362 103 336 89 q 394 149 388 117 z "},"":{"ha":747,"x_min":69,"x_max":678,"o":"m 676 -193 q 678 -207 678 -197 q 669 -236 678 -222 q 647 -260 660 -250 q 617 -276 633 -271 q 586 -282 600 -282 q 560 -275 571 -282 q 545 -254 549 -268 q 542 -224 542 -240 l 542 -175 q 541 -156 542 -165 q 540 -135 540 -146 q 539 -27 539 -94 q 538 118 539 40 q 534 276 538 196 q 523 423 531 357 q 501 533 515 489 q 467 582 488 576 q 439 590 456 586 q 403 595 422 593 q 367 598 385 597 q 336 599 349 599 q 250 589 289 599 q 258 566 250 574 q 268 544 265 558 q 267 475 267 513 q 267 397 267 438 q 267 336 267 367 q 268 274 267 306 l 268 233 q 268 173 268 210 q 269 113 268 136 q 292 122 274 115 q 317 129 310 128 l 329 129 q 381 119 365 129 q 397 79 397 108 l 397 72 q 378 47 394 58 q 341 26 363 35 q 298 13 319 18 q 264 6 276 7 q 228 1 253 3 q 193 0 204 0 q 165 6 178 0 q 140 24 151 11 q 144 153 143 89 q 146 285 146 218 q 144 387 146 336 q 138 490 143 438 q 116 495 126 493 q 96 501 106 497 q 79 510 86 504 q 69 528 72 517 l 69 533 q 85 572 69 549 q 120 619 100 596 q 160 660 140 642 q 192 682 181 678 q 262 697 219 692 q 349 701 304 701 q 414 699 379 701 q 481 692 449 697 q 538 678 513 686 q 574 661 563 671 q 592 632 582 653 q 612 588 603 611 q 628 540 621 564 q 639 500 635 517 q 652 401 649 456 q 656 290 656 347 q 657 235 656 272 q 660 153 658 199 q 663 58 661 107 q 667 -34 665 10 q 669 -111 668 -78 q 671 -157 671 -144 q 670 -168 671 -162 q 669 -179 669 -174 q 672 -187 669 -185 q 676 -193 674 -190 z "},"":{"ha":689,"x_min":63,"x_max":619,"o":"m 515 646 q 542 616 531 632 q 561 586 553 600 q 574 563 567 576 q 587 534 581 549 q 598 506 593 519 q 606 483 603 493 q 608 467 607 475 q 608 450 608 458 q 606 408 608 429 q 604 364 604 386 q 603 317 604 340 q 603 271 603 294 q 603 235 603 253 q 606 201 604 218 q 613 121 608 157 q 619 38 618 85 q 584 7 610 19 q 533 -6 558 -6 q 493 10 507 -6 q 480 44 483 21 q 476 97 476 68 q 478 163 476 129 q 481 224 481 196 q 481 239 481 232 q 479 253 481 246 q 447 264 467 258 q 402 274 426 269 q 353 281 378 278 q 307 283 328 283 q 229 267 263 283 q 196 210 196 251 q 197 192 196 199 q 215 154 200 174 q 249 122 229 135 q 281 107 264 113 q 312 95 297 101 q 335 79 326 89 q 344 51 344 69 l 344 44 q 315 6 342 21 q 260 -10 289 -10 q 239 -7 253 -10 q 174 18 206 0 q 118 62 143 36 q 78 119 93 88 q 64 188 64 151 l 64 194 q 88 285 65 249 q 147 345 111 322 q 232 378 183 368 q 335 388 281 388 q 400 385 363 388 q 465 379 438 383 l 465 389 q 429 531 465 479 q 315 596 393 582 q 296 597 308 597 q 278 597 283 597 q 235 590 254 597 q 197 574 215 583 q 159 558 178 565 q 119 551 140 551 q 63 568 93 551 l 63 613 q 145 667 103 643 q 249 699 188 692 l 263 699 q 298 696 281 699 q 333 693 315 693 q 359 691 338 693 q 409 683 381 689 q 467 669 438 678 q 515 646 496 660 z "},"":{"ha":768,"x_min":69,"x_max":699,"o":"m 697 -194 q 699 -208 699 -199 q 690 -237 699 -224 q 667 -262 681 -251 q 638 -278 654 -272 q 607 -283 621 -283 q 581 -276 592 -283 q 566 -256 569 -269 q 563 -225 563 -242 l 563 -176 q 562 -157 563 -167 q 561 -136 561 -147 q 560 -111 561 -125 q 560 -82 560 -97 q 557 28 558 -33 q 553 157 556 90 q 544 290 550 224 q 531 415 539 357 q 513 516 524 472 q 488 582 503 560 q 460 590 476 586 q 424 595 443 593 q 388 598 406 597 q 357 599 369 599 q 271 589 310 599 q 278 566 271 574 q 289 544 286 558 q 288 475 288 513 q 288 397 288 438 q 288 336 288 367 q 289 274 289 306 l 289 61 q 286 27 289 39 q 279 10 283 15 q 270 3 275 4 q 260 1 265 1 q 233 1 246 1 q 197 0 219 0 q 173 0 186 0 q 143 1 160 0 q 98 6 119 1 q 71 28 76 10 l 71 35 q 70 47 71 42 q 69 60 69 53 q 78 100 69 83 q 114 119 86 117 l 126 121 l 164 111 q 166 197 165 154 q 167 285 167 240 q 165 387 167 336 q 158 490 164 438 q 137 495 147 493 q 117 501 126 497 q 100 510 107 504 q 90 528 93 517 l 90 533 q 106 572 90 549 q 141 619 121 596 q 181 660 161 642 q 213 682 201 678 q 283 697 240 692 q 369 701 325 701 q 435 699 400 701 q 501 692 469 697 q 558 678 533 686 q 594 661 583 671 q 613 632 603 653 q 633 588 624 611 q 649 540 642 564 q 660 500 656 517 q 673 401 669 456 q 676 290 676 347 q 678 235 676 272 q 681 153 679 199 q 684 58 682 107 q 688 -35 686 8 q 690 -112 689 -79 q 692 -158 692 -146 q 691 -169 692 -164 q 690 -181 690 -175 q 692 -189 690 -186 q 697 -194 694 -192 z "},"":{"ha":575,"x_min":18,"x_max":519,"o":"m 319 588 q 268 597 293 590 q 213 604 243 604 q 199 604 206 604 q 186 603 193 604 q 160 594 175 601 q 128 581 146 588 q 94 567 111 574 q 61 561 76 561 q 35 569 46 561 q 19 599 24 578 q 19 603 19 601 q 18 608 18 606 q 36 647 18 631 q 81 676 54 664 q 140 697 108 689 q 197 707 171 704 q 217 708 208 708 q 238 708 226 708 q 361 692 304 708 q 446 643 418 675 q 483 578 471 615 q 501 499 496 540 q 509 413 507 457 q 517 326 511 369 q 519 300 519 313 q 519 275 519 288 q 503 165 519 217 q 457 76 488 114 q 383 17 426 39 q 283 -4 339 -4 q 238 0 260 -4 q 203 7 225 1 q 160 21 182 13 q 122 41 139 29 q 104 67 106 53 l 104 74 q 134 122 104 103 q 200 140 164 140 l 213 140 q 240 133 229 139 q 260 122 251 128 q 277 113 268 117 q 299 108 286 108 q 307 109 303 108 q 317 111 311 110 q 347 135 335 115 q 365 185 358 156 q 376 253 372 215 q 379 331 379 292 q 374 432 379 389 q 361 506 368 475 q 345 547 356 529 q 319 588 335 564 z "},"":{"ha":781,"x_min":76,"x_max":732,"o":"m 667 608 q 647 593 660 600 q 622 579 635 586 q 638 537 632 560 q 650 490 644 514 q 660 406 658 451 q 665 312 663 360 q 670 217 667 264 q 683 131 674 171 q 690 108 686 115 q 699 97 694 101 q 706 90 703 93 q 708 79 708 88 l 708 72 q 680 22 704 44 q 625 0 656 0 q 612 1 618 0 q 599 6 606 3 q 570 31 579 13 q 556 76 561 50 q 550 131 551 101 q 547 192 549 161 q 544 303 544 242 q 538 422 544 365 q 515 524 532 479 q 460 586 497 568 q 381 601 425 601 q 282 584 329 601 q 221 538 235 567 q 206 458 206 501 q 208 408 206 435 q 211 346 210 381 q 242 392 226 372 q 288 431 258 411 q 325 452 308 444 q 369 460 342 460 q 419 452 396 460 q 457 426 442 444 q 458 424 457 425 q 458 421 458 422 q 461 401 460 411 q 463 383 463 392 q 457 357 463 368 q 436 339 451 346 q 395 333 418 332 q 353 324 372 335 q 331 308 344 319 q 303 283 317 297 q 278 253 289 268 q 265 225 268 238 q 256 173 258 196 q 252 129 254 150 q 247 88 250 108 q 235 46 243 68 q 208 9 224 21 q 178 -3 193 -3 q 140 13 158 -3 q 111 57 122 28 q 103 75 107 68 q 98 89 100 82 q 94 106 96 96 q 90 133 92 115 q 80 249 83 189 q 76 369 76 308 q 78 466 76 418 q 86 557 81 514 q 139 624 106 596 q 215 670 172 651 q 309 698 258 689 q 414 707 360 707 l 438 707 q 499 698 471 707 q 549 674 526 689 q 567 696 560 685 q 583 717 575 707 q 599 735 590 726 q 624 751 608 743 q 649 757 631 757 q 704 743 676 757 q 731 714 726 732 q 732 703 732 710 q 726 682 732 692 q 712 661 719 671 q 696 640 704 651 q 686 628 689 632 q 681 623 683 625 q 676 617 679 621 q 667 608 674 614 z "},"":{"ha":771,"x_min":28,"x_max":757,"o":"m 664 458 q 728 445 700 458 q 757 396 757 432 q 740 350 757 367 q 682 331 722 333 q 669 331 676 331 q 653 333 661 332 q 642 172 653 253 q 594 35 632 90 q 544 12 575 21 q 476 -3 513 3 q 403 -10 440 -8 q 336 -12 365 -12 q 243 1 283 -12 q 192 38 214 11 q 154 99 169 64 q 129 174 139 133 q 115 251 119 214 q 113 276 114 264 q 113 303 113 289 q 116 386 113 347 q 119 469 119 425 q 117 526 119 499 q 106 579 114 554 q 83 583 94 582 q 60 588 71 585 q 42 597 50 592 q 31 614 35 603 q 28 626 28 622 q 40 661 28 644 q 65 686 51 678 q 117 697 88 697 q 180 687 149 697 q 222 665 211 676 q 240 617 236 650 q 244 549 244 585 q 244 505 244 525 q 243 469 243 485 l 243 443 q 242 386 243 410 q 242 332 242 363 q 251 219 242 272 q 292 118 260 167 q 344 105 311 110 q 401 100 376 100 q 440 104 422 100 q 471 118 458 108 q 491 147 482 126 q 508 191 500 167 q 520 241 515 215 q 526 286 525 267 q 529 303 528 294 q 532 336 531 313 q 467 335 499 336 q 413 335 436 335 q 363 344 383 335 q 338 381 342 353 l 338 388 q 363 439 338 417 q 413 465 388 461 q 417 466 415 465 q 422 467 419 467 q 447 465 433 467 q 479 461 461 463 l 531 461 q 530 472 531 467 q 529 483 529 476 q 522 563 526 519 q 518 633 518 606 q 519 647 518 643 q 546 682 525 669 q 592 694 567 694 q 624 688 608 694 q 650 668 640 682 q 653 579 653 606 q 654 535 654 553 q 654 505 654 521 q 653 458 654 489 l 664 458 z "},"":{"ha":689,"x_min":63,"x_max":683,"o":"m 682 717 q 683 706 683 713 q 678 685 683 694 q 663 664 671 674 q 647 643 656 654 q 638 631 640 635 q 633 626 635 628 q 628 620 631 624 q 618 611 625 617 q 597 594 610 601 q 569 581 583 588 l 565 578 q 589 528 576 557 q 606 483 601 500 q 608 467 607 475 q 608 450 608 458 q 606 408 608 429 q 604 364 604 386 q 603 317 604 340 q 603 271 603 294 q 603 235 603 253 q 606 201 604 218 q 613 121 608 157 q 619 38 618 85 q 584 7 610 19 q 533 -6 558 -6 q 493 10 507 -6 q 480 44 483 21 q 476 97 476 68 q 478 163 476 129 q 481 224 481 196 q 481 239 481 232 q 479 253 481 246 q 447 264 467 258 q 402 274 426 269 q 353 281 378 278 q 307 283 328 283 q 229 267 263 283 q 196 210 196 251 q 197 192 196 199 q 215 154 200 174 q 249 122 229 135 q 281 107 264 113 q 312 95 297 101 q 335 79 326 89 q 344 51 344 69 l 344 44 q 315 6 342 21 q 260 -10 289 -10 q 239 -7 253 -10 q 174 18 206 0 q 118 62 143 36 q 78 119 93 88 q 64 188 64 151 l 64 194 q 88 285 65 249 q 147 345 111 322 q 232 378 183 368 q 335 388 281 388 q 400 385 363 388 q 465 379 438 383 l 465 389 q 429 531 465 479 q 315 596 393 582 q 296 597 308 597 q 278 597 283 597 q 235 590 254 597 q 197 574 215 583 q 159 558 178 565 q 119 551 140 551 q 63 568 93 551 l 63 613 q 145 667 103 643 q 249 699 188 692 l 263 699 q 298 696 281 699 q 333 693 315 693 q 353 692 338 693 q 390 687 368 690 q 438 677 413 683 q 483 663 463 671 q 496 672 492 668 q 517 696 508 685 q 533 717 525 707 q 551 737 542 728 q 575 754 560 746 q 600 760 582 760 q 656 746 628 760 q 682 717 678 735 z "},"":{"ha":721,"x_min":28,"x_max":676,"o":"m 550 -11 q 539 26 539 4 q 542 59 539 42 q 546 93 544 76 l 546 103 q 540 206 546 154 q 517 302 533 258 q 474 378 501 346 q 403 421 446 410 q 324 368 363 394 q 239 324 286 342 q 234 292 236 308 q 232 260 232 276 q 235 192 232 226 q 239 125 239 157 q 236 83 239 103 q 225 46 233 64 q 192 12 217 26 q 140 -3 168 -3 q 106 4 124 -3 q 99 26 100 15 q 97 47 97 36 q 101 90 97 68 q 107 135 104 113 q 111 219 110 176 q 113 303 113 261 q 112 375 113 339 q 111 447 111 411 q 112 511 111 483 q 115 574 113 539 q 98 572 107 572 q 81 571 89 571 q 37 585 46 571 q 28 643 28 600 q 49 677 28 671 q 101 683 71 683 l 108 683 q 130 683 119 683 q 151 685 140 683 q 183 691 167 688 q 214 694 199 694 q 246 681 235 694 q 250 653 249 667 q 251 624 251 639 q 245 542 251 581 q 239 460 239 504 l 239 443 q 331 488 292 463 q 407 553 369 513 q 434 589 422 568 q 458 630 446 610 q 485 667 471 650 q 518 693 499 685 q 557 701 532 701 q 590 695 575 701 q 608 675 606 689 q 610 663 610 671 q 592 615 610 638 q 564 579 575 593 q 549 560 554 567 q 538 548 543 553 q 527 538 532 543 q 514 525 522 533 q 552 493 532 511 q 591 453 572 475 q 624 406 610 431 q 646 354 639 381 q 660 286 654 324 q 669 209 665 249 q 675 132 674 169 q 676 64 676 94 q 667 29 676 44 q 645 3 658 14 q 615 -12 632 -7 q 582 -18 599 -18 q 550 -11 567 -18 z "},"":{"ha":800,"x_min":51,"x_max":724,"o":"m 710 274 q 709 226 710 250 q 708 179 708 203 q 711 130 708 153 q 724 92 714 107 l 724 86 q 715 46 724 63 q 691 19 706 29 q 658 3 676 8 q 621 -1 639 -1 q 608 -1 614 -1 q 597 0 603 -1 q 547 65 569 31 q 504 133 525 99 q 462 203 483 168 q 415 271 440 238 q 368 197 388 242 q 327 110 349 153 q 277 36 306 67 q 201 6 249 6 q 154 14 179 6 q 147 40 149 26 q 146 67 146 53 q 148 111 146 89 q 151 157 150 133 l 151 178 q 150 253 151 213 q 146 325 149 293 q 143 390 143 360 q 143 451 143 421 q 142 512 143 481 q 138 581 142 543 l 129 588 q 107 592 118 590 q 85 597 96 593 q 67 606 75 600 q 54 622 58 611 q 51 635 51 631 q 63 669 51 653 q 89 694 75 686 q 140 706 111 706 q 203 695 172 706 q 246 674 235 685 q 265 629 261 656 q 268 578 268 603 l 268 532 q 274 394 268 458 q 281 253 281 329 l 281 226 q 310 280 299 243 q 333 347 322 317 q 348 381 340 364 q 366 411 356 397 q 390 433 376 425 q 422 442 403 442 q 454 435 436 442 q 489 406 474 428 q 517 357 504 383 q 544 306 531 331 q 574 267 558 281 q 576 301 575 283 q 576 338 576 319 q 576 380 576 356 q 573 427 575 404 q 567 467 571 450 q 558 490 564 485 q 531 503 549 500 q 493 509 513 506 q 458 522 474 513 q 440 554 443 531 q 453 597 440 574 q 472 643 465 621 l 501 722 q 593 758 535 758 q 635 753 614 758 q 651 717 651 736 q 650 706 651 707 q 643 698 649 704 q 628 674 638 692 q 601 615 618 657 q 681 574 649 603 q 696 512 690 551 q 705 428 701 472 q 709 342 708 383 q 710 274 710 300 z "},"":{"ha":647,"x_min":54,"x_max":585,"o":"m 72 571 q 54 610 54 590 q 84 654 54 636 q 153 683 114 672 q 233 697 193 693 q 292 701 272 701 q 414 681 357 701 q 499 626 471 661 q 551 537 531 586 q 579 417 572 488 q 580 409 579 413 q 581 401 581 406 q 585 324 585 365 q 581 248 585 285 q 567 182 576 211 q 536 128 558 154 q 487 78 514 101 q 430 38 460 56 q 375 14 400 21 q 334 6 358 10 q 285 3 310 3 q 263 4 274 3 q 242 7 251 6 q 178 33 208 13 q 126 83 149 54 q 90 144 104 111 q 72 207 76 178 q 72 214 72 210 q 71 222 71 218 q 74 272 71 243 q 82 317 78 300 q 99 360 86 333 q 133 412 113 386 q 177 456 153 438 q 228 475 201 475 q 240 474 236 475 q 252 467 244 474 q 268 453 260 461 q 283 438 276 446 q 290 424 289 429 q 292 414 292 421 q 281 389 292 399 q 256 369 269 379 q 228 351 242 360 q 211 329 215 342 q 199 299 206 315 q 193 268 193 283 q 200 214 193 242 q 222 164 207 186 q 260 127 236 142 q 318 113 285 113 l 325 113 q 331 113 328 113 q 338 114 335 114 q 390 138 367 117 q 428 190 413 158 q 453 261 444 221 q 463 344 463 301 q 432 495 463 431 q 361 582 401 560 q 322 597 342 593 q 282 601 301 601 q 239 599 265 601 q 199 593 213 597 q 151 572 175 586 q 100 557 128 557 q 88 560 92 557 q 72 571 83 563 z "},"":{"ha":647,"x_min":54,"x_max":650,"o":"m 649 714 q 650 703 650 710 q 644 682 650 692 q 630 661 638 671 q 614 640 622 651 q 604 628 607 632 q 599 623 601 625 q 594 617 597 621 q 585 608 592 614 q 563 592 576 599 q 536 578 550 585 l 531 576 q 562 505 550 544 q 579 414 574 465 q 580 406 579 410 q 581 399 581 403 q 585 321 585 363 q 581 245 585 282 q 567 179 576 208 q 536 125 558 151 q 487 76 514 99 q 430 35 460 53 q 375 11 400 18 q 334 3 358 7 q 285 0 310 0 q 263 1 274 0 q 242 4 251 3 q 178 31 208 10 q 126 80 149 51 q 90 142 104 108 q 72 204 76 175 q 72 211 72 207 q 71 219 71 215 q 74 269 71 240 q 82 314 78 297 q 99 357 86 331 q 133 409 113 383 q 177 453 153 435 q 228 472 201 472 q 240 471 236 472 q 252 465 244 471 q 268 451 260 458 q 283 435 276 443 q 290 421 289 426 q 292 411 292 418 q 281 386 292 396 q 256 367 269 376 q 228 348 242 357 q 211 326 215 339 q 199 297 206 313 q 193 265 193 281 q 200 211 193 239 q 222 161 207 183 q 260 124 236 139 q 318 110 285 110 l 325 110 q 331 110 328 110 q 338 111 335 111 q 390 135 367 114 q 428 187 413 156 q 453 258 444 218 q 463 342 463 299 q 432 492 463 428 q 361 579 401 557 q 322 594 342 590 q 282 599 301 599 q 239 597 265 599 q 199 590 213 594 q 151 569 175 583 q 100 554 128 554 q 88 557 92 554 q 72 568 83 560 q 54 607 54 588 q 84 651 54 633 q 153 680 114 669 q 233 694 193 690 q 292 699 272 699 q 378 690 336 699 q 453 663 421 681 l 463 669 q 483 693 475 682 q 500 715 492 704 q 517 734 508 725 q 542 751 526 743 q 567 757 549 757 q 622 743 594 757 q 649 714 644 732 z "},"":{"ha":640,"x_min":18,"x_max":556,"o":"m 406 478 q 258 451 338 451 q 160 465 207 451 q 83 510 113 478 q 65 538 72 522 q 47 572 57 553 q 28 605 39 588 q 18 638 18 622 q 28 660 18 649 q 51 679 38 671 q 81 693 65 688 q 110 699 97 699 q 115 698 113 699 q 119 697 117 697 q 147 679 138 693 q 164 647 157 665 q 180 612 171 629 q 204 583 189 594 q 246 565 221 572 q 294 557 271 557 q 325 561 310 557 q 363 584 346 567 q 399 620 381 601 q 438 653 417 639 q 485 668 458 668 q 538 653 511 668 q 551 568 551 615 q 549 509 551 539 q 546 449 546 479 q 546 361 546 399 q 546 292 546 324 q 545 232 546 261 q 544 169 544 203 q 544 94 544 136 q 544 -4 544 53 q 546 -47 544 -25 q 553 -90 547 -68 q 556 -101 556 -99 q 547 -133 556 -118 q 524 -158 538 -147 q 494 -176 511 -169 q 460 -182 476 -182 q 414 -164 432 -182 q 401 -137 404 -154 q 399 -101 399 -121 q 401 -45 399 -74 q 406 1 404 -17 q 408 74 407 43 q 408 131 408 106 q 408 190 408 165 q 406 239 407 215 q 403 288 404 263 q 403 349 403 314 q 403 406 403 374 q 406 478 404 438 z "},"":{"ha":486,"x_min":83,"x_max":417,"o":"m 217 196 q 243 190 228 190 q 260 191 251 190 q 278 192 268 192 q 299 192 293 192 q 308 192 304 192 q 316 193 311 193 q 335 193 321 193 l 358 193 q 382 191 371 193 q 403 179 393 189 q 412 162 407 175 q 417 135 417 149 q 397 97 417 104 q 317 89 378 89 l 276 89 q 210 90 244 89 q 149 97 176 90 q 103 115 121 103 q 85 151 85 128 q 84 174 85 167 q 83 201 83 182 q 94 252 83 232 q 143 272 106 272 q 183 270 169 272 q 203 261 197 268 q 211 241 210 254 q 215 206 213 228 q 216 201 215 203 q 217 196 217 199 m 217 494 q 243 489 228 489 q 260 490 251 489 q 278 490 268 490 q 299 490 293 490 q 308 491 304 490 q 316 492 311 492 q 335 492 321 492 l 358 492 q 382 490 371 492 q 403 478 393 488 q 412 460 407 474 q 417 433 417 447 q 397 395 417 403 q 317 388 378 388 l 276 388 q 210 388 244 388 q 149 395 176 389 q 103 414 121 401 q 85 450 85 426 q 84 473 85 465 q 83 500 83 481 q 94 551 83 531 q 143 571 106 571 q 183 569 169 571 q 203 560 197 567 q 211 540 210 553 q 215 504 213 526 q 216 499 215 501 q 217 494 217 497 z "},"":{"ha":0,"x_min":-446,"x_max":8,"o":"m -312 815 q -383 822 -350 815 q -439 843 -415 828 q -444 863 -443 854 q -446 878 -446 871 q -445 899 -446 889 q -444 918 -444 908 l -444 967 q -441 997 -444 983 q -426 1018 -437 1011 q -400 1025 -415 1025 q -344 1017 -371 1025 q -315 981 -317 1008 q -317 967 -315 971 q -318 953 -318 965 q -318 939 -318 946 q -317 926 -318 932 l -275 931 l -174 931 q -164 931 -165 931 q -160 930 -162 931 q -151 929 -158 929 q -125 929 -144 929 q -55 923 -87 929 q 1 901 -22 917 q 8 867 8 883 q 2 835 8 844 q -18 822 -4 825 q -53 818 -32 818 q -104 815 -74 818 q -135 814 -118 814 q -172 814 -153 814 q -250 815 -211 814 q -312 815 -289 815 z "},"":{"ha":560,"x_min":-1,"x_max":476,"o":"m 167 592 q 138 578 151 590 q 109 551 124 565 q 79 526 94 538 q 46 515 64 515 q 1 529 24 515 q -1 550 -1 543 q 15 603 -1 578 q 58 650 32 629 q 117 685 85 671 q 178 701 149 699 q 200 701 181 701 q 242 702 219 701 q 284 703 265 703 q 306 703 303 703 q 383 680 353 703 q 430 621 413 657 q 455 540 447 585 q 465 449 463 494 q 467 416 467 432 q 467 385 467 400 q 465 290 467 336 q 463 199 463 244 q 463 161 463 179 q 465 125 464 143 q 472 97 467 110 q 476 72 476 83 q 467 47 475 60 q 446 25 458 35 q 418 9 433 15 q 389 3 403 3 q 360 11 372 3 q 344 35 347 19 q 340 71 340 51 l 340 117 q 336 260 339 188 q 333 426 333 333 q 326 517 333 482 q 307 573 319 553 q 279 600 294 593 q 247 607 264 607 q 203 601 225 607 q 167 592 182 594 z "},"":{"ha":560,"x_min":-339,"x_max":476,"o":"m -64 986 q -76 922 -64 953 q -110 867 -89 890 q -158 828 -131 843 q -214 814 -185 814 q -245 815 -228 814 q -278 821 -262 817 q -306 833 -293 825 q -325 856 -319 842 q -335 891 -332 871 q -339 933 -339 911 q -331 1001 -339 978 q -299 1051 -322 1025 q -248 1088 -275 1078 q -186 1099 -221 1099 q -101 1069 -137 1099 q -64 986 -64 1039 m -204 1004 q -228 994 -219 1004 q -236 961 -236 985 q -226 917 -236 924 q -206 911 -217 911 q -183 920 -190 911 q -175 940 -175 929 l -175 961 q -184 990 -175 976 q -204 1004 -193 1004 m 167 592 q 138 578 151 590 q 109 551 124 565 q 79 526 94 538 q 46 515 64 515 q 1 529 24 515 q -1 550 -1 543 q 15 603 -1 578 q 58 650 32 629 q 117 685 85 671 q 178 701 149 699 q 200 701 181 701 q 242 702 219 701 q 284 703 265 703 q 306 703 303 703 q 383 680 353 703 q 430 621 413 657 q 455 540 447 585 q 465 449 463 494 q 467 416 467 432 q 467 385 467 400 q 465 290 467 336 q 463 199 463 244 q 463 161 463 179 q 465 125 464 143 q 472 97 467 110 q 476 72 476 83 q 467 47 475 60 q 446 25 458 35 q 418 9 433 15 q 389 3 403 3 q 360 11 372 3 q 344 35 347 19 q 340 71 340 51 l 340 117 q 336 260 339 188 q 333 426 333 333 q 326 517 333 482 q 307 573 319 553 q 279 600 294 593 q 247 607 264 607 q 203 601 225 607 q 167 592 182 594 z "},"":{"ha":0,"x_min":-685,"x_max":-96,"o":"m -103 843 q -159 822 -126 828 q -229 815 -192 815 q -333 815 -279 815 q -440 814 -387 814 l -461 814 q -503 813 -486 814 q -537 810 -521 811 q -568 808 -553 808 q -604 807 -583 807 q -643 810 -624 807 q -681 824 -662 814 q -685 854 -685 840 q -672 900 -685 885 q -635 922 -658 915 q -581 928 -612 928 q -512 932 -550 929 q -467 934 -490 933 q -418 935 -443 935 q -344 933 -382 935 q -267 929 -307 932 q -206 926 -236 926 q -151 923 -175 926 q -111 910 -126 919 q -96 878 -96 900 q -97 863 -96 871 q -103 843 -99 854 z "},"":{"ha":0,"x_min":-683,"x_max":-94,"o":"m -96 918 q -95 899 -96 908 q -94 878 -94 889 q -96 863 -94 871 q -101 843 -97 854 q -158 822 -125 828 q -228 815 -190 815 q -332 815 -278 815 q -439 814 -386 814 l -460 814 q -502 813 -485 814 q -535 810 -519 811 q -567 808 -551 808 q -603 807 -582 807 q -642 810 -622 807 q -679 824 -661 814 q -683 854 -683 840 q -670 900 -683 885 q -634 922 -657 915 q -580 928 -611 928 q -511 932 -549 929 q -465 934 -489 933 q -417 935 -442 935 q -343 933 -381 935 q -265 929 -306 932 l -224 926 q -222 939 -222 932 q -222 953 -222 946 q -224 967 -222 965 q -225 981 -225 971 q -197 1017 -224 1008 q -140 1025 -169 1025 q -114 1018 -125 1025 q -99 997 -103 1011 q -96 967 -96 983 l -96 918 l -96 918 z "},"":{"ha":0,"x_min":-685,"x_max":-86,"o":"m -97 876 q -99 872 -97 874 q -144 825 -114 836 q -211 814 -175 814 q -221 815 -215 814 q -229 815 -226 815 q -333 815 -279 815 q -440 814 -387 814 l -461 814 q -503 813 -486 814 q -537 810 -521 811 q -568 808 -553 808 q -604 807 -583 807 q -643 810 -624 807 q -681 824 -662 814 q -685 854 -685 840 q -672 900 -685 885 q -635 922 -658 915 q -581 928 -612 928 q -512 932 -550 929 q -467 934 -490 933 q -418 935 -443 935 q -373 935 -396 935 q -325 933 -350 935 q -324 942 -325 939 q -307 978 -319 963 q -276 1006 -294 994 q -235 1022 -257 1017 q -190 1028 -212 1028 q -118 1007 -150 1028 q -86 942 -86 986 q -97 876 -86 903 z "},"":{"ha":0,"x_min":-683,"x_max":-94,"o":"m -96 917 q -95 897 -96 907 q -94 876 -94 888 q -96 861 -94 869 q -101 842 -97 853 q -158 820 -125 826 q -228 814 -190 814 q -332 813 -278 814 q -439 813 -386 813 l -460 813 q -502 811 -485 813 q -535 808 -519 810 q -567 806 -551 807 q -603 806 -582 806 q -642 809 -622 806 q -679 822 -661 813 q -683 853 -683 839 q -670 899 -683 883 q -634 920 -657 914 q -580 927 -611 926 q -511 931 -549 928 q -466 933 -489 932 q -418 933 -443 933 l -418 951 q -419 965 -418 964 q -421 979 -421 969 q -392 1015 -419 1007 q -336 1024 -365 1024 q -310 1017 -321 1024 q -295 996 -299 1010 q -292 965 -292 982 l -292 929 q -278 928 -285 929 q -265 928 -272 928 l -224 925 q -222 938 -222 931 q -222 951 -222 944 q -224 965 -222 964 q -225 979 -225 969 q -197 1015 -224 1007 q -140 1024 -169 1024 q -114 1017 -125 1024 q -99 996 -103 1010 q -96 965 -96 982 l -96 917 l -96 917 z "},"":{"ha":0,"x_min":-306,"x_max":-93,"o":"m -200 -217 q -217 -215 -206 -215 q -238 -217 -228 -215 q -258 -218 -249 -218 q -278 -215 -269 -218 q -293 -203 -286 -212 q -303 -178 -300 -193 q -306 -149 -306 -164 q -303 -123 -306 -135 q -293 -104 -300 -111 q -272 -95 -286 -97 q -239 -93 -257 -93 q -185 -96 -212 -93 q -140 -99 -158 -99 l -112 -104 q -103 -120 -106 -112 q -99 -136 -100 -128 q -99 -156 -99 -144 q -97 -185 -99 -167 q -94 -234 -94 -204 q -93 -300 -93 -264 q -100 -358 -93 -328 q -136 -393 -107 -387 q -167 -391 -151 -393 q -186 -385 -182 -389 q -195 -369 -193 -378 q -197 -350 -197 -361 q -197 -339 -197 -344 q -196 -328 -197 -333 q -194 -315 -196 -322 l -194 -297 l -194 -262 q -195 -236 -194 -249 q -200 -217 -196 -224 z "},"":{"ha":0,"x_min":-439,"x_max":-78,"o":"m -179 -262 q -179 -243 -179 -256 q -180 -217 -179 -231 q -181 -191 -181 -204 q -183 -171 -182 -178 q -185 -158 -185 -164 q -186 -147 -186 -153 q -186 -136 -186 -142 q -184 -117 -186 -125 q -175 -101 -182 -108 q -156 -95 -171 -97 q -125 -93 -140 -93 q -89 -128 -96 -99 q -82 -185 -82 -158 q -78 -227 -79 -204 q -78 -286 -78 -250 q -85 -317 -78 -300 q -107 -350 -92 -335 q -148 -376 -122 -365 q -212 -386 -174 -386 q -285 -378 -257 -386 q -328 -358 -312 -371 q -350 -331 -344 -346 q -356 -301 -356 -317 l -356 -283 l -356 -262 q -356 -236 -356 -249 q -361 -217 -357 -224 q -364 -216 -362 -217 q -369 -215 -365 -215 q -381 -217 -381 -215 q -392 -218 -382 -218 q -411 -215 -403 -218 q -426 -203 -419 -212 q -436 -178 -433 -193 q -439 -149 -439 -164 q -436 -123 -439 -135 q -426 -104 -433 -111 q -412 -98 -425 -103 q -392 -93 -400 -93 q -342 -96 -365 -93 q -301 -99 -319 -99 l -274 -104 q -264 -120 -267 -112 q -260 -136 -261 -128 q -260 -156 -260 -144 q -258 -185 -260 -167 q -255 -227 -256 -204 q -254 -286 -254 -250 q -247 -301 -254 -294 q -215 -308 -239 -308 q -187 -299 -194 -308 q -179 -282 -179 -289 l -179 -262 z "},"":{"ha":0,"x_min":-246,"x_max":-96,"o":"m -100 -126 q -96 -153 -96 -142 q -117 -210 -96 -186 q -169 -233 -137 -233 q -222 -212 -197 -233 q -246 -165 -246 -190 q -224 -113 -246 -133 q -169 -93 -201 -93 q -131 -101 -151 -93 q -100 -126 -111 -108 z "},"":{"ha":0,"x_min":0,"x_max":0,"o":""},"":{"ha":0,"x_min":0,"x_max":0,"o":""},"":{"ha":0,"x_min":0,"x_max":0,"o":""},"":{"ha":0,"x_min":0,"x_max":0,"o":""},"":{"ha":632,"x_min":69,"x_max":618,"o":"m 399 -115 q 365 -143 388 -132 q 318 -154 342 -154 q 290 -150 303 -154 q 265 -135 276 -146 q 260 -89 260 -117 q 261 -48 260 -69 q 265 -4 263 -26 q 204 6 233 -1 q 153 26 175 13 q 107 55 124 39 q 82 90 90 71 q 72 135 74 110 q 69 192 69 160 q 71 278 69 242 q 73 351 72 315 q 75 424 74 386 q 76 515 76 463 q 76 581 76 549 q 74 647 75 614 q 106 665 86 657 q 150 680 126 674 q 199 691 174 686 q 247 699 224 696 q 245 761 246 732 q 244 813 244 790 q 281 838 256 828 q 332 849 307 849 q 382 828 367 849 q 389 810 388 821 q 390 788 390 800 q 388 747 390 768 q 386 706 386 726 l 386 688 q 465 667 425 679 q 528 632 504 654 q 561 572 550 611 q 572 496 572 532 q 551 420 572 446 q 490 372 531 394 q 544 333 517 350 q 586 283 571 315 q 609 234 600 254 q 618 172 618 214 q 615 135 618 149 q 603 104 611 122 q 578 75 596 89 q 538 49 560 61 q 493 27 517 36 q 453 13 469 18 q 400 0 428 4 l 400 -25 q 400 -70 400 -49 q 399 -115 400 -92 m 226 338 q 235 364 226 354 q 257 381 243 374 q 253 488 256 436 q 250 593 251 540 q 211 569 219 586 q 206 449 207 503 q 204 346 204 396 q 203 244 204 296 q 201 132 203 193 q 265 107 228 115 l 265 299 q 226 338 226 307 m 481 128 q 484 147 483 142 q 485 165 485 151 q 463 248 485 222 q 394 286 442 274 l 394 101 q 442 111 421 104 q 481 128 463 118 m 442 478 q 435 530 442 501 q 413 568 428 558 l 388 581 l 388 424 q 426 450 410 436 q 442 478 442 464 z "},"":{"ha":288,"x_min":69,"x_max":218,"o":"m 106 3 q 93 36 96 18 q 90 74 90 54 q 92 105 90 89 q 93 136 93 121 q 92 147 93 142 q 92 157 92 151 q 89 190 89 174 q 89 233 89 206 l 89 313 q 89 349 89 332 q 88 381 89 367 q 76 493 83 432 q 69 618 69 554 q 70 635 69 626 q 71 651 71 643 q 103 683 79 668 q 150 697 126 697 q 172 694 161 697 q 190 679 182 690 q 197 660 196 672 q 199 633 199 649 q 198 608 199 621 q 197 583 197 596 l 197 560 q 201 468 197 518 q 204 361 204 418 q 206 286 204 326 q 210 208 208 246 q 215 139 213 171 q 218 89 217 107 l 218 81 q 197 20 218 40 q 136 0 175 0 q 122 1 129 0 q 106 3 114 1 z "},"":{"ha":558,"x_min":69,"x_max":489,"o":"m 106 3 q 93 36 96 18 q 90 74 90 54 q 92 105 90 89 q 93 136 93 121 q 92 147 93 142 q 92 157 92 151 q 89 190 89 174 q 89 233 89 206 l 89 313 q 89 349 89 332 q 88 381 89 367 q 76 493 83 432 q 69 618 69 554 q 70 635 69 626 q 71 651 71 643 q 103 683 79 668 q 150 697 126 697 q 172 694 161 697 q 190 679 182 690 q 197 660 196 672 q 199 633 199 649 q 198 608 199 621 q 197 583 197 596 l 197 560 q 201 468 197 518 q 204 361 204 418 q 206 286 204 326 q 210 208 208 246 q 215 139 213 171 q 218 89 217 107 l 218 81 q 197 20 218 40 q 136 0 175 0 q 122 1 129 0 q 106 3 114 1 m 453 694 q 465 661 463 679 q 468 624 468 643 q 467 592 468 608 q 465 561 465 576 q 466 551 465 556 q 467 540 467 546 q 469 508 469 524 q 469 464 469 492 l 469 385 q 469 348 469 365 q 471 317 469 331 q 482 204 475 265 q 489 79 489 143 q 488 63 489 71 q 488 46 488 54 q 456 15 479 29 q 408 0 432 0 q 387 3 397 0 q 368 18 376 7 q 361 37 363 25 q 360 64 360 49 q 360 89 360 76 q 361 114 361 101 l 361 138 q 358 229 361 179 q 354 336 354 279 q 352 411 354 371 q 348 489 350 451 q 344 558 346 526 q 340 608 342 589 l 340 617 q 362 677 340 657 q 422 697 383 697 q 437 697 429 697 q 453 694 444 696 z "},"":{"ha":315,"x_min":-140,"x_max":503,"o":"m 14 1046 q 38 995 14 1008 q 96 975 63 982 q 163 955 129 968 q 214 904 196 942 q 227 839 225 878 q 229 761 229 800 l 229 750 q 229 688 229 729 q 228 602 229 647 q 227 516 228 557 q 225 457 226 475 q 217 320 222 389 q 211 189 211 251 q 212 155 211 171 q 214 124 213 139 q 221 90 217 107 q 225 60 225 72 l 225 54 q 197 11 219 26 q 143 -4 175 -4 q 89 11 111 -4 q 86 54 86 31 q 86 106 86 78 q 89 236 86 165 q 95 380 92 307 q 102 524 99 453 q 107 654 106 594 q 108 698 107 672 q 110 751 110 724 q 108 790 110 771 q 102 826 107 810 q 88 855 97 843 q 61 871 78 867 q 13 889 36 878 q -24 907 -10 900 q -60 927 -40 915 q -99 953 -81 939 q -128 987 -117 968 q -140 1028 -140 1006 q -114 1097 -140 1068 q -50 1145 -87 1126 q 29 1173 -12 1164 q 100 1182 71 1182 q 172 1178 136 1182 q 247 1175 208 1175 q 295 1177 271 1175 q 346 1186 319 1179 q 400 1204 368 1192 q 458 1217 432 1217 q 488 1207 476 1217 q 503 1171 500 1197 q 472 1118 503 1138 q 399 1089 442 1099 q 309 1076 356 1079 q 232 1072 263 1072 l 224 1072 q 158 1075 188 1072 q 104 1078 129 1078 q 76 1076 92 1078 q 46 1072 60 1075 q 23 1063 32 1069 q 14 1046 14 1056 z "},"":{"ha":313,"x_min":-185,"x_max":292,"o":"m 224 43 q 192 13 213 25 q 144 0 172 0 q 117 5 129 0 q 94 21 104 10 l 94 78 q 92 244 94 153 q 88 430 90 336 q 85 613 86 524 q 83 769 83 701 q 79 810 83 789 q 75 849 75 831 q 76 855 75 851 q 76 861 76 858 q 88 896 78 879 q 108 928 97 913 q 130 960 119 944 q 146 990 140 975 q 150 1021 150 1004 q 141 1063 150 1043 q 117 1098 132 1083 q 83 1121 103 1113 q 43 1129 64 1129 q 6 1122 21 1129 q -16 1102 -8 1117 q -30 1070 -24 1088 q -44 1035 -36 1053 q -67 1008 -53 1018 q -92 997 -78 1000 q -121 993 -106 993 q -157 999 -140 993 q -185 1015 -174 1004 q -122 1151 -172 1096 q -33 1210 -87 1190 q 81 1231 22 1231 q 199 1204 144 1231 q 278 1122 254 1178 q 287 1085 282 1111 q 292 1042 292 1058 l 292 1033 q 278 992 289 1013 q 255 951 268 972 q 229 908 242 931 q 213 861 217 886 q 209 834 210 847 q 208 806 208 821 q 209 772 208 789 q 210 740 210 756 q 210 724 210 732 q 208 708 210 715 q 206 664 206 688 q 206 615 206 640 q 208 488 206 556 q 215 353 211 421 q 222 222 219 286 q 225 104 225 157 q 225 72 225 88 q 224 43 225 57 z "},"":{"ha":331,"x_min":-279,"x_max":244,"o":"m 108 997 q -39 971 40 971 q -137 984 -90 971 q -214 1029 -185 997 q -233 1057 -225 1042 q -250 1092 -240 1072 q -269 1124 -258 1107 q -279 1157 -279 1142 q -269 1179 -279 1168 q -246 1199 -260 1190 q -216 1213 -232 1207 q -187 1218 -200 1218 q -183 1217 -185 1218 q -178 1217 -181 1217 q -150 1199 -160 1213 q -133 1167 -140 1185 q -117 1131 -126 1149 q -93 1103 -108 1114 q -51 1084 -76 1092 q -3 1076 -26 1076 q 28 1081 13 1076 q 66 1103 49 1086 q 101 1140 83 1121 q 140 1173 119 1158 q 188 1188 161 1188 q 205 1184 199 1188 q 226 1172 211 1181 q 240 1088 240 1135 q 238 1028 240 1058 q 235 968 235 999 q 235 897 235 938 q 234 810 235 857 q 233 712 233 763 q 233 611 233 661 q 234 467 233 535 q 238 351 235 399 q 238 333 238 342 q 239 317 239 325 q 236 244 239 279 q 233 174 233 210 q 235 131 233 153 q 242 88 236 110 q 244 76 244 79 q 220 19 244 43 q 163 -4 196 -4 q 117 14 135 -4 q 104 40 107 24 q 101 76 101 57 q 104 133 101 104 q 108 179 107 161 q 110 249 110 211 q 111 329 111 286 q 110 452 111 388 q 108 583 110 517 q 106 714 107 649 q 106 839 106 779 q 106 924 106 883 q 108 997 106 964 z "},"":{"ha":560,"x_min":-1,"x_max":476,"o":"m 167 592 q 138 578 151 590 q 109 551 124 565 q 79 526 94 538 q 46 515 64 515 q 1 529 24 515 q -1 550 -1 543 q 15 603 -1 578 q 58 650 32 629 q 117 685 85 671 q 178 701 149 699 q 200 701 181 701 q 242 702 219 701 q 284 703 265 703 q 306 703 303 703 q 383 680 353 703 q 430 621 413 657 q 455 540 447 585 q 465 449 463 494 q 467 416 467 432 q 467 385 467 400 q 467 332 467 368 q 466 249 467 296 q 465 149 465 201 q 463 51 464 97 q 463 -32 463 4 q 463 -83 463 -68 q 463 -121 463 -103 q 465 -157 464 -139 q 472 -185 467 -172 q 476 -210 476 -199 q 467 -235 475 -222 q 446 -257 458 -247 q 418 -273 433 -267 q 389 -279 403 -279 q 360 -271 372 -279 q 344 -247 347 -262 q 340 -211 340 -231 l 340 -165 q 340 -97 340 -142 q 338 3 339 -53 q 337 119 338 58 q 335 239 336 181 q 334 347 335 297 q 333 426 333 396 q 326 517 333 482 q 307 573 319 553 q 279 600 294 593 q 247 607 264 607 q 203 601 225 607 q 167 592 182 594 z "},"":{"ha":644,"x_min":50,"x_max":593,"o":"m 333 -69 q 335 -37 335 -53 q 335 -6 335 -21 q 333 68 335 38 q 332 139 332 99 q 335 215 332 178 q 344 293 338 253 q 367 347 351 326 q 399 383 382 368 q 431 413 415 399 q 454 449 447 428 q 460 472 458 460 q 461 496 461 483 q 459 532 461 514 q 452 565 457 550 q 438 588 447 579 q 414 597 428 597 l 408 597 q 388 574 396 586 q 369 553 379 563 q 346 536 360 543 q 310 529 332 529 q 274 540 288 529 q 250 563 261 550 q 227 587 239 576 q 194 597 215 597 q 175 588 175 597 q 189 545 175 563 q 221 517 203 528 q 256 502 239 507 q 278 497 272 497 q 283 495 279 497 q 288 490 288 493 q 282 468 288 482 q 267 442 276 454 q 244 419 257 429 q 217 410 231 410 q 155 419 185 410 q 102 448 125 429 q 65 492 79 467 q 50 551 50 518 q 89 660 50 621 q 200 700 128 700 q 258 685 233 700 q 310 640 283 669 l 319 649 q 370 687 347 672 q 426 701 393 701 q 490 690 460 701 q 542 655 519 678 q 579 598 565 632 q 593 519 593 564 l 593 510 q 569 431 590 465 q 525 365 547 397 q 491 324 510 346 q 465 269 472 301 q 459 222 460 243 q 458 174 458 200 l 458 136 q 460 75 458 99 q 465 24 463 51 q 472 -1 468 11 q 475 -25 475 -14 l 475 -31 q 442 -76 469 -58 q 386 -93 415 -93 q 333 -69 351 -93 z "},"":{"ha":0,"x_min":-450,"x_max":-25,"o":"m -314 1004 q -335 956 -335 990 q -325 908 -335 931 q -295 930 -312 917 q -258 943 -278 943 q -247 940 -254 943 q -231 933 -239 938 q -215 926 -222 929 q -203 921 -207 922 q -185 959 -196 939 q -161 982 -174 979 q -146 983 -156 983 q -107 963 -119 983 q -94 917 -94 943 q -100 882 -94 900 q -117 849 -106 864 q -144 825 -128 835 q -183 815 -161 815 q -197 817 -192 815 q -235 826 -212 819 q -269 842 -258 832 q -291 828 -283 833 q -306 820 -299 824 q -320 815 -312 817 q -340 814 -328 814 q -352 815 -347 814 q -364 817 -357 815 q -429 863 -408 825 q -450 950 -450 901 q -437 1026 -450 990 q -396 1081 -424 1061 q -348 1101 -375 1096 q -292 1106 -321 1106 l -271 1106 q -239 1100 -256 1106 q -204 1094 -222 1094 q -172 1104 -183 1096 q -150 1122 -161 1113 q -125 1140 -139 1132 q -86 1147 -111 1147 l -75 1147 q -40 1135 -56 1144 q -25 1103 -25 1125 q -26 1089 -25 1094 q -39 1069 -29 1079 q -62 1049 -49 1058 q -91 1031 -76 1039 q -117 1018 -106 1022 q -171 1003 -144 1007 q -225 999 -197 999 q -268 1000 -246 999 q -314 1004 -290 1001 z "},"":{"ha":0,"x_min":-228,"x_max":-94,"o":"m -176 1110 q -213 1119 -207 1110 q -219 1149 -219 1129 q -219 1170 -219 1158 q -222 1197 -219 1182 q -228 1257 -228 1229 q -227 1262 -228 1260 q -226 1267 -226 1264 q -197 1297 -221 1289 q -146 1306 -174 1306 q -122 1301 -133 1306 q -99 1283 -103 1294 q -96 1254 -96 1272 q -96 1232 -96 1244 q -94 1204 -96 1219 l -94 1192 q -103 1131 -94 1153 q -151 1108 -112 1108 q -162 1108 -157 1108 q -176 1110 -168 1108 z "},"":{"ha":0,"x_min":-424,"x_max":57,"o":"m -378 1149 q -375 1178 -378 1165 q -369 1201 -372 1190 q -362 1226 -365 1213 q -358 1258 -358 1239 q -403 1277 -382 1263 q -424 1313 -424 1292 q -406 1347 -424 1329 q -374 1367 -392 1361 q -335 1372 -356 1372 q -293 1366 -314 1372 q -256 1349 -272 1360 q -228 1322 -239 1338 q -218 1285 -218 1306 q -237 1229 -218 1258 l -224 1229 q -156 1246 -183 1229 q -104 1283 -129 1263 q -51 1319 -79 1303 q 19 1336 -24 1336 l 26 1336 q 57 1293 57 1317 q 48 1267 57 1279 q 26 1242 39 1254 q -3 1219 13 1231 q -33 1200 -19 1208 l -39 1197 q -91 1168 -61 1183 q -155 1140 -121 1153 q -226 1118 -189 1126 q -297 1110 -262 1110 q -340 1117 -325 1110 q -378 1139 -354 1124 l -378 1149 z "},"":{"ha":0,"x_min":-494,"x_max":-47,"o":"m -229 1126 q -232 1138 -232 1132 q -232 1147 -232 1143 l -232 1214 q -243 1247 -232 1242 q -257 1251 -254 1251 q -267 1243 -262 1251 q -275 1225 -271 1235 q -283 1207 -279 1215 q -293 1199 -287 1199 q -319 1207 -308 1199 q -340 1225 -331 1215 q -357 1243 -349 1235 q -375 1251 -365 1251 q -387 1245 -385 1249 q -389 1238 -389 1242 q -381 1213 -389 1222 q -362 1197 -372 1204 q -343 1183 -351 1190 q -335 1164 -335 1175 q -357 1125 -335 1140 q -407 1110 -379 1110 q -449 1122 -432 1110 q -476 1151 -465 1133 q -490 1190 -486 1169 q -494 1229 -494 1211 q -467 1325 -494 1288 q -387 1363 -439 1363 q -344 1350 -362 1363 q -303 1321 -326 1338 q -281 1342 -293 1328 q -236 1356 -268 1356 q -217 1353 -228 1356 q -197 1342 -207 1351 q -180 1310 -187 1332 q -169 1251 -172 1289 q -167 1270 -168 1256 q -166 1301 -167 1285 q -165 1333 -165 1318 q -165 1350 -165 1347 l -165 1382 q -146 1419 -165 1406 q -99 1433 -126 1433 q -59 1412 -71 1433 q -47 1354 -47 1390 q -53 1296 -47 1326 q -68 1236 -58 1265 q -89 1183 -78 1207 q -110 1144 -100 1158 l -115 1140 q -137 1118 -126 1128 q -171 1108 -149 1108 q -201 1113 -183 1108 q -229 1126 -218 1117 z "},"":{"ha":0,"x_min":-340,"x_max":1,"o":"m -101 1203 q -99 1180 -101 1185 q -94 1160 -97 1175 q -124 1123 -100 1138 q -176 1108 -149 1108 q -219 1122 -201 1108 q -226 1144 -225 1136 q -226 1171 -226 1151 l -226 1196 q -261 1201 -242 1200 q -298 1203 -281 1201 q -328 1211 -315 1206 q -340 1229 -340 1217 l -340 1251 q -333 1283 -340 1272 q -315 1299 -326 1293 q -288 1308 -303 1304 q -257 1315 -274 1311 q -254 1316 -256 1315 q -251 1317 -253 1317 l -253 1349 q -245 1376 -253 1365 q -226 1394 -237 1388 q -199 1402 -214 1400 q -171 1404 -185 1404 q -125 1389 -144 1404 q -106 1340 -106 1374 l -106 1321 q -81 1322 -87 1322 q -56 1322 -75 1322 q -12 1315 -25 1322 q 1 1279 1 1307 q -1 1260 1 1274 q -2 1258 -1 1258 q -3 1256 -3 1257 q -11 1235 -3 1244 q -32 1222 -19 1225 q -56 1219 -49 1219 q -69 1219 -64 1219 q -81 1217 -74 1218 q -101 1211 -87 1215 l -101 1203 z "},"":{"ha":0,"x_min":-342,"x_max":63,"o":"m -201 1192 q -207 1153 -206 1168 q -231 1124 -208 1138 q -257 1113 -240 1117 q -289 1108 -274 1108 q -312 1110 -301 1108 q -329 1119 -324 1113 q -339 1138 -336 1126 q -342 1161 -342 1149 q -341 1175 -342 1172 q -340 1190 -340 1178 l -340 1203 q -321 1262 -340 1240 q -270 1293 -301 1283 q -201 1305 -239 1303 q -128 1307 -164 1307 l -112 1307 q -82 1306 -97 1307 q -53 1306 -67 1306 l -32 1306 q -1 1306 -17 1306 q 28 1303 15 1306 q 51 1292 42 1300 q 63 1268 60 1285 l 63 1263 q 58 1235 63 1249 q 49 1217 53 1221 q 17 1198 35 1203 q -19 1193 0 1193 q -80 1199 -49 1193 q -142 1204 -111 1204 q -172 1201 -157 1204 q -201 1192 -187 1199 z "},"":{"ha":0,"x_min":-339,"x_max":-64,"o":"m -64 986 q -76 922 -64 953 q -110 867 -89 890 q -158 828 -131 843 q -214 814 -185 814 q -245 815 -228 814 q -278 821 -262 817 q -306 833 -293 825 q -325 856 -319 842 q -335 891 -332 871 q -339 933 -339 911 q -331 1001 -339 978 q -299 1051 -322 1025 q -248 1088 -275 1078 q -186 1099 -221 1099 q -101 1069 -137 1099 q -64 986 -64 1039 m -204 1004 q -228 994 -219 1004 q -236 961 -236 985 q -226 917 -236 924 q -206 911 -217 911 q -183 920 -190 911 q -175 940 -175 929 l -175 961 q -184 990 -175 976 q -204 1004 -193 1004 z "},"":{"ha":0,"x_min":0,"x_max":0,"o":""},"":{"ha":729,"x_min":83,"x_max":646,"o":"m 646 408 q 636 308 646 358 q 609 211 626 257 q 569 128 592 165 q 522 67 547 90 q 489 43 510 56 q 442 20 468 31 q 385 3 415 10 q 324 -4 354 -4 q 246 10 282 -4 q 176 67 206 26 q 125 161 146 107 q 94 278 104 215 q 83 401 83 340 q 83 429 83 422 q 84 440 83 436 q 85 449 85 444 q 85 471 85 454 q 115 569 85 526 q 190 642 144 613 q 292 686 236 671 q 400 701 347 701 q 501 685 456 701 q 578 636 546 669 q 628 552 610 603 q 646 431 646 501 l 646 408 m 360 596 q 334 592 349 596 q 305 583 319 589 q 276 569 290 576 q 254 551 263 561 q 231 526 239 536 q 219 503 222 515 q 215 474 215 490 q 214 429 214 457 l 214 422 l 214 414 q 215 395 214 404 q 217 376 215 386 q 222 309 217 349 q 240 230 228 269 q 271 158 251 190 q 319 115 290 126 q 343 110 331 111 q 369 108 356 108 l 400 108 q 487 236 463 154 q 511 413 511 318 q 512 459 511 444 q 513 485 513 474 q 510 509 513 496 q 501 553 508 522 q 478 572 493 564 q 444 586 463 581 q 408 594 426 592 q 375 597 389 597 q 367 597 371 597 q 360 596 364 596 m 453 415 q 457 369 457 392 q 432 276 457 315 q 349 236 407 236 l 343 236 q 307 247 322 236 q 283 274 292 257 q 269 311 274 290 q 265 353 265 332 q 283 433 265 404 q 323 467 296 453 q 378 481 350 481 q 425 466 404 481 q 453 415 446 451 z "},"":{"ha":600,"x_min":69,"x_max":531,"o":"m 531 246 q 518 157 531 200 q 481 81 506 114 q 419 26 456 47 q 333 0 382 4 q 323 -1 328 0 q 313 -1 318 -1 q 233 10 272 -1 q 175 33 194 21 q 132 72 151 47 q 99 126 113 96 q 77 192 85 157 q 69 263 69 228 q 84 349 69 308 q 131 418 99 390 q 208 458 163 446 q 303 469 254 469 q 471 413 411 469 q 531 246 531 357 m 319 103 q 360 115 344 103 q 383 147 375 128 q 393 191 390 167 q 396 239 396 215 q 392 301 396 276 q 376 340 389 325 q 342 360 364 354 q 282 367 319 367 q 222 340 239 367 q 204 276 204 313 q 209 219 204 249 q 227 163 214 189 q 263 119 240 136 q 319 103 285 103 z "}}}
